<?xml version="1.0" encoding="utf-8" standalone="no"?>
<!DOCTYPE svg PUBLIC "-//W3C//DTD SVG 1.1//EN"
  "http://www.w3.org/Graphics/SVG/1.1/DTD/svg11.dtd">
<!-- Created with matplotlib (https://matplotlib.org/) -->
<svg height="345.6pt" version="1.1" viewBox="0 0 460.8 345.6" width="460.8pt" xmlns="http://www.w3.org/2000/svg" xmlns:xlink="http://www.w3.org/1999/xlink">
 <defs>
  <style type="text/css">
*{stroke-linecap:butt;stroke-linejoin:round;}
  </style>
 </defs>
 <g id="figure_1">
  <g id="patch_1">
   <path d="M 0 345.6 
L 460.8 345.6 
L 460.8 0 
L 0 0 
z
" style="fill:#ffffff;"/>
  </g>
  <g id="axes_1">
   <g id="patch_2">
    <path d="M 57.6 307.584 
L 414.72 307.584 
L 414.72 41.472 
L 57.6 41.472 
z
" style="fill:#ffffff;"/>
   </g>
   <g id="matplotlib.axis_1">
    <g id="xtick_1">
     <g id="line2d_1">
      <defs>
       <path d="M 0 0 
L 0 3.5 
" id="m629f113e9d" style="stroke:#000000;stroke-width:0.8;"/>
      </defs>
      <g>
       <use style="stroke:#000000;stroke-width:0.8;" x="73.832727" xlink:href="#m629f113e9d" y="307.584"/>
      </g>
     </g>
     <g id="text_1">
      <!-- 0.0 -->
      <defs>
       <path d="M 31.78125 66.40625 
Q 24.171875 66.40625 20.328125 58.90625 
Q 16.5 51.421875 16.5 36.375 
Q 16.5 21.390625 20.328125 13.890625 
Q 24.171875 6.390625 31.78125 6.390625 
Q 39.453125 6.390625 43.28125 13.890625 
Q 47.125 21.390625 47.125 36.375 
Q 47.125 51.421875 43.28125 58.90625 
Q 39.453125 66.40625 31.78125 66.40625 
z
M 31.78125 74.21875 
Q 44.046875 74.21875 50.515625 64.515625 
Q 56.984375 54.828125 56.984375 36.375 
Q 56.984375 17.96875 50.515625 8.265625 
Q 44.046875 -1.421875 31.78125 -1.421875 
Q 19.53125 -1.421875 13.0625 8.265625 
Q 6.59375 17.96875 6.59375 36.375 
Q 6.59375 54.828125 13.0625 64.515625 
Q 19.53125 74.21875 31.78125 74.21875 
z
" id="DejaVuSans-48"/>
       <path d="M 10.6875 12.40625 
L 21 12.40625 
L 21 0 
L 10.6875 0 
z
" id="DejaVuSans-46"/>
      </defs>
      <g transform="translate(65.881165 322.182437)scale(0.1 -0.1)">
       <use xlink:href="#DejaVuSans-48"/>
       <use x="63.623047" xlink:href="#DejaVuSans-46"/>
       <use x="95.410156" xlink:href="#DejaVuSans-48"/>
      </g>
     </g>
    </g>
    <g id="xtick_2">
     <g id="line2d_2">
      <g>
       <use style="stroke:#000000;stroke-width:0.8;" x="117.682668" xlink:href="#m629f113e9d" y="307.584"/>
      </g>
     </g>
     <g id="text_2">
      <!-- 0.2 -->
      <defs>
       <path d="M 19.1875 8.296875 
L 53.609375 8.296875 
L 53.609375 0 
L 7.328125 0 
L 7.328125 8.296875 
Q 12.9375 14.109375 22.625 23.890625 
Q 32.328125 33.6875 34.8125 36.53125 
Q 39.546875 41.84375 41.421875 45.53125 
Q 43.3125 49.21875 43.3125 52.78125 
Q 43.3125 58.59375 39.234375 62.25 
Q 35.15625 65.921875 28.609375 65.921875 
Q 23.96875 65.921875 18.8125 64.3125 
Q 13.671875 62.703125 7.8125 59.421875 
L 7.8125 69.390625 
Q 13.765625 71.78125 18.9375 73 
Q 24.125 74.21875 28.421875 74.21875 
Q 39.75 74.21875 46.484375 68.546875 
Q 53.21875 62.890625 53.21875 53.421875 
Q 53.21875 48.921875 51.53125 44.890625 
Q 49.859375 40.875 45.40625 35.40625 
Q 44.1875 33.984375 37.640625 27.21875 
Q 31.109375 20.453125 19.1875 8.296875 
z
" id="DejaVuSans-50"/>
      </defs>
      <g transform="translate(109.731105 322.182437)scale(0.1 -0.1)">
       <use xlink:href="#DejaVuSans-48"/>
       <use x="63.623047" xlink:href="#DejaVuSans-46"/>
       <use x="95.410156" xlink:href="#DejaVuSans-50"/>
      </g>
     </g>
    </g>
    <g id="xtick_3">
     <g id="line2d_3">
      <g>
       <use style="stroke:#000000;stroke-width:0.8;" x="161.532608" xlink:href="#m629f113e9d" y="307.584"/>
      </g>
     </g>
     <g id="text_3">
      <!-- 0.4 -->
      <defs>
       <path d="M 37.796875 64.3125 
L 12.890625 25.390625 
L 37.796875 25.390625 
z
M 35.203125 72.90625 
L 47.609375 72.90625 
L 47.609375 25.390625 
L 58.015625 25.390625 
L 58.015625 17.1875 
L 47.609375 17.1875 
L 47.609375 0 
L 37.796875 0 
L 37.796875 17.1875 
L 4.890625 17.1875 
L 4.890625 26.703125 
z
" id="DejaVuSans-52"/>
      </defs>
      <g transform="translate(153.581046 322.182437)scale(0.1 -0.1)">
       <use xlink:href="#DejaVuSans-48"/>
       <use x="63.623047" xlink:href="#DejaVuSans-46"/>
       <use x="95.410156" xlink:href="#DejaVuSans-52"/>
      </g>
     </g>
    </g>
    <g id="xtick_4">
     <g id="line2d_4">
      <g>
       <use style="stroke:#000000;stroke-width:0.8;" x="205.382549" xlink:href="#m629f113e9d" y="307.584"/>
      </g>
     </g>
     <g id="text_4">
      <!-- 0.6 -->
      <defs>
       <path d="M 33.015625 40.375 
Q 26.375 40.375 22.484375 35.828125 
Q 18.609375 31.296875 18.609375 23.390625 
Q 18.609375 15.53125 22.484375 10.953125 
Q 26.375 6.390625 33.015625 6.390625 
Q 39.65625 6.390625 43.53125 10.953125 
Q 47.40625 15.53125 47.40625 23.390625 
Q 47.40625 31.296875 43.53125 35.828125 
Q 39.65625 40.375 33.015625 40.375 
z
M 52.59375 71.296875 
L 52.59375 62.3125 
Q 48.875 64.0625 45.09375 64.984375 
Q 41.3125 65.921875 37.59375 65.921875 
Q 27.828125 65.921875 22.671875 59.328125 
Q 17.53125 52.734375 16.796875 39.40625 
Q 19.671875 43.65625 24.015625 45.921875 
Q 28.375 48.1875 33.59375 48.1875 
Q 44.578125 48.1875 50.953125 41.515625 
Q 57.328125 34.859375 57.328125 23.390625 
Q 57.328125 12.15625 50.6875 5.359375 
Q 44.046875 -1.421875 33.015625 -1.421875 
Q 20.359375 -1.421875 13.671875 8.265625 
Q 6.984375 17.96875 6.984375 36.375 
Q 6.984375 53.65625 15.1875 63.9375 
Q 23.390625 74.21875 37.203125 74.21875 
Q 40.921875 74.21875 44.703125 73.484375 
Q 48.484375 72.75 52.59375 71.296875 
z
" id="DejaVuSans-54"/>
      </defs>
      <g transform="translate(197.430986 322.182437)scale(0.1 -0.1)">
       <use xlink:href="#DejaVuSans-48"/>
       <use x="63.623047" xlink:href="#DejaVuSans-46"/>
       <use x="95.410156" xlink:href="#DejaVuSans-54"/>
      </g>
     </g>
    </g>
    <g id="xtick_5">
     <g id="line2d_5">
      <g>
       <use style="stroke:#000000;stroke-width:0.8;" x="249.232489" xlink:href="#m629f113e9d" y="307.584"/>
      </g>
     </g>
     <g id="text_5">
      <!-- 0.8 -->
      <defs>
       <path d="M 31.78125 34.625 
Q 24.75 34.625 20.71875 30.859375 
Q 16.703125 27.09375 16.703125 20.515625 
Q 16.703125 13.921875 20.71875 10.15625 
Q 24.75 6.390625 31.78125 6.390625 
Q 38.8125 6.390625 42.859375 10.171875 
Q 46.921875 13.96875 46.921875 20.515625 
Q 46.921875 27.09375 42.890625 30.859375 
Q 38.875 34.625 31.78125 34.625 
z
M 21.921875 38.8125 
Q 15.578125 40.375 12.03125 44.71875 
Q 8.5 49.078125 8.5 55.328125 
Q 8.5 64.0625 14.71875 69.140625 
Q 20.953125 74.21875 31.78125 74.21875 
Q 42.671875 74.21875 48.875 69.140625 
Q 55.078125 64.0625 55.078125 55.328125 
Q 55.078125 49.078125 51.53125 44.71875 
Q 48 40.375 41.703125 38.8125 
Q 48.828125 37.15625 52.796875 32.3125 
Q 56.78125 27.484375 56.78125 20.515625 
Q 56.78125 9.90625 50.3125 4.234375 
Q 43.84375 -1.421875 31.78125 -1.421875 
Q 19.734375 -1.421875 13.25 4.234375 
Q 6.78125 9.90625 6.78125 20.515625 
Q 6.78125 27.484375 10.78125 32.3125 
Q 14.796875 37.15625 21.921875 38.8125 
z
M 18.3125 54.390625 
Q 18.3125 48.734375 21.84375 45.5625 
Q 25.390625 42.390625 31.78125 42.390625 
Q 38.140625 42.390625 41.71875 45.5625 
Q 45.3125 48.734375 45.3125 54.390625 
Q 45.3125 60.0625 41.71875 63.234375 
Q 38.140625 66.40625 31.78125 66.40625 
Q 25.390625 66.40625 21.84375 63.234375 
Q 18.3125 60.0625 18.3125 54.390625 
z
" id="DejaVuSans-56"/>
      </defs>
      <g transform="translate(241.280927 322.182437)scale(0.1 -0.1)">
       <use xlink:href="#DejaVuSans-48"/>
       <use x="63.623047" xlink:href="#DejaVuSans-46"/>
       <use x="95.410156" xlink:href="#DejaVuSans-56"/>
      </g>
     </g>
    </g>
    <g id="xtick_6">
     <g id="line2d_6">
      <g>
       <use style="stroke:#000000;stroke-width:0.8;" x="293.08243" xlink:href="#m629f113e9d" y="307.584"/>
      </g>
     </g>
     <g id="text_6">
      <!-- 1.0 -->
      <defs>
       <path d="M 12.40625 8.296875 
L 28.515625 8.296875 
L 28.515625 63.921875 
L 10.984375 60.40625 
L 10.984375 69.390625 
L 28.421875 72.90625 
L 38.28125 72.90625 
L 38.28125 8.296875 
L 54.390625 8.296875 
L 54.390625 0 
L 12.40625 0 
z
" id="DejaVuSans-49"/>
      </defs>
      <g transform="translate(285.130868 322.182437)scale(0.1 -0.1)">
       <use xlink:href="#DejaVuSans-49"/>
       <use x="63.623047" xlink:href="#DejaVuSans-46"/>
       <use x="95.410156" xlink:href="#DejaVuSans-48"/>
      </g>
     </g>
    </g>
    <g id="xtick_7">
     <g id="line2d_7">
      <g>
       <use style="stroke:#000000;stroke-width:0.8;" x="336.932371" xlink:href="#m629f113e9d" y="307.584"/>
      </g>
     </g>
     <g id="text_7">
      <!-- 1.2 -->
      <g transform="translate(328.980808 322.182437)scale(0.1 -0.1)">
       <use xlink:href="#DejaVuSans-49"/>
       <use x="63.623047" xlink:href="#DejaVuSans-46"/>
       <use x="95.410156" xlink:href="#DejaVuSans-50"/>
      </g>
     </g>
    </g>
    <g id="xtick_8">
     <g id="line2d_8">
      <g>
       <use style="stroke:#000000;stroke-width:0.8;" x="380.782311" xlink:href="#m629f113e9d" y="307.584"/>
      </g>
     </g>
     <g id="text_8">
      <!-- 1.4 -->
      <g transform="translate(372.830749 322.182437)scale(0.1 -0.1)">
       <use xlink:href="#DejaVuSans-49"/>
       <use x="63.623047" xlink:href="#DejaVuSans-46"/>
       <use x="95.410156" xlink:href="#DejaVuSans-52"/>
      </g>
     </g>
    </g>
    <g id="text_9">
     <!-- Time (s) -->
     <defs>
      <path d="M -0.296875 72.90625 
L 61.375 72.90625 
L 61.375 64.59375 
L 35.5 64.59375 
L 35.5 0 
L 25.59375 0 
L 25.59375 64.59375 
L -0.296875 64.59375 
z
" id="DejaVuSans-84"/>
      <path d="M 9.421875 54.6875 
L 18.40625 54.6875 
L 18.40625 0 
L 9.421875 0 
z
M 9.421875 75.984375 
L 18.40625 75.984375 
L 18.40625 64.59375 
L 9.421875 64.59375 
z
" id="DejaVuSans-105"/>
      <path d="M 52 44.1875 
Q 55.375 50.25 60.0625 53.125 
Q 64.75 56 71.09375 56 
Q 79.640625 56 84.28125 50.015625 
Q 88.921875 44.046875 88.921875 33.015625 
L 88.921875 0 
L 79.890625 0 
L 79.890625 32.71875 
Q 79.890625 40.578125 77.09375 44.375 
Q 74.3125 48.1875 68.609375 48.1875 
Q 61.625 48.1875 57.5625 43.546875 
Q 53.515625 38.921875 53.515625 30.90625 
L 53.515625 0 
L 44.484375 0 
L 44.484375 32.71875 
Q 44.484375 40.625 41.703125 44.40625 
Q 38.921875 48.1875 33.109375 48.1875 
Q 26.21875 48.1875 22.15625 43.53125 
Q 18.109375 38.875 18.109375 30.90625 
L 18.109375 0 
L 9.078125 0 
L 9.078125 54.6875 
L 18.109375 54.6875 
L 18.109375 46.1875 
Q 21.1875 51.21875 25.484375 53.609375 
Q 29.78125 56 35.6875 56 
Q 41.65625 56 45.828125 52.96875 
Q 50 49.953125 52 44.1875 
z
" id="DejaVuSans-109"/>
      <path d="M 56.203125 29.59375 
L 56.203125 25.203125 
L 14.890625 25.203125 
Q 15.484375 15.921875 20.484375 11.0625 
Q 25.484375 6.203125 34.421875 6.203125 
Q 39.59375 6.203125 44.453125 7.46875 
Q 49.3125 8.734375 54.109375 11.28125 
L 54.109375 2.78125 
Q 49.265625 0.734375 44.1875 -0.34375 
Q 39.109375 -1.421875 33.890625 -1.421875 
Q 20.796875 -1.421875 13.15625 6.1875 
Q 5.515625 13.8125 5.515625 26.8125 
Q 5.515625 40.234375 12.765625 48.109375 
Q 20.015625 56 32.328125 56 
Q 43.359375 56 49.78125 48.890625 
Q 56.203125 41.796875 56.203125 29.59375 
z
M 47.21875 32.234375 
Q 47.125 39.59375 43.09375 43.984375 
Q 39.0625 48.390625 32.421875 48.390625 
Q 24.90625 48.390625 20.390625 44.140625 
Q 15.875 39.890625 15.1875 32.171875 
z
" id="DejaVuSans-101"/>
      <path id="DejaVuSans-32"/>
      <path d="M 31 75.875 
Q 24.46875 64.65625 21.28125 53.65625 
Q 18.109375 42.671875 18.109375 31.390625 
Q 18.109375 20.125 21.3125 9.0625 
Q 24.515625 -2 31 -13.1875 
L 23.1875 -13.1875 
Q 15.875 -1.703125 12.234375 9.375 
Q 8.59375 20.453125 8.59375 31.390625 
Q 8.59375 42.28125 12.203125 53.3125 
Q 15.828125 64.359375 23.1875 75.875 
z
" id="DejaVuSans-40"/>
      <path d="M 44.28125 53.078125 
L 44.28125 44.578125 
Q 40.484375 46.53125 36.375 47.5 
Q 32.28125 48.484375 27.875 48.484375 
Q 21.1875 48.484375 17.84375 46.4375 
Q 14.5 44.390625 14.5 40.28125 
Q 14.5 37.15625 16.890625 35.375 
Q 19.28125 33.59375 26.515625 31.984375 
L 29.59375 31.296875 
Q 39.15625 29.25 43.1875 25.515625 
Q 47.21875 21.78125 47.21875 15.09375 
Q 47.21875 7.46875 41.1875 3.015625 
Q 35.15625 -1.421875 24.609375 -1.421875 
Q 20.21875 -1.421875 15.453125 -0.5625 
Q 10.6875 0.296875 5.421875 2 
L 5.421875 11.28125 
Q 10.40625 8.6875 15.234375 7.390625 
Q 20.0625 6.109375 24.8125 6.109375 
Q 31.15625 6.109375 34.5625 8.28125 
Q 37.984375 10.453125 37.984375 14.40625 
Q 37.984375 18.0625 35.515625 20.015625 
Q 33.0625 21.96875 24.703125 23.78125 
L 21.578125 24.515625 
Q 13.234375 26.265625 9.515625 29.90625 
Q 5.8125 33.546875 5.8125 39.890625 
Q 5.8125 47.609375 11.28125 51.796875 
Q 16.75 56 26.8125 56 
Q 31.78125 56 36.171875 55.265625 
Q 40.578125 54.546875 44.28125 53.078125 
z
" id="DejaVuSans-115"/>
      <path d="M 8.015625 75.875 
L 15.828125 75.875 
Q 23.140625 64.359375 26.78125 53.3125 
Q 30.421875 42.28125 30.421875 31.390625 
Q 30.421875 20.453125 26.78125 9.375 
Q 23.140625 -1.703125 15.828125 -13.1875 
L 8.015625 -13.1875 
Q 14.5 -2 17.703125 9.0625 
Q 20.90625 20.125 20.90625 31.390625 
Q 20.90625 42.671875 17.703125 53.65625 
Q 14.5 64.65625 8.015625 75.875 
z
" id="DejaVuSans-41"/>
     </defs>
     <g transform="translate(215.831094 335.860562)scale(0.1 -0.1)">
      <use xlink:href="#DejaVuSans-84"/>
      <use x="57.958984" xlink:href="#DejaVuSans-105"/>
      <use x="85.742188" xlink:href="#DejaVuSans-109"/>
      <use x="183.154297" xlink:href="#DejaVuSans-101"/>
      <use x="244.677734" xlink:href="#DejaVuSans-32"/>
      <use x="276.464844" xlink:href="#DejaVuSans-40"/>
      <use x="315.478516" xlink:href="#DejaVuSans-115"/>
      <use x="367.578125" xlink:href="#DejaVuSans-41"/>
     </g>
    </g>
   </g>
   <g id="matplotlib.axis_2">
    <g id="ytick_1">
     <g id="line2d_9">
      <defs>
       <path d="M 0 0 
L -3.5 0 
" id="m442c74096c" style="stroke:#000000;stroke-width:0.8;"/>
      </defs>
      <g>
       <use style="stroke:#000000;stroke-width:0.8;" x="57.6" xlink:href="#m442c74096c" y="273.919918"/>
      </g>
     </g>
     <g id="text_10">
      <!-- 0.30 -->
      <defs>
       <path d="M 40.578125 39.3125 
Q 47.65625 37.796875 51.625 33 
Q 55.609375 28.21875 55.609375 21.1875 
Q 55.609375 10.40625 48.1875 4.484375 
Q 40.765625 -1.421875 27.09375 -1.421875 
Q 22.515625 -1.421875 17.65625 -0.515625 
Q 12.796875 0.390625 7.625 2.203125 
L 7.625 11.71875 
Q 11.71875 9.328125 16.59375 8.109375 
Q 21.484375 6.890625 26.8125 6.890625 
Q 36.078125 6.890625 40.9375 10.546875 
Q 45.796875 14.203125 45.796875 21.1875 
Q 45.796875 27.640625 41.28125 31.265625 
Q 36.765625 34.90625 28.71875 34.90625 
L 20.21875 34.90625 
L 20.21875 43.015625 
L 29.109375 43.015625 
Q 36.375 43.015625 40.234375 45.921875 
Q 44.09375 48.828125 44.09375 54.296875 
Q 44.09375 59.90625 40.109375 62.90625 
Q 36.140625 65.921875 28.71875 65.921875 
Q 24.65625 65.921875 20.015625 65.03125 
Q 15.375 64.15625 9.8125 62.3125 
L 9.8125 71.09375 
Q 15.4375 72.65625 20.34375 73.4375 
Q 25.25 74.21875 29.59375 74.21875 
Q 40.828125 74.21875 47.359375 69.109375 
Q 53.90625 64.015625 53.90625 55.328125 
Q 53.90625 49.265625 50.4375 45.09375 
Q 46.96875 40.921875 40.578125 39.3125 
z
" id="DejaVuSans-51"/>
      </defs>
      <g transform="translate(28.334375 277.719137)scale(0.1 -0.1)">
       <use xlink:href="#DejaVuSans-48"/>
       <use x="63.623047" xlink:href="#DejaVuSans-46"/>
       <use x="95.410156" xlink:href="#DejaVuSans-51"/>
       <use x="159.033203" xlink:href="#DejaVuSans-48"/>
      </g>
     </g>
    </g>
    <g id="ytick_2">
     <g id="line2d_10">
      <g>
       <use style="stroke:#000000;stroke-width:0.8;" x="57.6" xlink:href="#m442c74096c" y="226.702265"/>
      </g>
     </g>
     <g id="text_11">
      <!-- 0.35 -->
      <defs>
       <path d="M 10.796875 72.90625 
L 49.515625 72.90625 
L 49.515625 64.59375 
L 19.828125 64.59375 
L 19.828125 46.734375 
Q 21.96875 47.46875 24.109375 47.828125 
Q 26.265625 48.1875 28.421875 48.1875 
Q 40.625 48.1875 47.75 41.5 
Q 54.890625 34.8125 54.890625 23.390625 
Q 54.890625 11.625 47.5625 5.09375 
Q 40.234375 -1.421875 26.90625 -1.421875 
Q 22.3125 -1.421875 17.546875 -0.640625 
Q 12.796875 0.140625 7.71875 1.703125 
L 7.71875 11.625 
Q 12.109375 9.234375 16.796875 8.0625 
Q 21.484375 6.890625 26.703125 6.890625 
Q 35.15625 6.890625 40.078125 11.328125 
Q 45.015625 15.765625 45.015625 23.390625 
Q 45.015625 31 40.078125 35.4375 
Q 35.15625 39.890625 26.703125 39.890625 
Q 22.75 39.890625 18.8125 39.015625 
Q 14.890625 38.140625 10.796875 36.28125 
z
" id="DejaVuSans-53"/>
      </defs>
      <g transform="translate(28.334375 230.501484)scale(0.1 -0.1)">
       <use xlink:href="#DejaVuSans-48"/>
       <use x="63.623047" xlink:href="#DejaVuSans-46"/>
       <use x="95.410156" xlink:href="#DejaVuSans-51"/>
       <use x="159.033203" xlink:href="#DejaVuSans-53"/>
      </g>
     </g>
    </g>
    <g id="ytick_3">
     <g id="line2d_11">
      <g>
       <use style="stroke:#000000;stroke-width:0.8;" x="57.6" xlink:href="#m442c74096c" y="179.484612"/>
      </g>
     </g>
     <g id="text_12">
      <!-- 0.40 -->
      <g transform="translate(28.334375 183.283831)scale(0.1 -0.1)">
       <use xlink:href="#DejaVuSans-48"/>
       <use x="63.623047" xlink:href="#DejaVuSans-46"/>
       <use x="95.410156" xlink:href="#DejaVuSans-52"/>
       <use x="159.033203" xlink:href="#DejaVuSans-48"/>
      </g>
     </g>
    </g>
    <g id="ytick_4">
     <g id="line2d_12">
      <g>
       <use style="stroke:#000000;stroke-width:0.8;" x="57.6" xlink:href="#m442c74096c" y="132.266959"/>
      </g>
     </g>
     <g id="text_13">
      <!-- 0.45 -->
      <g transform="translate(28.334375 136.066178)scale(0.1 -0.1)">
       <use xlink:href="#DejaVuSans-48"/>
       <use x="63.623047" xlink:href="#DejaVuSans-46"/>
       <use x="95.410156" xlink:href="#DejaVuSans-52"/>
       <use x="159.033203" xlink:href="#DejaVuSans-53"/>
      </g>
     </g>
    </g>
    <g id="ytick_5">
     <g id="line2d_13">
      <g>
       <use style="stroke:#000000;stroke-width:0.8;" x="57.6" xlink:href="#m442c74096c" y="85.049306"/>
      </g>
     </g>
     <g id="text_14">
      <!-- 0.50 -->
      <g transform="translate(28.334375 88.848525)scale(0.1 -0.1)">
       <use xlink:href="#DejaVuSans-48"/>
       <use x="63.623047" xlink:href="#DejaVuSans-46"/>
       <use x="95.410156" xlink:href="#DejaVuSans-53"/>
       <use x="159.033203" xlink:href="#DejaVuSans-48"/>
      </g>
     </g>
    </g>
    <g id="text_15">
     <!-- Speed (m/s) -->
     <defs>
      <path d="M 53.515625 70.515625 
L 53.515625 60.890625 
Q 47.90625 63.578125 42.921875 64.890625 
Q 37.9375 66.21875 33.296875 66.21875 
Q 25.25 66.21875 20.875 63.09375 
Q 16.5 59.96875 16.5 54.203125 
Q 16.5 49.359375 19.40625 46.890625 
Q 22.3125 44.4375 30.421875 42.921875 
L 36.375 41.703125 
Q 47.40625 39.59375 52.65625 34.296875 
Q 57.90625 29 57.90625 20.125 
Q 57.90625 9.515625 50.796875 4.046875 
Q 43.703125 -1.421875 29.984375 -1.421875 
Q 24.8125 -1.421875 18.96875 -0.25 
Q 13.140625 0.921875 6.890625 3.21875 
L 6.890625 13.375 
Q 12.890625 10.015625 18.65625 8.296875 
Q 24.421875 6.59375 29.984375 6.59375 
Q 38.421875 6.59375 43.015625 9.90625 
Q 47.609375 13.234375 47.609375 19.390625 
Q 47.609375 24.75 44.3125 27.78125 
Q 41.015625 30.8125 33.5 32.328125 
L 27.484375 33.5 
Q 16.453125 35.6875 11.515625 40.375 
Q 6.59375 45.0625 6.59375 53.421875 
Q 6.59375 63.09375 13.40625 68.65625 
Q 20.21875 74.21875 32.171875 74.21875 
Q 37.3125 74.21875 42.625 73.28125 
Q 47.953125 72.359375 53.515625 70.515625 
z
" id="DejaVuSans-83"/>
      <path d="M 18.109375 8.203125 
L 18.109375 -20.796875 
L 9.078125 -20.796875 
L 9.078125 54.6875 
L 18.109375 54.6875 
L 18.109375 46.390625 
Q 20.953125 51.265625 25.265625 53.625 
Q 29.59375 56 35.59375 56 
Q 45.5625 56 51.78125 48.09375 
Q 58.015625 40.1875 58.015625 27.296875 
Q 58.015625 14.40625 51.78125 6.484375 
Q 45.5625 -1.421875 35.59375 -1.421875 
Q 29.59375 -1.421875 25.265625 0.953125 
Q 20.953125 3.328125 18.109375 8.203125 
z
M 48.6875 27.296875 
Q 48.6875 37.203125 44.609375 42.84375 
Q 40.53125 48.484375 33.40625 48.484375 
Q 26.265625 48.484375 22.1875 42.84375 
Q 18.109375 37.203125 18.109375 27.296875 
Q 18.109375 17.390625 22.1875 11.75 
Q 26.265625 6.109375 33.40625 6.109375 
Q 40.53125 6.109375 44.609375 11.75 
Q 48.6875 17.390625 48.6875 27.296875 
z
" id="DejaVuSans-112"/>
      <path d="M 45.40625 46.390625 
L 45.40625 75.984375 
L 54.390625 75.984375 
L 54.390625 0 
L 45.40625 0 
L 45.40625 8.203125 
Q 42.578125 3.328125 38.25 0.953125 
Q 33.9375 -1.421875 27.875 -1.421875 
Q 17.96875 -1.421875 11.734375 6.484375 
Q 5.515625 14.40625 5.515625 27.296875 
Q 5.515625 40.1875 11.734375 48.09375 
Q 17.96875 56 27.875 56 
Q 33.9375 56 38.25 53.625 
Q 42.578125 51.265625 45.40625 46.390625 
z
M 14.796875 27.296875 
Q 14.796875 17.390625 18.875 11.75 
Q 22.953125 6.109375 30.078125 6.109375 
Q 37.203125 6.109375 41.296875 11.75 
Q 45.40625 17.390625 45.40625 27.296875 
Q 45.40625 37.203125 41.296875 42.84375 
Q 37.203125 48.484375 30.078125 48.484375 
Q 22.953125 48.484375 18.875 42.84375 
Q 14.796875 37.203125 14.796875 27.296875 
z
" id="DejaVuSans-100"/>
      <path d="M 25.390625 72.90625 
L 33.6875 72.90625 
L 8.296875 -9.28125 
L 0 -9.28125 
z
" id="DejaVuSans-47"/>
     </defs>
     <g transform="translate(22.254687 204.853781)rotate(-90)scale(0.1 -0.1)">
      <use xlink:href="#DejaVuSans-83"/>
      <use x="63.476562" xlink:href="#DejaVuSans-112"/>
      <use x="126.953125" xlink:href="#DejaVuSans-101"/>
      <use x="188.476562" xlink:href="#DejaVuSans-101"/>
      <use x="250" xlink:href="#DejaVuSans-100"/>
      <use x="313.476562" xlink:href="#DejaVuSans-32"/>
      <use x="345.263672" xlink:href="#DejaVuSans-40"/>
      <use x="384.277344" xlink:href="#DejaVuSans-109"/>
      <use x="481.689453" xlink:href="#DejaVuSans-47"/>
      <use x="515.380859" xlink:href="#DejaVuSans-115"/>
      <use x="567.480469" xlink:href="#DejaVuSans-41"/>
     </g>
    </g>
   </g>
   <g id="line2d_14">
    <defs>
     <path d="M 0 -3 
L -0.673542 -0.927051 
L -2.85317 -0.927051 
L -1.089814 0.354102 
L -1.763356 2.427051 
L -0 1.145898 
L 1.763356 2.427051 
L 1.089814 0.354102 
L 2.85317 -0.927051 
L 0.673542 -0.927051 
z
" id="md07423fd4c" style="stroke:#000000;stroke-linejoin:bevel;"/>
    </defs>
    <g clip-path="url(#p96f14185d0)">
     <use style="stroke:#000000;stroke-linejoin:bevel;" x="73.832727" xlink:href="#md07423fd4c" y="188.050801"/>
     <use style="stroke:#000000;stroke-linejoin:bevel;" x="77.76052" xlink:href="#md07423fd4c" y="166.882717"/>
     <use style="stroke:#000000;stroke-linejoin:bevel;" x="81.360183" xlink:href="#md07423fd4c" y="152.059883"/>
     <use style="stroke:#000000;stroke-linejoin:bevel;" x="85.03505" xlink:href="#md07423fd4c" y="169.12459"/>
     <use style="stroke:#000000;stroke-linejoin:bevel;" x="88.876809" xlink:href="#md07423fd4c" y="169.275705"/>
     <use style="stroke:#000000;stroke-linejoin:bevel;" x="92.407233" xlink:href="#md07423fd4c" y="149.057871"/>
     <use style="stroke:#000000;stroke-linejoin:bevel;" x="95.604113" xlink:href="#md07423fd4c" y="190.023444"/>
     <use style="stroke:#000000;stroke-linejoin:bevel;" x="100.059048" xlink:href="#md07423fd4c" y="157.24158"/>
     <use style="stroke:#000000;stroke-linejoin:bevel;" x="103.169543" xlink:href="#md07423fd4c" y="109.9209"/>
     <use style="stroke:#000000;stroke-linejoin:bevel;" x="106.676881" xlink:href="#md07423fd4c" y="218.16028"/>
     <use style="stroke:#000000;stroke-linejoin:bevel;" x="111.390969" xlink:href="#md07423fd4c" y="156.259504"/>
     <use style="stroke:#000000;stroke-linejoin:bevel;" x="114.045863" xlink:href="#md07423fd4c" y="171.788033"/>
     <use style="stroke:#000000;stroke-linejoin:bevel;" x="118.974597" xlink:href="#md07423fd4c" y="162.150213"/>
     <use style="stroke:#000000;stroke-linejoin:bevel;" x="120.966261" xlink:href="#md07423fd4c" y="53.568"/>
     <use style="stroke:#000000;stroke-linejoin:bevel;" x="124.466582" xlink:href="#md07423fd4c" y="158.353923"/>
     <use style="stroke:#000000;stroke-linejoin:bevel;" x="128.129807" xlink:href="#md07423fd4c" y="162.873196"/>
     <use style="stroke:#000000;stroke-linejoin:bevel;" x="131.786672" xlink:href="#md07423fd4c" y="178.174852"/>
     <use style="stroke:#000000;stroke-linejoin:bevel;" x="135.555794" xlink:href="#md07423fd4c" y="182.141085"/>
     <use style="stroke:#000000;stroke-linejoin:bevel;" x="139.405161" xlink:href="#md07423fd4c" y="212.083454"/>
     <use style="stroke:#000000;stroke-linejoin:bevel;" x="143.514777" xlink:href="#md07423fd4c" y="189.826772"/>
     <use style="stroke:#000000;stroke-linejoin:bevel;" x="147.109157" xlink:href="#md07423fd4c" y="153.568871"/>
     <use style="stroke:#000000;stroke-linejoin:bevel;" x="150.639077" xlink:href="#md07423fd4c" y="199.278634"/>
     <use style="stroke:#000000;stroke-linejoin:bevel;" x="154.371146" xlink:href="#md07423fd4c" y="193.146811"/>
     <use style="stroke:#000000;stroke-linejoin:bevel;" x="157.901066" xlink:href="#md07423fd4c" y="181.779309"/>
     <use style="stroke:#000000;stroke-linejoin:bevel;" x="161.475494" xlink:href="#md07423fd4c" y="196.520749"/>
     <use style="stroke:#000000;stroke-linejoin:bevel;" x="165.118985" xlink:href="#md07423fd4c" y="186.633837"/>
     <use style="stroke:#000000;stroke-linejoin:bevel;" x="168.798434" xlink:href="#md07423fd4c" y="185.116598"/>
     <use style="stroke:#000000;stroke-linejoin:bevel;" x="172.815965" xlink:href="#md07423fd4c" y="166.497244"/>
     <use style="stroke:#000000;stroke-linejoin:bevel;" x="176.120278" xlink:href="#md07423fd4c" y="156.807921"/>
     <use style="stroke:#000000;stroke-linejoin:bevel;" x="179.828886" xlink:href="#md07423fd4c" y="187.63176"/>
     <use style="stroke:#000000;stroke-linejoin:bevel;" x="183.599762" xlink:href="#md07423fd4c" y="184.963792"/>
     <use style="stroke:#000000;stroke-linejoin:bevel;" x="187.084517" xlink:href="#md07423fd4c" y="205.456195"/>
     <use style="stroke:#000000;stroke-linejoin:bevel;" x="190.867451" xlink:href="#md07423fd4c" y="216.547091"/>
     <use style="stroke:#000000;stroke-linejoin:bevel;" x="194.514889" xlink:href="#md07423fd4c" y="196.929451"/>
     <use style="stroke:#000000;stroke-linejoin:bevel;" x="197.873795" xlink:href="#md07423fd4c" y="176.912368"/>
     <use style="stroke:#000000;stroke-linejoin:bevel;" x="201.193674" xlink:href="#md07423fd4c" y="181.009567"/>
     <use style="stroke:#000000;stroke-linejoin:bevel;" x="204.847032" xlink:href="#md07423fd4c" y="203.686131"/>
     <use style="stroke:#000000;stroke-linejoin:bevel;" x="208.519026" xlink:href="#md07423fd4c" y="194.672138"/>
     <use style="stroke:#000000;stroke-linejoin:bevel;" x="212.154624" xlink:href="#md07423fd4c" y="202.396206"/>
     <use style="stroke:#000000;stroke-linejoin:bevel;" x="215.833634" xlink:href="#md07423fd4c" y="229.307033"/>
     <use style="stroke:#000000;stroke-linejoin:bevel;" x="220.007491" xlink:href="#md07423fd4c" y="225.998836"/>
     <use style="stroke:#000000;stroke-linejoin:bevel;" x="223.654052" xlink:href="#md07423fd4c" y="225.623451"/>
     <use style="stroke:#000000;stroke-linejoin:bevel;" x="227.30434" xlink:href="#md07423fd4c" y="230.3523"/>
     <use style="stroke:#000000;stroke-linejoin:bevel;" x="230.979404" xlink:href="#md07423fd4c" y="199.319494"/>
     <use style="stroke:#000000;stroke-linejoin:bevel;" x="234.212679" xlink:href="#md07423fd4c" y="194.232085"/>
     <use style="stroke:#000000;stroke-linejoin:bevel;" x="237.793465" xlink:href="#md07423fd4c" y="190.637293"/>
     <use style="stroke:#000000;stroke-linejoin:bevel;" x="241.402973" xlink:href="#md07423fd4c" y="210.934404"/>
     <use style="stroke:#000000;stroke-linejoin:bevel;" x="245.068389" xlink:href="#md07423fd4c" y="229.915337"/>
     <use style="stroke:#000000;stroke-linejoin:bevel;" x="248.702453" xlink:href="#md07423fd4c" y="217.365565"/>
     <use style="stroke:#000000;stroke-linejoin:bevel;" x="252.360415" xlink:href="#md07423fd4c" y="257.721553"/>
     <use style="stroke:#000000;stroke-linejoin:bevel;" x="256.959178" xlink:href="#md07423fd4c" y="249.836451"/>
     <use style="stroke:#000000;stroke-linejoin:bevel;" x="260.193549" xlink:href="#md07423fd4c" y="231.000156"/>
     <use style="stroke:#000000;stroke-linejoin:bevel;" x="263.820159" xlink:href="#md07423fd4c" y="236.55838"/>
     <use style="stroke:#000000;stroke-linejoin:bevel;" x="267.502458" xlink:href="#md07423fd4c" y="242.005855"/>
     <use style="stroke:#000000;stroke-linejoin:bevel;" x="271.420231" xlink:href="#md07423fd4c" y="244.783173"/>
     <use style="stroke:#000000;stroke-linejoin:bevel;" x="274.744275" xlink:href="#md07423fd4c" y="226.250512"/>
     <use style="stroke:#000000;stroke-linejoin:bevel;" x="278.413638" xlink:href="#md07423fd4c" y="234.37298"/>
     <use style="stroke:#000000;stroke-linejoin:bevel;" x="282.294577" xlink:href="#md07423fd4c" y="227.726377"/>
     <use style="stroke:#000000;stroke-linejoin:bevel;" x="285.705445" xlink:href="#md07423fd4c" y="225.691719"/>
     <use style="stroke:#000000;stroke-linejoin:bevel;" x="289.362311" xlink:href="#md07423fd4c" y="246.561907"/>
     <use style="stroke:#000000;stroke-linejoin:bevel;" x="293.032551" xlink:href="#md07423fd4c" y="248.878966"/>
     <use style="stroke:#000000;stroke-linejoin:bevel;" x="296.698406" xlink:href="#md07423fd4c" y="255.302608"/>
     <use style="stroke:#000000;stroke-linejoin:bevel;" x="300.403726" xlink:href="#md07423fd4c" y="254.791429"/>
     <use style="stroke:#000000;stroke-linejoin:bevel;" x="303.988458" xlink:href="#md07423fd4c" y="248.286655"/>
     <use style="stroke:#000000;stroke-linejoin:bevel;" x="307.652121" xlink:href="#md07423fd4c" y="274.058682"/>
     <use style="stroke:#000000;stroke-linejoin:bevel;" x="311.289473" xlink:href="#md07423fd4c" y="266.598927"/>
     <use style="stroke:#000000;stroke-linejoin:bevel;" x="314.472979" xlink:href="#md07423fd4c" y="246.24924"/>
     <use style="stroke:#000000;stroke-linejoin:bevel;" x="318.160759" xlink:href="#md07423fd4c" y="248.930747"/>
     <use style="stroke:#000000;stroke-linejoin:bevel;" x="321.850732" xlink:href="#md07423fd4c" y="255.555562"/>
     <use style="stroke:#000000;stroke-linejoin:bevel;" x="325.490277" xlink:href="#md07423fd4c" y="250.062933"/>
     <use style="stroke:#000000;stroke-linejoin:bevel;" x="329.083779" xlink:href="#md07423fd4c" y="279.815426"/>
     <use style="stroke:#000000;stroke-linejoin:bevel;" x="333.771338" xlink:href="#md07423fd4c" y="278.049985"/>
     <use style="stroke:#000000;stroke-linejoin:bevel;" x="336.987731" xlink:href="#md07423fd4c" y="239.067053"/>
     <use style="stroke:#000000;stroke-linejoin:bevel;" x="340.550539" xlink:href="#md07423fd4c" y="272.51002"/>
     <use style="stroke:#000000;stroke-linejoin:bevel;" x="344.201046" xlink:href="#md07423fd4c" y="265.994689"/>
     <use style="stroke:#000000;stroke-linejoin:bevel;" x="347.678347" xlink:href="#md07423fd4c" y="245.177364"/>
     <use style="stroke:#000000;stroke-linejoin:bevel;" x="351.087679" xlink:href="#md07423fd4c" y="264.664592"/>
     <use style="stroke:#000000;stroke-linejoin:bevel;" x="354.668027" xlink:href="#md07423fd4c" y="277.819225"/>
     <use style="stroke:#000000;stroke-linejoin:bevel;" x="358.32292" xlink:href="#md07423fd4c" y="279.848564"/>
     <use style="stroke:#000000;stroke-linejoin:bevel;" x="361.96685" xlink:href="#md07423fd4c" y="275.347984"/>
     <use style="stroke:#000000;stroke-linejoin:bevel;" x="365.591047" xlink:href="#md07423fd4c" y="288.91773"/>
     <use style="stroke:#000000;stroke-linejoin:bevel;" x="369.809412" xlink:href="#md07423fd4c" y="282.173145"/>
     <use style="stroke:#000000;stroke-linejoin:bevel;" x="373.455534" xlink:href="#md07423fd4c" y="274.452819"/>
     <use style="stroke:#000000;stroke-linejoin:bevel;" x="377.106042" xlink:href="#md07423fd4c" y="289.190108"/>
     <use style="stroke:#000000;stroke-linejoin:bevel;" x="380.796014" xlink:href="#md07423fd4c" y="295.488"/>
     <use style="stroke:#000000;stroke-linejoin:bevel;" x="384.542992" xlink:href="#md07423fd4c" y="261.397809"/>
     <use style="stroke:#000000;stroke-linejoin:bevel;" x="387.555483" xlink:href="#md07423fd4c" y="257.916947"/>
     <use style="stroke:#000000;stroke-linejoin:bevel;" x="391.32877" xlink:href="#md07423fd4c" y="284.763874"/>
     <use style="stroke:#000000;stroke-linejoin:bevel;" x="394.86746" xlink:href="#md07423fd4c" y="284.991544"/>
     <use style="stroke:#000000;stroke-linejoin:bevel;" x="398.487273" xlink:href="#md07423fd4c" y="291.968226"/>
    </g>
   </g>
   <g id="line2d_15">
    <path clip-path="url(#p96f14185d0)" d="M 73.832727 147.968937 
L 77.76052 149.67799 
L 81.360183 151.244268 
L 85.03505 152.843267 
L 88.876809 154.514885 
L 92.407233 156.051036 
L 95.604113 157.442055 
L 100.059048 159.380477 
L 103.169543 160.733909 
L 106.676881 162.260014 
L 111.390969 164.311198 
L 114.045863 165.46639 
L 118.974597 167.610969 
L 120.966261 168.477578 
L 124.466582 170.00063 
L 128.129807 171.594564 
L 131.786672 173.185732 
L 135.555794 174.825744 
L 139.405161 176.500672 
L 143.514777 178.288839 
L 147.109157 179.852818 
L 150.639077 181.388749 
L 154.371146 183.012639 
L 157.901066 184.54857 
L 161.475494 186.103867 
L 165.118985 187.689215 
L 168.798434 189.290209 
L 172.815965 191.038309 
L 176.120278 192.476074 
L 179.828886 194.089755 
L 183.599762 195.730531 
L 187.084517 197.24681 
L 190.867451 198.892832 
L 194.514889 200.479897 
L 197.873795 201.941417 
L 201.193674 203.385955 
L 204.847032 204.975596 
L 208.519026 206.573346 
L 212.154624 208.15526 
L 215.833634 209.756063 
L 220.007491 211.572182 
L 223.654052 213.158866 
L 227.30434 214.747172 
L 230.979404 216.346257 
L 234.212679 217.753113 
L 237.793465 219.311177 
L 241.402973 220.881738 
L 245.068389 222.476626 
L 248.702453 224.057872 
L 252.360415 225.649517 
L 256.959178 227.65052 
L 260.193549 229.057853 
L 263.820159 230.635855 
L 267.502458 232.238089 
L 271.420231 233.942782 
L 274.744275 235.389133 
L 278.413638 236.985738 
L 282.294577 238.674404 
L 285.705445 240.158533 
L 289.362311 241.749701 
L 293.032551 243.346688 
L 296.698406 244.941766 
L 300.403726 246.554017 
L 303.988458 248.113798 
L 307.652121 249.707923 
L 311.289473 251.2906 
L 314.472979 252.6758 
L 318.160759 254.280419 
L 321.850732 255.885992 
L 325.490277 257.469623 
L 329.083779 259.03322 
L 333.771338 261.07286 
L 336.987731 262.47237 
L 340.550539 264.022611 
L 344.201046 265.611012 
L 347.678347 267.124047 
L 351.087679 268.607509 
L 354.668027 270.165382 
L 358.32292 271.755691 
L 361.96685 273.34123 
L 365.591047 274.918183 
L 369.809412 276.753668 
L 373.455534 278.340161 
L 377.106042 279.928562 
L 380.796014 281.534135 
L 384.542992 283.164512 
L 387.555483 284.4753 
L 391.32877 286.117125 
L 394.86746 287.656872 
L 398.487273 289.231917 
" style="fill:none;stroke:#d62728;stroke-linecap:square;stroke-width:1.5;"/>
   </g>
   <g id="line2d_16">
    <path clip-path="url(#p96f14185d0)" d="M 73.832727 147.970916 
L 77.76052 149.679926 
L 81.360183 151.246165 
L 85.03505 152.845126 
L 88.876809 154.516702 
L 92.407233 156.052815 
L 95.604113 157.4438 
L 100.059048 159.382173 
L 103.169543 160.735572 
L 106.676881 162.261639 
L 111.390969 164.312772 
L 114.045863 165.467935 
L 118.974597 167.612462 
L 120.966261 168.479049 
L 124.466582 170.002064 
L 128.129807 171.595958 
L 131.786672 173.187086 
L 135.555794 174.827058 
L 139.405161 176.501944 
L 143.514777 178.290068 
L 147.109157 179.854007 
L 150.639077 181.389901 
L 154.371146 183.01375 
L 157.901066 184.549643 
L 161.475494 186.104902 
L 165.118985 187.690211 
L 168.798434 189.291165 
L 172.815965 191.039221 
L 176.120278 192.476951 
L 179.828886 194.090592 
L 183.599762 195.731327 
L 187.084517 197.247568 
L 190.867451 198.89355 
L 194.514889 200.480576 
L 197.873795 201.942059 
L 201.193674 203.386562 
L 204.847032 204.976164 
L 208.519026 206.573874 
L 212.154624 208.155749 
L 215.833634 209.756512 
L 220.007491 211.572587 
L 223.654052 213.159231 
L 227.30434 214.747497 
L 230.979404 216.346543 
L 234.212679 217.753364 
L 237.793465 219.311389 
L 241.402973 220.881912 
L 245.068389 222.47676 
L 248.702453 224.057967 
L 252.360415 225.649572 
L 256.959178 227.650526 
L 260.193549 229.057824 
L 263.820159 230.635787 
L 267.502458 232.237982 
L 271.420231 233.942632 
L 274.744275 235.388947 
L 278.413638 236.985513 
L 282.294577 238.674137 
L 285.705445 240.15823 
L 289.362311 241.749358 
L 293.032551 243.346305 
L 296.698406 244.941344 
L 300.403726 246.553555 
L 303.988458 248.113298 
L 307.652121 249.707383 
L 311.289473 251.290021 
L 314.472979 252.675187 
L 318.160759 254.279766 
L 321.850732 255.885299 
L 325.490277 257.468891 
L 329.083779 259.032449 
L 333.771338 261.072039 
L 336.987731 262.471514 
L 340.550539 264.021717 
L 344.201046 265.610078 
L 347.678347 267.123076 
L 351.087679 268.606501 
L 354.668027 270.164336 
L 358.32292 271.754605 
L 361.96685 273.340105 
L 365.591047 274.917019 
L 369.809412 276.752459 
L 373.455534 278.338912 
L 377.106042 279.927274 
L 380.796014 281.532807 
L 384.542992 283.163143 
L 387.555483 284.473899 
L 391.32877 286.115683 
L 394.86746 287.655392 
L 398.487273 289.230398 
" style="fill:none;stroke:#1f77b4;stroke-linecap:square;stroke-width:1.5;"/>
   </g>
   <g id="line2d_17">
    <path clip-path="url(#p96f14185d0)" d="M 73.832727 148.403556 
L 77.76052 150.105442 
L 81.360183 151.665152 
L 85.03505 153.257447 
L 88.876809 154.922055 
L 92.407233 156.451764 
L 95.604113 157.836951 
L 100.059048 159.767244 
L 103.169543 161.115001 
L 106.676881 162.634707 
L 111.390969 164.67729 
L 114.045863 165.827638 
L 118.974597 167.963225 
L 120.966261 168.8262 
L 124.466582 170.342865 
L 128.129807 171.930116 
L 131.786672 173.514611 
L 135.555794 175.147746 
L 139.405161 176.815651 
L 143.514777 178.59632 
L 147.109157 180.153741 
L 150.639077 181.683232 
L 154.371146 183.300312 
L 157.901066 184.829803 
L 161.475494 186.378578 
L 165.118985 187.957279 
L 168.798434 189.551559 
L 172.815965 191.292329 
L 176.120278 192.724065 
L 179.828886 194.33098 
L 183.599762 195.964875 
L 187.084517 197.474796 
L 190.867451 199.113916 
L 194.514889 200.694327 
L 197.873795 202.149718 
L 201.193674 203.588199 
L 204.847032 205.171175 
L 208.519026 206.762225 
L 212.154624 208.337506 
L 215.833634 209.931596 
L 220.007491 211.7401 
L 223.654052 213.32013 
L 227.30434 214.901776 
L 230.979404 216.494156 
L 234.212679 217.895113 
L 237.793465 219.446643 
L 241.402973 221.010619 
L 245.068389 222.598819 
L 248.702453 224.173435 
L 252.360415 225.758405 
L 256.959178 227.751018 
L 260.193549 229.15245 
L 263.820159 230.723835 
L 267.502458 232.319351 
L 271.420231 234.016895 
L 274.744275 235.457182 
L 278.413638 237.047092 
L 282.294577 238.728677 
L 285.705445 240.206583 
L 289.362311 241.791078 
L 293.032551 243.381369 
L 296.698406 244.969759 
L 300.403726 246.575249 
L 303.988458 248.12849 
L 307.652121 249.71593 
L 311.289473 251.291971 
L 314.472979 252.671362 
L 318.160759 254.269253 
L 321.850732 255.868093 
L 325.490277 257.445084 
L 329.083779 259.002124 
L 333.771338 261.033212 
L 336.987731 262.426853 
L 340.550539 263.970594 
L 344.201046 265.552335 
L 347.678347 267.059025 
L 351.087679 268.536266 
L 354.668027 270.087607 
L 358.32292 271.671248 
L 361.96685 273.250138 
L 365.591047 274.820478 
L 369.809412 276.648267 
L 373.455534 278.228108 
L 377.106042 279.809848 
L 380.796014 281.408689 
L 384.542992 283.032229 
L 387.555483 284.337521 
L 391.32877 285.972461 
L 394.86746 287.505752 
L 398.487273 289.074192 
" style="fill:none;stroke:#ff7f0e;stroke-linecap:square;stroke-width:1.5;"/>
   </g>
   <g id="line2d_18">
    <path clip-path="url(#p96f14185d0)" d="M 73.832727 147.4874 
L 77.76052 149.207603 
L 81.360183 150.7841 
L 85.03505 152.393533 
L 88.876809 154.076057 
L 92.407233 155.62223 
L 95.604113 157.022326 
L 100.059048 158.973394 
L 103.169543 160.335657 
L 106.676881 161.871719 
L 111.390969 163.936286 
L 114.045863 165.099015 
L 118.974597 167.257587 
L 120.966261 168.12985 
L 124.466582 169.662839 
L 128.129807 171.267173 
L 131.786672 172.868722 
L 135.555794 174.519434 
L 139.405161 176.205291 
L 143.514777 178.005125 
L 147.109157 179.579308 
L 150.639077 181.12526 
L 154.371146 182.759745 
L 157.901066 184.305697 
L 161.475494 185.871142 
L 165.118985 187.466834 
L 168.798434 189.078273 
L 172.815965 190.837778 
L 176.120278 192.284924 
L 179.828886 193.909135 
L 183.599762 195.560615 
L 187.084517 197.086787 
L 190.867451 198.743549 
L 194.514889 200.340969 
L 197.873795 201.812024 
L 201.193674 203.265988 
L 204.847032 204.866001 
L 208.519026 206.474175 
L 212.154624 208.06641 
L 215.833634 209.677657 
L 220.007491 211.505626 
L 223.654052 213.102662 
L 227.30434 214.701331 
L 230.979404 216.31085 
L 234.212679 217.726884 
L 237.793465 219.295114 
L 241.402973 220.875922 
L 245.068389 222.481216 
L 248.702453 224.072779 
L 252.360415 225.674808 
L 256.959178 227.688867 
L 260.193549 229.105382 
L 263.820159 230.69368 
L 267.502458 232.306368 
L 271.420231 234.022183 
L 274.744275 235.477971 
L 278.413638 237.084994 
L 282.294577 238.784677 
L 285.705445 240.27849 
L 289.362311 241.880039 
L 293.032551 243.487445 
L 296.698406 245.092931 
L 300.403726 246.715701 
L 303.988458 248.285659 
L 307.652121 249.890185 
L 311.289473 251.483188 
L 314.472979 252.877426 
L 318.160759 254.492514 
L 321.850732 256.108562 
L 325.490277 257.702526 
L 329.083779 259.276325 
L 333.771338 261.329273 
L 336.987731 262.737914 
L 340.550539 264.298269 
L 344.201046 265.897034 
L 347.678347 267.419941 
L 351.087679 268.913081 
L 354.668027 270.481119 
L 358.32292 272.081804 
L 361.96685 273.677688 
L 365.591047 275.264929 
L 369.809412 277.112391 
L 373.455534 278.709235 
L 377.106042 280.307999 
L 380.796014 281.924048 
L 384.542992 283.565062 
L 387.555483 284.884402 
L 391.32877 286.536939 
L 394.86746 288.086732 
L 398.487273 289.672054 
" style="fill:none;stroke:#2ca02c;stroke-linecap:square;stroke-width:1.5;"/>
   </g>
   <g id="patch_3">
    <path d="M 57.6 307.584 
L 57.6 41.472 
" style="fill:none;stroke:#000000;stroke-linecap:square;stroke-linejoin:miter;stroke-width:0.8;"/>
   </g>
   <g id="patch_4">
    <path d="M 414.72 307.584 
L 414.72 41.472 
" style="fill:none;stroke:#000000;stroke-linecap:square;stroke-linejoin:miter;stroke-width:0.8;"/>
   </g>
   <g id="patch_5">
    <path d="M 57.6 307.584 
L 414.72 307.584 
" style="fill:none;stroke:#000000;stroke-linecap:square;stroke-linejoin:miter;stroke-width:0.8;"/>
   </g>
   <g id="patch_6">
    <path d="M 57.6 41.472 
L 414.72 41.472 
" style="fill:none;stroke:#000000;stroke-linecap:square;stroke-linejoin:miter;stroke-width:0.8;"/>
   </g>
   <g id="text_16">
    <!-- Curve Fit -->
    <defs>
     <path d="M 64.40625 67.28125 
L 64.40625 56.890625 
Q 59.421875 61.53125 53.78125 63.8125 
Q 48.140625 66.109375 41.796875 66.109375 
Q 29.296875 66.109375 22.65625 58.46875 
Q 16.015625 50.828125 16.015625 36.375 
Q 16.015625 21.96875 22.65625 14.328125 
Q 29.296875 6.6875 41.796875 6.6875 
Q 48.140625 6.6875 53.78125 8.984375 
Q 59.421875 11.28125 64.40625 15.921875 
L 64.40625 5.609375 
Q 59.234375 2.09375 53.4375 0.328125 
Q 47.65625 -1.421875 41.21875 -1.421875 
Q 24.65625 -1.421875 15.125 8.703125 
Q 5.609375 18.84375 5.609375 36.375 
Q 5.609375 53.953125 15.125 64.078125 
Q 24.65625 74.21875 41.21875 74.21875 
Q 47.75 74.21875 53.53125 72.484375 
Q 59.328125 70.75 64.40625 67.28125 
z
" id="DejaVuSans-67"/>
     <path d="M 8.5 21.578125 
L 8.5 54.6875 
L 17.484375 54.6875 
L 17.484375 21.921875 
Q 17.484375 14.15625 20.5 10.265625 
Q 23.53125 6.390625 29.59375 6.390625 
Q 36.859375 6.390625 41.078125 11.03125 
Q 45.3125 15.671875 45.3125 23.6875 
L 45.3125 54.6875 
L 54.296875 54.6875 
L 54.296875 0 
L 45.3125 0 
L 45.3125 8.40625 
Q 42.046875 3.421875 37.71875 1 
Q 33.40625 -1.421875 27.6875 -1.421875 
Q 18.265625 -1.421875 13.375 4.4375 
Q 8.5 10.296875 8.5 21.578125 
z
M 31.109375 56 
z
" id="DejaVuSans-117"/>
     <path d="M 41.109375 46.296875 
Q 39.59375 47.171875 37.8125 47.578125 
Q 36.03125 48 33.890625 48 
Q 26.265625 48 22.1875 43.046875 
Q 18.109375 38.09375 18.109375 28.8125 
L 18.109375 0 
L 9.078125 0 
L 9.078125 54.6875 
L 18.109375 54.6875 
L 18.109375 46.1875 
Q 20.953125 51.171875 25.484375 53.578125 
Q 30.03125 56 36.53125 56 
Q 37.453125 56 38.578125 55.875 
Q 39.703125 55.765625 41.0625 55.515625 
z
" id="DejaVuSans-114"/>
     <path d="M 2.984375 54.6875 
L 12.5 54.6875 
L 29.59375 8.796875 
L 46.6875 54.6875 
L 56.203125 54.6875 
L 35.6875 0 
L 23.484375 0 
z
" id="DejaVuSans-118"/>
     <path d="M 9.8125 72.90625 
L 51.703125 72.90625 
L 51.703125 64.59375 
L 19.671875 64.59375 
L 19.671875 43.109375 
L 48.578125 43.109375 
L 48.578125 34.8125 
L 19.671875 34.8125 
L 19.671875 0 
L 9.8125 0 
z
" id="DejaVuSans-70"/>
     <path d="M 18.3125 70.21875 
L 18.3125 54.6875 
L 36.8125 54.6875 
L 36.8125 47.703125 
L 18.3125 47.703125 
L 18.3125 18.015625 
Q 18.3125 11.328125 20.140625 9.421875 
Q 21.96875 7.515625 27.59375 7.515625 
L 36.8125 7.515625 
L 36.8125 0 
L 27.59375 0 
Q 17.1875 0 13.234375 3.875 
Q 9.28125 7.765625 9.28125 18.015625 
L 9.28125 47.703125 
L 2.6875 47.703125 
L 2.6875 54.6875 
L 9.28125 54.6875 
L 9.28125 70.21875 
z
" id="DejaVuSans-116"/>
    </defs>
    <g transform="translate(209.51625 35.472)scale(0.12 -0.12)">
     <use xlink:href="#DejaVuSans-67"/>
     <use x="69.824219" xlink:href="#DejaVuSans-117"/>
     <use x="133.203125" xlink:href="#DejaVuSans-114"/>
     <use x="174.316406" xlink:href="#DejaVuSans-118"/>
     <use x="233.496094" xlink:href="#DejaVuSans-101"/>
     <use x="295.019531" xlink:href="#DejaVuSans-32"/>
     <use x="326.806641" xlink:href="#DejaVuSans-70"/>
     <use x="377.076172" xlink:href="#DejaVuSans-105"/>
     <use x="404.859375" xlink:href="#DejaVuSans-116"/>
    </g>
   </g>
   <g id="legend_1">
    <g id="patch_7">
     <path d="M 271.97 122.862625 
L 407.72 122.862625 
Q 409.72 122.862625 409.72 120.862625 
L 409.72 48.472 
Q 409.72 46.472 407.72 46.472 
L 271.97 46.472 
Q 269.97 46.472 269.97 48.472 
L 269.97 120.862625 
Q 269.97 122.862625 271.97 122.862625 
z
" style="fill:#ffffff;opacity:0.8;stroke:#cccccc;stroke-linejoin:miter;"/>
    </g>
    <g id="line2d_19"/>
    <g id="line2d_20">
     <g>
      <use style="stroke:#000000;stroke-linejoin:bevel;" x="283.97" xlink:href="#md07423fd4c" y="54.570438"/>
     </g>
    </g>
    <g id="text_17">
     <!-- Data Points -->
     <defs>
      <path d="M 19.671875 64.796875 
L 19.671875 8.109375 
L 31.59375 8.109375 
Q 46.6875 8.109375 53.6875 14.9375 
Q 60.6875 21.78125 60.6875 36.53125 
Q 60.6875 51.171875 53.6875 57.984375 
Q 46.6875 64.796875 31.59375 64.796875 
z
M 9.8125 72.90625 
L 30.078125 72.90625 
Q 51.265625 72.90625 61.171875 64.09375 
Q 71.09375 55.28125 71.09375 36.53125 
Q 71.09375 17.671875 61.125 8.828125 
Q 51.171875 0 30.078125 0 
L 9.8125 0 
z
" id="DejaVuSans-68"/>
      <path d="M 34.28125 27.484375 
Q 23.390625 27.484375 19.1875 25 
Q 14.984375 22.515625 14.984375 16.5 
Q 14.984375 11.71875 18.140625 8.90625 
Q 21.296875 6.109375 26.703125 6.109375 
Q 34.1875 6.109375 38.703125 11.40625 
Q 43.21875 16.703125 43.21875 25.484375 
L 43.21875 27.484375 
z
M 52.203125 31.203125 
L 52.203125 0 
L 43.21875 0 
L 43.21875 8.296875 
Q 40.140625 3.328125 35.546875 0.953125 
Q 30.953125 -1.421875 24.3125 -1.421875 
Q 15.921875 -1.421875 10.953125 3.296875 
Q 6 8.015625 6 15.921875 
Q 6 25.140625 12.171875 29.828125 
Q 18.359375 34.515625 30.609375 34.515625 
L 43.21875 34.515625 
L 43.21875 35.40625 
Q 43.21875 41.609375 39.140625 45 
Q 35.0625 48.390625 27.6875 48.390625 
Q 23 48.390625 18.546875 47.265625 
Q 14.109375 46.140625 10.015625 43.890625 
L 10.015625 52.203125 
Q 14.9375 54.109375 19.578125 55.046875 
Q 24.21875 56 28.609375 56 
Q 40.484375 56 46.34375 49.84375 
Q 52.203125 43.703125 52.203125 31.203125 
z
" id="DejaVuSans-97"/>
      <path d="M 19.671875 64.796875 
L 19.671875 37.40625 
L 32.078125 37.40625 
Q 38.96875 37.40625 42.71875 40.96875 
Q 46.484375 44.53125 46.484375 51.125 
Q 46.484375 57.671875 42.71875 61.234375 
Q 38.96875 64.796875 32.078125 64.796875 
z
M 9.8125 72.90625 
L 32.078125 72.90625 
Q 44.34375 72.90625 50.609375 67.359375 
Q 56.890625 61.8125 56.890625 51.125 
Q 56.890625 40.328125 50.609375 34.8125 
Q 44.34375 29.296875 32.078125 29.296875 
L 19.671875 29.296875 
L 19.671875 0 
L 9.8125 0 
z
" id="DejaVuSans-80"/>
      <path d="M 30.609375 48.390625 
Q 23.390625 48.390625 19.1875 42.75 
Q 14.984375 37.109375 14.984375 27.296875 
Q 14.984375 17.484375 19.15625 11.84375 
Q 23.34375 6.203125 30.609375 6.203125 
Q 37.796875 6.203125 41.984375 11.859375 
Q 46.1875 17.53125 46.1875 27.296875 
Q 46.1875 37.015625 41.984375 42.703125 
Q 37.796875 48.390625 30.609375 48.390625 
z
M 30.609375 56 
Q 42.328125 56 49.015625 48.375 
Q 55.71875 40.765625 55.71875 27.296875 
Q 55.71875 13.875 49.015625 6.21875 
Q 42.328125 -1.421875 30.609375 -1.421875 
Q 18.84375 -1.421875 12.171875 6.21875 
Q 5.515625 13.875 5.515625 27.296875 
Q 5.515625 40.765625 12.171875 48.375 
Q 18.84375 56 30.609375 56 
z
" id="DejaVuSans-111"/>
      <path d="M 54.890625 33.015625 
L 54.890625 0 
L 45.90625 0 
L 45.90625 32.71875 
Q 45.90625 40.484375 42.875 44.328125 
Q 39.84375 48.1875 33.796875 48.1875 
Q 26.515625 48.1875 22.3125 43.546875 
Q 18.109375 38.921875 18.109375 30.90625 
L 18.109375 0 
L 9.078125 0 
L 9.078125 54.6875 
L 18.109375 54.6875 
L 18.109375 46.1875 
Q 21.34375 51.125 25.703125 53.5625 
Q 30.078125 56 35.796875 56 
Q 45.21875 56 50.046875 50.171875 
Q 54.890625 44.34375 54.890625 33.015625 
z
" id="DejaVuSans-110"/>
     </defs>
     <g transform="translate(301.97 58.070438)scale(0.1 -0.1)">
      <use xlink:href="#DejaVuSans-68"/>
      <use x="77.001953" xlink:href="#DejaVuSans-97"/>
      <use x="138.28125" xlink:href="#DejaVuSans-116"/>
      <use x="177.490234" xlink:href="#DejaVuSans-97"/>
      <use x="238.769531" xlink:href="#DejaVuSans-32"/>
      <use x="270.556641" xlink:href="#DejaVuSans-80"/>
      <use x="327.234375" xlink:href="#DejaVuSans-111"/>
      <use x="388.416016" xlink:href="#DejaVuSans-105"/>
      <use x="416.199219" xlink:href="#DejaVuSans-110"/>
      <use x="479.578125" xlink:href="#DejaVuSans-116"/>
      <use x="518.787109" xlink:href="#DejaVuSans-115"/>
     </g>
    </g>
    <g id="line2d_21">
     <path d="M 273.97 69.248563 
L 293.97 69.248563 
" style="fill:none;stroke:#d62728;stroke-linecap:square;stroke-width:1.5;"/>
    </g>
    <g id="line2d_22"/>
    <g id="text_18">
     <!-- Least Squares -->
     <defs>
      <path d="M 9.8125 72.90625 
L 19.671875 72.90625 
L 19.671875 8.296875 
L 55.171875 8.296875 
L 55.171875 0 
L 9.8125 0 
z
" id="DejaVuSans-76"/>
      <path d="M 14.796875 27.296875 
Q 14.796875 17.390625 18.875 11.75 
Q 22.953125 6.109375 30.078125 6.109375 
Q 37.203125 6.109375 41.296875 11.75 
Q 45.40625 17.390625 45.40625 27.296875 
Q 45.40625 37.203125 41.296875 42.84375 
Q 37.203125 48.484375 30.078125 48.484375 
Q 22.953125 48.484375 18.875 42.84375 
Q 14.796875 37.203125 14.796875 27.296875 
z
M 45.40625 8.203125 
Q 42.578125 3.328125 38.25 0.953125 
Q 33.9375 -1.421875 27.875 -1.421875 
Q 17.96875 -1.421875 11.734375 6.484375 
Q 5.515625 14.40625 5.515625 27.296875 
Q 5.515625 40.1875 11.734375 48.09375 
Q 17.96875 56 27.875 56 
Q 33.9375 56 38.25 53.625 
Q 42.578125 51.265625 45.40625 46.390625 
L 45.40625 54.6875 
L 54.390625 54.6875 
L 54.390625 -20.796875 
L 45.40625 -20.796875 
z
" id="DejaVuSans-113"/>
     </defs>
     <g transform="translate(301.97 72.748563)scale(0.1 -0.1)">
      <use xlink:href="#DejaVuSans-76"/>
      <use x="53.962891" xlink:href="#DejaVuSans-101"/>
      <use x="115.486328" xlink:href="#DejaVuSans-97"/>
      <use x="176.765625" xlink:href="#DejaVuSans-115"/>
      <use x="228.865234" xlink:href="#DejaVuSans-116"/>
      <use x="268.074219" xlink:href="#DejaVuSans-32"/>
      <use x="299.861328" xlink:href="#DejaVuSans-83"/>
      <use x="363.337891" xlink:href="#DejaVuSans-113"/>
      <use x="426.814453" xlink:href="#DejaVuSans-117"/>
      <use x="490.193359" xlink:href="#DejaVuSans-97"/>
      <use x="551.472656" xlink:href="#DejaVuSans-114"/>
      <use x="590.335938" xlink:href="#DejaVuSans-101"/>
      <use x="651.859375" xlink:href="#DejaVuSans-115"/>
     </g>
    </g>
    <g id="line2d_23">
     <path d="M 273.97 83.926688 
L 293.97 83.926688 
" style="fill:none;stroke:#1f77b4;stroke-linecap:square;stroke-width:1.5;"/>
    </g>
    <g id="line2d_24"/>
    <g id="text_19">
     <!-- Gradient Descent -->
     <defs>
      <path d="M 59.515625 10.40625 
L 59.515625 29.984375 
L 43.40625 29.984375 
L 43.40625 38.09375 
L 69.28125 38.09375 
L 69.28125 6.78125 
Q 63.578125 2.734375 56.6875 0.65625 
Q 49.8125 -1.421875 42 -1.421875 
Q 24.90625 -1.421875 15.25 8.5625 
Q 5.609375 18.5625 5.609375 36.375 
Q 5.609375 54.25 15.25 64.234375 
Q 24.90625 74.21875 42 74.21875 
Q 49.125 74.21875 55.546875 72.453125 
Q 61.96875 70.703125 67.390625 67.28125 
L 67.390625 56.78125 
Q 61.921875 61.421875 55.765625 63.765625 
Q 49.609375 66.109375 42.828125 66.109375 
Q 29.4375 66.109375 22.71875 58.640625 
Q 16.015625 51.171875 16.015625 36.375 
Q 16.015625 21.625 22.71875 14.15625 
Q 29.4375 6.6875 42.828125 6.6875 
Q 48.046875 6.6875 52.140625 7.59375 
Q 56.25 8.5 59.515625 10.40625 
z
" id="DejaVuSans-71"/>
      <path d="M 48.78125 52.59375 
L 48.78125 44.1875 
Q 44.96875 46.296875 41.140625 47.34375 
Q 37.3125 48.390625 33.40625 48.390625 
Q 24.65625 48.390625 19.8125 42.84375 
Q 14.984375 37.3125 14.984375 27.296875 
Q 14.984375 17.28125 19.8125 11.734375 
Q 24.65625 6.203125 33.40625 6.203125 
Q 37.3125 6.203125 41.140625 7.25 
Q 44.96875 8.296875 48.78125 10.40625 
L 48.78125 2.09375 
Q 45.015625 0.34375 40.984375 -0.53125 
Q 36.96875 -1.421875 32.421875 -1.421875 
Q 20.0625 -1.421875 12.78125 6.34375 
Q 5.515625 14.109375 5.515625 27.296875 
Q 5.515625 40.671875 12.859375 48.328125 
Q 20.21875 56 33.015625 56 
Q 37.15625 56 41.109375 55.140625 
Q 45.0625 54.296875 48.78125 52.59375 
z
" id="DejaVuSans-99"/>
     </defs>
     <g transform="translate(301.97 87.426688)scale(0.1 -0.1)">
      <use xlink:href="#DejaVuSans-71"/>
      <use x="77.490234" xlink:href="#DejaVuSans-114"/>
      <use x="118.603516" xlink:href="#DejaVuSans-97"/>
      <use x="179.882812" xlink:href="#DejaVuSans-100"/>
      <use x="243.359375" xlink:href="#DejaVuSans-105"/>
      <use x="271.142578" xlink:href="#DejaVuSans-101"/>
      <use x="332.666016" xlink:href="#DejaVuSans-110"/>
      <use x="396.044922" xlink:href="#DejaVuSans-116"/>
      <use x="435.253906" xlink:href="#DejaVuSans-32"/>
      <use x="467.041016" xlink:href="#DejaVuSans-68"/>
      <use x="544.042969" xlink:href="#DejaVuSans-101"/>
      <use x="605.566406" xlink:href="#DejaVuSans-115"/>
      <use x="657.666016" xlink:href="#DejaVuSans-99"/>
      <use x="712.646484" xlink:href="#DejaVuSans-101"/>
      <use x="774.169922" xlink:href="#DejaVuSans-110"/>
      <use x="837.548828" xlink:href="#DejaVuSans-116"/>
     </g>
    </g>
    <g id="line2d_25">
     <path d="M 273.97 98.604813 
L 293.97 98.604813 
" style="fill:none;stroke:#ff7f0e;stroke-linecap:square;stroke-width:1.5;"/>
    </g>
    <g id="line2d_26"/>
    <g id="text_20">
     <!-- Hill Climbing -->
     <defs>
      <path d="M 9.8125 72.90625 
L 19.671875 72.90625 
L 19.671875 43.015625 
L 55.515625 43.015625 
L 55.515625 72.90625 
L 65.375 72.90625 
L 65.375 0 
L 55.515625 0 
L 55.515625 34.71875 
L 19.671875 34.71875 
L 19.671875 0 
L 9.8125 0 
z
" id="DejaVuSans-72"/>
      <path d="M 9.421875 75.984375 
L 18.40625 75.984375 
L 18.40625 0 
L 9.421875 0 
z
" id="DejaVuSans-108"/>
      <path d="M 48.6875 27.296875 
Q 48.6875 37.203125 44.609375 42.84375 
Q 40.53125 48.484375 33.40625 48.484375 
Q 26.265625 48.484375 22.1875 42.84375 
Q 18.109375 37.203125 18.109375 27.296875 
Q 18.109375 17.390625 22.1875 11.75 
Q 26.265625 6.109375 33.40625 6.109375 
Q 40.53125 6.109375 44.609375 11.75 
Q 48.6875 17.390625 48.6875 27.296875 
z
M 18.109375 46.390625 
Q 20.953125 51.265625 25.265625 53.625 
Q 29.59375 56 35.59375 56 
Q 45.5625 56 51.78125 48.09375 
Q 58.015625 40.1875 58.015625 27.296875 
Q 58.015625 14.40625 51.78125 6.484375 
Q 45.5625 -1.421875 35.59375 -1.421875 
Q 29.59375 -1.421875 25.265625 0.953125 
Q 20.953125 3.328125 18.109375 8.203125 
L 18.109375 0 
L 9.078125 0 
L 9.078125 75.984375 
L 18.109375 75.984375 
z
" id="DejaVuSans-98"/>
      <path d="M 45.40625 27.984375 
Q 45.40625 37.75 41.375 43.109375 
Q 37.359375 48.484375 30.078125 48.484375 
Q 22.859375 48.484375 18.828125 43.109375 
Q 14.796875 37.75 14.796875 27.984375 
Q 14.796875 18.265625 18.828125 12.890625 
Q 22.859375 7.515625 30.078125 7.515625 
Q 37.359375 7.515625 41.375 12.890625 
Q 45.40625 18.265625 45.40625 27.984375 
z
M 54.390625 6.78125 
Q 54.390625 -7.171875 48.1875 -13.984375 
Q 42 -20.796875 29.203125 -20.796875 
Q 24.46875 -20.796875 20.265625 -20.09375 
Q 16.0625 -19.390625 12.109375 -17.921875 
L 12.109375 -9.1875 
Q 16.0625 -11.328125 19.921875 -12.34375 
Q 23.78125 -13.375 27.78125 -13.375 
Q 36.625 -13.375 41.015625 -8.765625 
Q 45.40625 -4.15625 45.40625 5.171875 
L 45.40625 9.625 
Q 42.625 4.78125 38.28125 2.390625 
Q 33.9375 0 27.875 0 
Q 17.828125 0 11.671875 7.65625 
Q 5.515625 15.328125 5.515625 27.984375 
Q 5.515625 40.671875 11.671875 48.328125 
Q 17.828125 56 27.875 56 
Q 33.9375 56 38.28125 53.609375 
Q 42.625 51.21875 45.40625 46.390625 
L 45.40625 54.6875 
L 54.390625 54.6875 
z
" id="DejaVuSans-103"/>
     </defs>
     <g transform="translate(301.97 102.104813)scale(0.1 -0.1)">
      <use xlink:href="#DejaVuSans-72"/>
      <use x="75.195312" xlink:href="#DejaVuSans-105"/>
      <use x="102.978516" xlink:href="#DejaVuSans-108"/>
      <use x="130.761719" xlink:href="#DejaVuSans-108"/>
      <use x="158.544922" xlink:href="#DejaVuSans-32"/>
      <use x="190.332031" xlink:href="#DejaVuSans-67"/>
      <use x="260.15625" xlink:href="#DejaVuSans-108"/>
      <use x="287.939453" xlink:href="#DejaVuSans-105"/>
      <use x="315.722656" xlink:href="#DejaVuSans-109"/>
      <use x="413.134766" xlink:href="#DejaVuSans-98"/>
      <use x="476.611328" xlink:href="#DejaVuSans-105"/>
      <use x="504.394531" xlink:href="#DejaVuSans-110"/>
      <use x="567.773438" xlink:href="#DejaVuSans-103"/>
     </g>
    </g>
    <g id="line2d_27">
     <path d="M 273.97 113.282938 
L 293.97 113.282938 
" style="fill:none;stroke:#2ca02c;stroke-linecap:square;stroke-width:1.5;"/>
    </g>
    <g id="line2d_28"/>
    <g id="text_21">
     <!-- Simulated Annealing -->
     <defs>
      <path d="M 34.1875 63.1875 
L 20.796875 26.90625 
L 47.609375 26.90625 
z
M 28.609375 72.90625 
L 39.796875 72.90625 
L 67.578125 0 
L 57.328125 0 
L 50.6875 18.703125 
L 17.828125 18.703125 
L 11.1875 0 
L 0.78125 0 
z
" id="DejaVuSans-65"/>
     </defs>
     <g transform="translate(301.97 116.782938)scale(0.1 -0.1)">
      <use xlink:href="#DejaVuSans-83"/>
      <use x="63.476562" xlink:href="#DejaVuSans-105"/>
      <use x="91.259766" xlink:href="#DejaVuSans-109"/>
      <use x="188.671875" xlink:href="#DejaVuSans-117"/>
      <use x="252.050781" xlink:href="#DejaVuSans-108"/>
      <use x="279.833984" xlink:href="#DejaVuSans-97"/>
      <use x="341.113281" xlink:href="#DejaVuSans-116"/>
      <use x="380.322266" xlink:href="#DejaVuSans-101"/>
      <use x="441.845703" xlink:href="#DejaVuSans-100"/>
      <use x="505.322266" xlink:href="#DejaVuSans-32"/>
      <use x="537.109375" xlink:href="#DejaVuSans-65"/>
      <use x="605.517578" xlink:href="#DejaVuSans-110"/>
      <use x="668.896484" xlink:href="#DejaVuSans-110"/>
      <use x="732.275391" xlink:href="#DejaVuSans-101"/>
      <use x="793.798828" xlink:href="#DejaVuSans-97"/>
      <use x="855.078125" xlink:href="#DejaVuSans-108"/>
      <use x="882.861328" xlink:href="#DejaVuSans-105"/>
      <use x="910.644531" xlink:href="#DejaVuSans-110"/>
      <use x="974.023438" xlink:href="#DejaVuSans-103"/>
     </g>
    </g>
   </g>
  </g>
 </g>
 <defs>
  <clipPath id="p96f14185d0">
   <rect height="266.112" width="357.12" x="57.6" y="41.472"/>
  </clipPath>
 </defs>
</svg>
