<?xml version="1.0" encoding="utf-8" standalone="no"?>
<!DOCTYPE svg PUBLIC "-//W3C//DTD SVG 1.1//EN"
  "http://www.w3.org/Graphics/SVG/1.1/DTD/svg11.dtd">
<!-- Created with matplotlib (https://matplotlib.org/) -->
<svg height="345.6pt" version="1.1" viewBox="0 0 460.8 345.6" width="460.8pt" xmlns="http://www.w3.org/2000/svg" xmlns:xlink="http://www.w3.org/1999/xlink">
 <defs>
  <style type="text/css">
*{stroke-linecap:butt;stroke-linejoin:round;}
  </style>
 </defs>
 <g id="figure_1">
  <g id="patch_1">
   <path d="M 0 345.6 
L 460.8 345.6 
L 460.8 0 
L 0 0 
z
" style="fill:#ffffff;"/>
  </g>
  <g id="axes_1">
   <g id="patch_2">
    <path d="M 57.6 307.584 
L 414.72 307.584 
L 414.72 41.472 
L 57.6 41.472 
z
" style="fill:#ffffff;"/>
   </g>
   <g id="PathCollection_1">
    <path clip-path="url(#pcfb4c7967f)" d="M 349.789091 305.511441 
L 352.351735 307.584 
L 353.396364 307.584 
L 357.003636 307.584 
L 360.610909 307.584 
L 364.218182 307.584 
L 367.825455 307.584 
L 371.432727 307.584 
L 375.04 307.584 
L 378.647273 307.584 
L 382.254545 307.584 
L 385.861818 307.584 
L 389.469091 307.584 
L 393.076364 307.584 
L 396.683636 307.584 
L 400.290909 307.584 
L 403.898182 307.584 
L 407.505455 307.584 
L 411.112727 307.584 
L 414.72 307.584 
L 414.72 304.896 
L 414.72 302.208 
L 414.72 299.52 
L 414.72 296.832 
L 414.72 294.144 
L 414.72 291.456 
L 414.72 288.768 
L 414.72 286.08 
L 414.72 283.392 
L 414.72 280.704 
L 414.72 278.016 
L 414.72 275.328 
L 414.72 272.64 
L 414.72 269.952 
L 414.72 267.264 
L 414.72 264.576 
L 414.72 261.888 
L 414.72 259.2 
L 414.72 256.512 
L 414.72 253.824 
L 414.72 251.136 
L 414.72 248.448 
L 414.72 245.76 
L 414.72 243.072 
L 414.72 240.384 
L 414.72 237.696 
L 414.72 235.008 
L 414.72 232.32 
L 414.72 229.632 
L 414.72 226.944 
L 414.72 224.256 
L 414.72 221.568 
L 414.72 218.88 
L 414.72 216.192 
L 414.72 213.504 
L 414.72 210.816 
L 414.72 208.128 
L 414.72 205.44 
L 414.72 202.752 
L 414.72 200.064 
L 414.72 197.376 
L 414.72 194.688 
L 414.72 192 
L 414.72 189.312 
L 414.72 186.624 
L 414.72 183.936 
L 414.72 181.248 
L 414.72 178.56 
L 414.72 175.872 
L 414.72 173.184 
L 414.72 170.496 
L 414.72 167.808 
L 414.72 165.12 
L 414.72 162.432 
L 414.72 159.744 
L 414.72 157.056 
L 414.72 154.368 
L 414.72 151.68 
L 414.72 148.992 
L 414.72 146.304 
L 414.72 143.616 
L 414.72 140.928 
L 414.72 138.24 
L 414.72 135.552 
L 414.72 132.864 
L 414.72 130.176 
L 414.72 127.488 
L 414.72 124.8 
L 414.72 122.112 
L 414.72 119.424 
L 414.72 116.736 
L 414.72 114.048 
L 414.72 111.36 
L 414.72 108.672 
L 414.72 105.984 
L 414.72 103.296 
L 414.72 100.608 
L 414.72 97.92 
L 414.72 95.232 
L 414.72 92.544 
L 414.72 89.856 
L 414.72 87.168 
L 414.72 84.48 
L 414.72 81.792 
L 414.72 79.104 
L 414.72 76.416 
L 414.72 76.027753 
L 411.7542 73.728 
L 411.112727 73.230523 
L 408.26979 71.04 
L 407.505455 70.450994 
L 404.763833 68.352 
L 403.898182 67.689171 
L 401.235902 65.664 
L 400.290909 64.945062 
L 397.685561 62.976 
L 396.683636 62.218673 
L 394.11236 60.288 
L 393.076364 59.510011 
L 390.51584 57.6 
L 389.469091 56.819083 
L 386.895526 54.912 
L 385.861818 54.145896 
L 383.250933 52.224 
L 382.254545 51.490457 
L 379.581561 49.536 
L 378.647273 48.852771 
L 375.886898 46.848 
L 375.04 46.232847 
L 372.166415 44.16 
L 371.432727 43.63069 
L 368.419571 41.472 
L 367.825455 41.472 
L 364.218182 41.472 
L 360.610909 41.472 
L 357.003636 41.472 
L 353.396364 41.472 
L 349.789091 41.472 
L 346.181818 41.472 
L 342.574545 41.472 
L 338.967273 41.472 
L 335.36 41.472 
L 331.752727 41.472 
L 328.145455 41.472 
L 324.538182 41.472 
L 320.930909 41.472 
L 317.323636 41.472 
L 313.716364 41.472 
L 310.109091 41.472 
L 306.501818 41.472 
L 302.894545 41.472 
L 299.287273 41.472 
L 295.68 41.472 
L 292.072727 41.472 
L 288.465455 41.472 
L 284.858182 41.472 
L 281.250909 41.472 
L 277.643636 41.472 
L 274.036364 41.472 
L 270.429091 41.472 
L 266.821818 41.472 
L 263.214545 41.472 
L 259.607273 41.472 
L 256 41.472 
L 252.392727 41.472 
L 248.785455 41.472 
L 245.178182 41.472 
L 241.570909 41.472 
L 237.963636 41.472 
L 234.356364 41.472 
L 230.749091 41.472 
L 227.141818 41.472 
L 223.534545 41.472 
L 219.927273 41.472 
L 216.32 41.472 
L 212.712727 41.472 
L 209.105455 41.472 
L 205.498182 41.472 
L 201.890909 41.472 
L 198.283636 41.472 
L 194.676364 41.472 
L 191.069091 41.472 
L 187.461818 41.472 
L 183.854545 41.472 
L 180.247273 41.472 
L 176.64 41.472 
L 173.032727 41.472 
L 169.425455 41.472 
L 165.818182 41.472 
L 162.210909 41.472 
L 158.603636 41.472 
L 154.996364 41.472 
L 151.389091 41.472 
L 147.781818 41.472 
L 144.174545 41.472 
L 140.567273 41.472 
L 136.96 41.472 
L 133.352727 41.472 
L 129.745455 41.472 
L 126.138182 41.472 
L 122.530909 41.472 
L 118.923636 41.472 
L 115.316364 41.472 
L 111.709091 41.472 
L 108.101818 41.472 
L 104.494545 41.472 
L 104.124094 41.472 
L 104.494545 42.095449 
L 105.72993 44.16 
L 107.352987 46.848 
L 108.101818 48.07014 
L 109.006221 49.536 
L 110.684568 52.224 
L 111.709091 53.848228 
L 112.384694 54.912 
L 114.114976 57.6 
L 115.316364 59.452916 
L 115.86148 60.288 
L 117.64054 62.976 
L 118.923636 64.903896 
L 119.432901 65.664 
L 121.257769 68.352 
L 122.530909 70.217986 
L 123.095464 71.04 
L 124.96334 73.728 
L 126.138182 75.409639 
L 126.845842 76.416 
L 128.75409 79.104 
L 129.745455 80.491339 
L 130.680872 81.792 
L 132.627003 84.48 
L 133.352727 85.473932 
L 134.597537 87.168 
L 136.579206 89.856 
L 136.96 90.366881 
L 138.592965 92.544 
L 140.567273 95.176767 
L 140.608954 95.232 
L 142.664415 97.92 
L 144.174545 99.894546 
L 144.723611 100.608 
L 146.809273 103.296 
L 147.781818 104.54388 
L 148.911133 105.984 
L 151.025042 108.672 
L 151.389091 109.130738 
L 153.169028 111.36 
L 154.996364 113.649071 
L 155.316783 114.048 
L 157.494914 116.736 
L 158.603636 118.101037 
L 159.684724 119.424 
L 161.886519 122.112 
L 162.210909 122.504791 
L 164.117834 124.8 
L 165.818182 126.846945 
L 166.353914 127.488 
L 168.613946 130.176 
L 169.425455 131.137467 
L 170.891426 132.864 
L 173.032727 135.386346 
L 173.174204 135.552 
L 175.489314 138.24 
L 176.64 139.574874 
L 177.813366 140.928 
L 180.1456 143.616 
L 180.247273 143.732222 
L 182.510364 146.304 
L 183.854545 147.831787 
L 184.881375 148.992 
L 187.263315 151.68 
L 187.461818 151.902446 
L 189.674885 154.368 
L 191.069091 155.921526 
L 192.093222 157.056 
L 194.521982 159.744 
L 194.676364 159.9137 
L 196.980708 162.432 
L 198.283636 163.856133 
L 199.44672 165.12 
L 201.890909 167.776412 
L 201.920145 167.808 
L 204.425709 170.496 
L 205.498182 171.64652 
L 206.939727 173.184 
L 209.105455 175.49422 
L 209.461685 175.872 
L 212.007805 178.56 
L 212.712727 179.3026 
L 214.570144 181.248 
L 216.32 183.081026 
L 217.140948 183.936 
L 219.724956 186.624 
L 219.927273 186.833396 
L 222.335914 189.312 
L 223.534545 190.545633 
L 224.955859 192 
L 227.141818 194.237132 
L 227.584947 194.688 
L 230.23502 197.376 
L 230.749091 197.896074 
L 232.904386 200.064 
L 234.356364 201.524703 
L 235.583425 202.752 
L 237.963636 205.13302 
L 238.272307 205.44 
L 240.984537 208.128 
L 241.570909 208.70813 
L 243.713789 210.816 
L 245.178182 212.256676 
L 246.453418 213.504 
L 248.785455 215.785321 
L 249.203608 216.192 
L 251.97407 218.88 
L 252.392727 219.285244 
L 254.764692 221.568 
L 256 222.757016 
L 257.566415 224.256 
L 259.607273 226.209278 
L 260.379435 226.944 
L 263.204185 229.632 
L 263.214545 229.641816 
L 266.057669 232.32 
L 266.821818 233.039918 
L 268.922995 235.008 
L 270.429091 236.418891 
L 271.800372 237.696 
L 274.036364 239.778725 
L 274.690013 240.384 
L 277.593291 243.072 
L 277.643636 243.118445 
L 280.523737 245.76 
L 281.250909 246.427034 
L 283.467007 248.448 
L 284.858182 249.71685 
L 286.42333 251.136 
L 288.465455 252.987884 
L 289.392937 253.824 
L 292.072727 256.240129 
L 292.376067 256.512 
L 295.379931 259.2 
L 295.68 259.468097 
L 298.404497 261.888 
L 299.287273 262.672187 
L 301.44317 264.576 
L 302.894545 265.85784 
L 304.496202 267.264 
L 306.501818 269.025047 
L 307.563852 269.952 
L 310.109091 272.173802 
L 310.646387 272.64 
L 313.716364 275.304096 
L 313.744077 275.328 
L 316.867984 278.016 
L 317.323636 278.408063 
L 320.00802 280.704 
L 320.930909 281.493445 
L 323.163828 283.392 
L 324.538182 284.560707 
L 326.335697 286.08 
L 328.145455 287.60984 
L 329.523923 288.768 
L 331.752727 290.640838 
L 332.728808 291.456 
L 335.36 293.653694 
L 335.950662 294.144 
L 338.967273 296.648401 
L 339.189804 296.832 
L 342.449592 299.52 
L 342.574545 299.622926 
L 345.732244 302.208 
L 346.181818 302.576094 
L 349.032847 304.896 
z
" style="fill:#48186a;"/>
   </g>
   <g id="PathCollection_2">
    <path clip-path="url(#pcfb4c7967f)" d="M 281.250909 307.265288 
L 281.620747 307.584 
L 284.858182 307.584 
L 288.465455 307.584 
L 292.072727 307.584 
L 295.68 307.584 
L 299.287273 307.584 
L 302.894545 307.584 
L 306.501818 307.584 
L 310.109091 307.584 
L 313.716364 307.584 
L 317.323636 307.584 
L 320.930909 307.584 
L 324.538182 307.584 
L 328.145455 307.584 
L 331.752727 307.584 
L 335.36 307.584 
L 338.967273 307.584 
L 342.574545 307.584 
L 346.181818 307.584 
L 349.789091 307.584 
L 352.351735 307.584 
L 349.789091 305.511441 
L 349.032847 304.896 
L 346.181818 302.576094 
L 345.732244 302.208 
L 342.574545 299.622926 
L 342.449592 299.52 
L 339.189804 296.832 
L 338.967273 296.648401 
L 335.950662 294.144 
L 335.36 293.653694 
L 332.728808 291.456 
L 331.752727 290.640838 
L 329.523923 288.768 
L 328.145455 287.60984 
L 326.335697 286.08 
L 324.538182 284.560707 
L 323.163828 283.392 
L 320.930909 281.493445 
L 320.00802 280.704 
L 317.323636 278.408063 
L 316.867984 278.016 
L 313.744077 275.328 
L 313.716364 275.304096 
L 310.646387 272.64 
L 310.109091 272.173802 
L 307.563852 269.952 
L 306.501818 269.025047 
L 304.496202 267.264 
L 302.894545 265.85784 
L 301.44317 264.576 
L 299.287273 262.672187 
L 298.404497 261.888 
L 295.68 259.468097 
L 295.379931 259.2 
L 292.376067 256.512 
L 292.072727 256.240129 
L 289.392937 253.824 
L 288.465455 252.987884 
L 286.42333 251.136 
L 284.858182 249.71685 
L 283.467007 248.448 
L 281.250909 246.427034 
L 280.523737 245.76 
L 277.643636 243.118445 
L 277.593291 243.072 
L 274.690013 240.384 
L 274.036364 239.778725 
L 271.800372 237.696 
L 270.429091 236.418891 
L 268.922995 235.008 
L 266.821818 233.039918 
L 266.057669 232.32 
L 263.214545 229.641816 
L 263.204185 229.632 
L 260.379435 226.944 
L 259.607273 226.209278 
L 257.566415 224.256 
L 256 222.757016 
L 254.764692 221.568 
L 252.392727 219.285244 
L 251.97407 218.88 
L 249.203608 216.192 
L 248.785455 215.785321 
L 246.453418 213.504 
L 245.178182 212.256676 
L 243.713789 210.816 
L 241.570909 208.70813 
L 240.984537 208.128 
L 238.272307 205.44 
L 237.963636 205.13302 
L 235.583425 202.752 
L 234.356364 201.524703 
L 232.904386 200.064 
L 230.749091 197.896074 
L 230.23502 197.376 
L 227.584947 194.688 
L 227.141818 194.237132 
L 224.955859 192 
L 223.534545 190.545633 
L 222.335914 189.312 
L 219.927273 186.833396 
L 219.724956 186.624 
L 217.140948 183.936 
L 216.32 183.081026 
L 214.570144 181.248 
L 212.712727 179.3026 
L 212.007805 178.56 
L 209.461685 175.872 
L 209.105455 175.49422 
L 206.939727 173.184 
L 205.498182 171.64652 
L 204.425709 170.496 
L 201.920145 167.808 
L 201.890909 167.776412 
L 199.44672 165.12 
L 198.283636 163.856133 
L 196.980708 162.432 
L 194.676364 159.9137 
L 194.521982 159.744 
L 192.093222 157.056 
L 191.069091 155.921526 
L 189.674885 154.368 
L 187.461818 151.902446 
L 187.263315 151.68 
L 184.881375 148.992 
L 183.854545 147.831787 
L 182.510364 146.304 
L 180.247273 143.732222 
L 180.1456 143.616 
L 177.813366 140.928 
L 176.64 139.574874 
L 175.489314 138.24 
L 173.174204 135.552 
L 173.032727 135.386346 
L 170.891426 132.864 
L 169.425455 131.137467 
L 168.613946 130.176 
L 166.353914 127.488 
L 165.818182 126.846945 
L 164.117834 124.8 
L 162.210909 122.504791 
L 161.886519 122.112 
L 159.684724 119.424 
L 158.603636 118.101037 
L 157.494914 116.736 
L 155.316783 114.048 
L 154.996364 113.649071 
L 153.169028 111.36 
L 151.389091 109.130738 
L 151.025042 108.672 
L 148.911133 105.984 
L 147.781818 104.54388 
L 146.809273 103.296 
L 144.723611 100.608 
L 144.174545 99.894546 
L 142.664415 97.92 
L 140.608954 95.232 
L 140.567273 95.176767 
L 138.592965 92.544 
L 136.96 90.366881 
L 136.579206 89.856 
L 134.597537 87.168 
L 133.352727 85.473932 
L 132.627003 84.48 
L 130.680872 81.792 
L 129.745455 80.491339 
L 128.75409 79.104 
L 126.845842 76.416 
L 126.138182 75.409639 
L 124.96334 73.728 
L 123.095464 71.04 
L 122.530909 70.217986 
L 121.257769 68.352 
L 119.432901 65.664 
L 118.923636 64.903896 
L 117.64054 62.976 
L 115.86148 60.288 
L 115.316364 59.452916 
L 114.114976 57.6 
L 112.384694 54.912 
L 111.709091 53.848228 
L 110.684568 52.224 
L 109.006221 49.536 
L 108.101818 48.07014 
L 107.352987 46.848 
L 105.72993 44.16 
L 104.494545 42.095449 
L 104.124094 41.472 
L 100.887273 41.472 
L 97.28 41.472 
L 93.672727 41.472 
L 90.065455 41.472 
L 86.458182 41.472 
L 82.850909 41.472 
L 79.243636 41.472 
L 75.636364 41.472 
L 72.029091 41.472 
L 68.421818 41.472 
L 64.814545 41.472 
L 61.207273 41.472 
L 57.6 41.472 
L 57.6 44.16 
L 57.6 46.848 
L 57.6 49.536 
L 57.6 52.224 
L 57.6 54.912 
L 57.6 57.6 
L 57.6 60.288 
L 57.6 62.976 
L 57.6 65.664 
L 57.6 68.352 
L 57.6 71.04 
L 57.6 73.728 
L 57.6 76.416 
L 57.6 79.104 
L 57.6 80.061531 
L 59.003042 81.792 
L 61.182451 84.48 
L 61.207273 84.51038 
L 63.387917 87.168 
L 64.814545 88.906906 
L 65.596537 89.856 
L 67.818388 92.544 
L 68.421818 93.271022 
L 70.056357 95.232 
L 72.029091 97.599022 
L 72.297745 97.92 
L 74.560427 100.608 
L 75.636364 101.884511 
L 76.83111 103.296 
L 79.107712 105.984 
L 79.243636 106.143503 
L 81.407413 108.672 
L 82.850909 110.359019 
L 83.711014 111.36 
L 86.025651 114.048 
L 86.458182 114.548141 
L 88.358205 116.736 
L 90.065455 118.702122 
L 90.694922 119.424 
L 93.046083 122.112 
L 93.672727 122.82623 
L 95.411681 124.8 
L 97.28 126.920857 
L 97.781705 127.488 
L 100.167908 130.176 
L 100.887273 130.984427 
L 102.566735 132.864 
L 104.494545 135.021767 
L 104.970249 135.552 
L 107.390042 138.24 
L 108.101818 139.028928 
L 109.822275 140.928 
L 111.709091 143.010943 
L 112.259457 143.616 
L 114.711415 146.304 
L 115.316364 146.965512 
L 117.177226 148.992 
L 118.923636 150.894065 
L 119.648247 151.68 
L 122.130974 154.368 
L 122.530909 154.799572 
L 124.630529 157.056 
L 126.138182 158.676432 
L 127.135552 159.744 
L 129.64768 162.432 
L 129.745455 162.536148 
L 132.181137 165.12 
L 133.352727 166.362998 
L 134.720323 167.808 
L 136.96 170.174704 
L 137.265309 170.496 
L 139.828022 173.184 
L 140.567273 173.958396 
L 142.401523 175.872 
L 144.174545 177.721928 
L 144.981085 178.56 
L 147.570167 181.248 
L 147.781818 181.466966 
L 150.17813 183.936 
L 151.389091 185.183845 
L 152.792415 186.624 
L 154.996364 188.886034 
L 155.413102 189.312 
L 158.049136 192 
L 158.603636 192.56445 
L 160.698286 194.688 
L 162.210909 196.221654 
L 163.354101 197.376 
L 165.818182 199.864384 
L 166.016663 200.064 
L 168.6977 202.752 
L 169.425455 203.481091 
L 171.388777 205.44 
L 173.032727 207.080425 
L 174.086867 208.128 
L 176.64 210.665496 
L 176.792057 210.816 
L 179.516139 213.504 
L 180.247273 214.225053 
L 182.249885 216.192 
L 183.854545 217.768243 
L 184.990999 218.88 
L 187.461818 221.297371 
L 187.739573 221.568 
L 190.504737 224.256 
L 191.069091 224.804017 
L 193.281898 226.944 
L 194.676364 228.292709 
L 196.066787 229.632 
L 198.283636 231.767538 
L 198.859502 232.32 
L 201.663779 235.008 
L 201.890909 235.225213 
L 204.4851 237.696 
L 205.498182 238.660986 
L 207.314519 240.384 
L 209.105455 242.083087 
L 210.152135 243.072 
L 212.712727 245.491512 
L 212.99805 245.76 
L 215.859779 248.448 
L 216.32 248.879818 
L 218.734483 251.136 
L 219.927273 252.250695 
L 221.617763 253.824 
L 223.534545 255.608084 
L 224.509727 256.512 
L 227.141818 258.951979 
L 227.410482 259.2 
L 230.32697 261.888 
L 230.749091 262.276666 
L 233.25668 264.576 
L 234.356364 265.584453 
L 236.195463 267.264 
L 237.963636 268.878929 
L 239.143435 269.952 
L 241.570909 272.160091 
L 242.10071 272.64 
L 245.069177 275.328 
L 245.178182 275.426507 
L 248.055556 278.016 
L 248.785455 278.672935 
L 251.051525 280.704 
L 252.392727 281.906226 
L 254.057205 283.392 
L 256 285.126376 
L 257.072718 286.08 
L 259.607273 288.333381 
L 260.09819 288.768 
L 263.13505 291.456 
L 263.214545 291.526234 
L 266.189927 294.144 
L 266.821818 294.699996 
L 269.255056 296.832 
L 270.429091 297.860786 
L 272.33057 299.52 
L 274.036364 301.0086 
L 275.416599 302.208 
L 277.643636 304.143436 
L 278.513279 304.896 
z
" style="fill:#424086;"/>
    <path clip-path="url(#pcfb4c7967f)" d="M 414.72 76.027753 
L 414.72 73.728 
L 414.72 71.04 
L 414.72 68.352 
L 414.72 65.664 
L 414.72 62.976 
L 414.72 60.288 
L 414.72 57.6 
L 414.72 54.912 
L 414.72 52.224 
L 414.72 49.536 
L 414.72 46.848 
L 414.72 44.16 
L 414.72 41.472 
L 411.112727 41.472 
L 407.505455 41.472 
L 403.898182 41.472 
L 400.290909 41.472 
L 396.683636 41.472 
L 393.076364 41.472 
L 389.469091 41.472 
L 385.861818 41.472 
L 382.254545 41.472 
L 378.647273 41.472 
L 375.04 41.472 
L 371.432727 41.472 
L 368.419571 41.472 
L 371.432727 43.63069 
L 372.166415 44.16 
L 375.04 46.232847 
L 375.886898 46.848 
L 378.647273 48.852771 
L 379.581561 49.536 
L 382.254545 51.490457 
L 383.250933 52.224 
L 385.861818 54.145896 
L 386.895526 54.912 
L 389.469091 56.819083 
L 390.51584 57.6 
L 393.076364 59.510011 
L 394.11236 60.288 
L 396.683636 62.218673 
L 397.685561 62.976 
L 400.290909 64.945062 
L 401.235902 65.664 
L 403.898182 67.689171 
L 404.763833 68.352 
L 407.505455 70.450994 
L 408.26979 71.04 
L 411.112727 73.230523 
L 411.7542 73.728 
z
" style="fill:#424086;"/>
   </g>
   <g id="PathCollection_3">
    <path clip-path="url(#pcfb4c7967f)" d="M 227.141818 306.212183 
L 228.688469 307.584 
L 230.749091 307.584 
L 234.356364 307.584 
L 237.963636 307.584 
L 241.570909 307.584 
L 245.178182 307.584 
L 248.785455 307.584 
L 252.392727 307.584 
L 256 307.584 
L 259.607273 307.584 
L 263.214545 307.584 
L 266.821818 307.584 
L 270.429091 307.584 
L 274.036364 307.584 
L 277.643636 307.584 
L 281.250909 307.584 
L 281.620747 307.584 
L 281.250909 307.265288 
L 278.513279 304.896 
L 277.643636 304.143436 
L 275.416599 302.208 
L 274.036364 301.0086 
L 272.33057 299.52 
L 270.429091 297.860786 
L 269.255056 296.832 
L 266.821818 294.699996 
L 266.189927 294.144 
L 263.214545 291.526234 
L 263.13505 291.456 
L 260.09819 288.768 
L 259.607273 288.333381 
L 257.072718 286.08 
L 256 285.126376 
L 254.057205 283.392 
L 252.392727 281.906226 
L 251.051525 280.704 
L 248.785455 278.672935 
L 248.055556 278.016 
L 245.178182 275.426507 
L 245.069177 275.328 
L 242.10071 272.64 
L 241.570909 272.160091 
L 239.143435 269.952 
L 237.963636 268.878929 
L 236.195463 267.264 
L 234.356364 265.584453 
L 233.25668 264.576 
L 230.749091 262.276666 
L 230.32697 261.888 
L 227.410482 259.2 
L 227.141818 258.951979 
L 224.509727 256.512 
L 223.534545 255.608084 
L 221.617763 253.824 
L 219.927273 252.250695 
L 218.734483 251.136 
L 216.32 248.879818 
L 215.859779 248.448 
L 212.99805 245.76 
L 212.712727 245.491512 
L 210.152135 243.072 
L 209.105455 242.083087 
L 207.314519 240.384 
L 205.498182 238.660986 
L 204.4851 237.696 
L 201.890909 235.225213 
L 201.663779 235.008 
L 198.859502 232.32 
L 198.283636 231.767538 
L 196.066787 229.632 
L 194.676364 228.292709 
L 193.281898 226.944 
L 191.069091 224.804017 
L 190.504737 224.256 
L 187.739573 221.568 
L 187.461818 221.297371 
L 184.990999 218.88 
L 183.854545 217.768243 
L 182.249885 216.192 
L 180.247273 214.225053 
L 179.516139 213.504 
L 176.792057 210.816 
L 176.64 210.665496 
L 174.086867 208.128 
L 173.032727 207.080425 
L 171.388777 205.44 
L 169.425455 203.481091 
L 168.6977 202.752 
L 166.016663 200.064 
L 165.818182 199.864384 
L 163.354101 197.376 
L 162.210909 196.221654 
L 160.698286 194.688 
L 158.603636 192.56445 
L 158.049136 192 
L 155.413102 189.312 
L 154.996364 188.886034 
L 152.792415 186.624 
L 151.389091 185.183845 
L 150.17813 183.936 
L 147.781818 181.466966 
L 147.570167 181.248 
L 144.981085 178.56 
L 144.174545 177.721928 
L 142.401523 175.872 
L 140.567273 173.958396 
L 139.828022 173.184 
L 137.265309 170.496 
L 136.96 170.174704 
L 134.720323 167.808 
L 133.352727 166.362998 
L 132.181137 165.12 
L 129.745455 162.536148 
L 129.64768 162.432 
L 127.135552 159.744 
L 126.138182 158.676432 
L 124.630529 157.056 
L 122.530909 154.799572 
L 122.130974 154.368 
L 119.648247 151.68 
L 118.923636 150.894065 
L 117.177226 148.992 
L 115.316364 146.965512 
L 114.711415 146.304 
L 112.259457 143.616 
L 111.709091 143.010943 
L 109.822275 140.928 
L 108.101818 139.028928 
L 107.390042 138.24 
L 104.970249 135.552 
L 104.494545 135.021767 
L 102.566735 132.864 
L 100.887273 130.984427 
L 100.167908 130.176 
L 97.781705 127.488 
L 97.28 126.920857 
L 95.411681 124.8 
L 93.672727 122.82623 
L 93.046083 122.112 
L 90.694922 119.424 
L 90.065455 118.702122 
L 88.358205 116.736 
L 86.458182 114.548141 
L 86.025651 114.048 
L 83.711014 111.36 
L 82.850909 110.359019 
L 81.407413 108.672 
L 79.243636 106.143503 
L 79.107712 105.984 
L 76.83111 103.296 
L 75.636364 101.884511 
L 74.560427 100.608 
L 72.297745 97.92 
L 72.029091 97.599022 
L 70.056357 95.232 
L 68.421818 93.271022 
L 67.818388 92.544 
L 65.596537 89.856 
L 64.814545 88.906906 
L 63.387917 87.168 
L 61.207273 84.51038 
L 61.182451 84.48 
L 59.003042 81.792 
L 57.6 80.061531 
L 57.6 81.792 
L 57.6 84.48 
L 57.6 87.168 
L 57.6 89.856 
L 57.6 92.544 
L 57.6 95.232 
L 57.6 97.92 
L 57.6 100.608 
L 57.6 103.296 
L 57.6 105.984 
L 57.6 108.672 
L 57.6 111.36 
L 57.6 114.048 
L 57.6 116.736 
L 57.6 119.424 
L 57.6 122.112 
L 57.6 124.8 
L 57.6 127.488 
L 57.6 130.176 
L 57.6 132.864 
L 57.6 135.552 
L 57.6 138.24 
L 57.6 140.459198 
L 58.032326 140.928 
L 60.517636 143.616 
L 61.207273 144.360705 
L 63.012922 146.304 
L 64.814545 148.24314 
L 65.512647 148.992 
L 68.022087 151.68 
L 68.421818 152.107076 
L 70.54508 154.368 
L 72.029091 155.948371 
L 73.072685 157.056 
L 75.605355 159.744 
L 75.636364 159.776785 
L 78.156158 162.432 
L 79.243636 163.578024 
L 80.711748 165.12 
L 82.850909 167.366988 
L 83.272172 167.808 
L 85.845476 170.496 
L 86.458182 171.135072 
L 88.42915 173.184 
L 90.065455 174.885178 
L 91.017832 175.872 
L 93.612359 178.56 
L 93.672727 178.622331 
L 96.224213 181.248 
L 97.28 182.334578 
L 98.84125 183.936 
L 100.887273 186.034851 
L 101.463522 186.624 
L 104.096268 189.312 
L 104.494545 189.717825 
L 106.741754 192 
L 108.101818 193.381346 
L 109.39265 194.688 
L 111.709091 197.033037 
L 112.049011 197.376 
L 114.718678 200.064 
L 115.316364 200.665111 
L 117.398288 202.752 
L 118.923636 204.281115 
L 120.08354 205.44 
L 122.530909 207.885428 
L 122.77449 208.128 
L 125.479777 210.816 
L 126.138182 211.469691 
L 128.194006 213.504 
L 129.745455 215.039341 
L 130.91411 216.192 
L 133.352727 218.597437 
L 133.640151 218.88 
L 136.379753 221.568 
L 136.96 222.136795 
L 139.129096 224.256 
L 140.567273 225.661213 
L 141.884554 226.944 
L 144.174545 229.174211 
L 144.646188 229.632 
L 147.418796 232.32 
L 147.781818 232.671403 
L 150.20375 235.008 
L 151.389091 236.15167 
L 152.995061 237.696 
L 154.996364 239.620647 
L 155.792792 240.384 
L 158.597094 243.072 
L 158.603636 243.078254 
L 161.418159 245.76 
L 162.210909 246.515413 
L 164.245825 248.448 
L 165.818182 249.94141 
L 167.080159 251.136 
L 169.425455 253.356242 
L 169.921229 253.824 
L 172.772512 256.512 
L 173.032727 256.756925 
L 175.637036 259.2 
L 176.64 260.140945 
L 178.50848 261.888 
L 180.247273 263.513925 
L 181.386914 264.576 
L 183.854545 266.875863 
L 184.272409 267.264 
L 187.168889 269.952 
L 187.461818 270.223489 
L 190.077951 272.64 
L 191.069091 273.555584 
L 192.994261 275.328 
L 194.676364 276.876758 
L 195.917891 278.016 
L 198.283636 280.18701 
L 198.848918 280.704 
L 201.788766 283.392 
L 201.890909 283.485227 
L 204.743464 286.08 
L 205.498182 286.766568 
L 207.705748 288.768 
L 209.105455 290.037107 
L 210.675694 291.456 
L 212.712727 293.296839 
L 213.653383 294.144 
L 216.32 296.545763 
L 216.638892 296.832 
L 219.636175 299.52 
L 219.927273 299.78081 
L 222.645564 302.208 
L 223.534545 303.001842 
L 225.662967 304.896 
z
" style="fill:#33638d;"/>
   </g>
   <g id="PathCollection_4">
    <path clip-path="url(#pcfb4c7967f)" d="M 183.854545 307.016861 
L 184.483626 307.584 
L 187.461818 307.584 
L 191.069091 307.584 
L 194.676364 307.584 
L 198.283636 307.584 
L 201.890909 307.584 
L 205.498182 307.584 
L 209.105455 307.584 
L 212.712727 307.584 
L 216.32 307.584 
L 219.927273 307.584 
L 223.534545 307.584 
L 227.141818 307.584 
L 228.688469 307.584 
L 227.141818 306.212183 
L 225.662967 304.896 
L 223.534545 303.001842 
L 222.645564 302.208 
L 219.927273 299.78081 
L 219.636175 299.52 
L 216.638892 296.832 
L 216.32 296.545763 
L 213.653383 294.144 
L 212.712727 293.296839 
L 210.675694 291.456 
L 209.105455 290.037107 
L 207.705748 288.768 
L 205.498182 286.766568 
L 204.743464 286.08 
L 201.890909 283.485227 
L 201.788766 283.392 
L 198.848918 280.704 
L 198.283636 280.18701 
L 195.917891 278.016 
L 194.676364 276.876758 
L 192.994261 275.328 
L 191.069091 273.555584 
L 190.077951 272.64 
L 187.461818 270.223489 
L 187.168889 269.952 
L 184.272409 267.264 
L 183.854545 266.875863 
L 181.386914 264.576 
L 180.247273 263.513925 
L 178.50848 261.888 
L 176.64 260.140945 
L 175.637036 259.2 
L 173.032727 256.756925 
L 172.772512 256.512 
L 169.921229 253.824 
L 169.425455 253.356242 
L 167.080159 251.136 
L 165.818182 249.94141 
L 164.245825 248.448 
L 162.210909 246.515413 
L 161.418159 245.76 
L 158.603636 243.078254 
L 158.597094 243.072 
L 155.792792 240.384 
L 154.996364 239.620647 
L 152.995061 237.696 
L 151.389091 236.15167 
L 150.20375 235.008 
L 147.781818 232.671403 
L 147.418796 232.32 
L 144.646188 229.632 
L 144.174545 229.174211 
L 141.884554 226.944 
L 140.567273 225.661213 
L 139.129096 224.256 
L 136.96 222.136795 
L 136.379753 221.568 
L 133.640151 218.88 
L 133.352727 218.597437 
L 130.91411 216.192 
L 129.745455 215.039341 
L 128.194006 213.504 
L 126.138182 211.469691 
L 125.479777 210.816 
L 122.77449 208.128 
L 122.530909 207.885428 
L 120.08354 205.44 
L 118.923636 204.281115 
L 117.398288 202.752 
L 115.316364 200.665111 
L 114.718678 200.064 
L 112.049011 197.376 
L 111.709091 197.033037 
L 109.39265 194.688 
L 108.101818 193.381346 
L 106.741754 192 
L 104.494545 189.717825 
L 104.096268 189.312 
L 101.463522 186.624 
L 100.887273 186.034851 
L 98.84125 183.936 
L 97.28 182.334578 
L 96.224213 181.248 
L 93.672727 178.622331 
L 93.612359 178.56 
L 91.017832 175.872 
L 90.065455 174.885178 
L 88.42915 173.184 
L 86.458182 171.135072 
L 85.845476 170.496 
L 83.272172 167.808 
L 82.850909 167.366988 
L 80.711748 165.12 
L 79.243636 163.578024 
L 78.156158 162.432 
L 75.636364 159.776785 
L 75.605355 159.744 
L 73.072685 157.056 
L 72.029091 155.948371 
L 70.54508 154.368 
L 68.421818 152.107076 
L 68.022087 151.68 
L 65.512647 148.992 
L 64.814545 148.24314 
L 63.012922 146.304 
L 61.207273 144.360705 
L 60.517636 143.616 
L 58.032326 140.928 
L 57.6 140.459198 
L 57.6 140.928 
L 57.6 143.616 
L 57.6 146.304 
L 57.6 148.992 
L 57.6 151.68 
L 57.6 154.368 
L 57.6 157.056 
L 57.6 159.744 
L 57.6 162.432 
L 57.6 165.12 
L 57.6 167.808 
L 57.6 170.496 
L 57.6 173.184 
L 57.6 175.872 
L 57.6 178.56 
L 57.6 181.248 
L 57.6 183.936 
L 57.6 186.005171 
L 58.206661 186.624 
L 60.844627 189.312 
L 61.207273 189.680852 
L 63.493994 192 
L 64.814545 193.339378 
L 66.148066 194.688 
L 68.421818 196.987671 
L 68.806886 197.376 
L 71.476717 200.064 
L 72.029091 200.619512 
L 74.155663 202.752 
L 75.636364 204.236929 
L 76.839488 205.44 
L 79.243636 207.844219 
L 79.528235 208.128 
L 82.228956 210.816 
L 82.850909 211.43453 
L 84.937851 213.504 
L 86.458182 215.011712 
L 87.651802 216.192 
L 90.065455 218.578869 
L 90.370851 218.88 
L 93.101485 221.568 
L 93.672727 222.129845 
L 95.840701 224.256 
L 97.28 225.667637 
L 98.585151 226.944 
L 100.887273 229.195506 
L 101.334879 229.632 
L 104.094445 232.32 
L 104.494545 232.709231 
L 106.864355 235.008 
L 108.101818 236.208453 
L 109.639679 237.696 
L 111.709091 239.697851 
L 112.420463 240.384 
L 115.207978 243.072 
L 115.316364 243.176303 
L 118.008956 245.76 
L 118.923636 246.63775 
L 120.815529 248.448 
L 122.530909 250.089469 
L 123.627748 251.136 
L 126.138182 253.531459 
L 126.44566 253.824 
L 129.274647 256.512 
L 129.745455 256.958972 
L 132.112847 259.2 
L 133.352727 260.373781 
L 134.956878 261.888 
L 136.96 263.778955 
L 137.806792 264.576 
L 140.567273 267.174492 
L 140.66264 267.264 
L 143.531775 269.952 
L 144.174545 270.554065 
L 146.407999 272.64 
L 147.781818 273.923167 
L 149.290296 275.328 
L 151.389091 277.282725 
L 152.17872 278.016 
L 154.996364 280.632737 
L 155.073324 280.704 
L 157.981257 283.392 
L 158.603636 283.96722 
L 160.89632 286.08 
L 162.210909 287.291518 
L 163.817705 288.768 
L 165.818182 290.606361 
L 166.745466 291.456 
L 169.425455 293.911749 
L 169.679661 294.144 
L 172.625009 296.832 
L 173.032727 297.20385 
L 175.579741 299.52 
L 176.64 300.484221 
L 178.541049 302.208 
L 180.247273 303.755225 
L 181.508991 304.896 
z
" style="fill:#26828e;"/>
   </g>
   <g id="PathCollection_5">
    <path clip-path="url(#pcfb4c7967f)" d="M 144.174545 306.154918 
L 145.741412 307.584 
L 147.781818 307.584 
L 151.389091 307.584 
L 154.996364 307.584 
L 158.603636 307.584 
L 162.210909 307.584 
L 165.818182 307.584 
L 169.425455 307.584 
L 173.032727 307.584 
L 176.64 307.584 
L 180.247273 307.584 
L 183.854545 307.584 
L 184.483626 307.584 
L 183.854545 307.016861 
L 181.508991 304.896 
L 180.247273 303.755225 
L 178.541049 302.208 
L 176.64 300.484221 
L 175.579741 299.52 
L 173.032727 297.20385 
L 172.625009 296.832 
L 169.679661 294.144 
L 169.425455 293.911749 
L 166.745466 291.456 
L 165.818182 290.606361 
L 163.817705 288.768 
L 162.210909 287.291518 
L 160.89632 286.08 
L 158.603636 283.96722 
L 157.981257 283.392 
L 155.073324 280.704 
L 154.996364 280.632737 
L 152.17872 278.016 
L 151.389091 277.282725 
L 149.290296 275.328 
L 147.781818 273.923167 
L 146.407999 272.64 
L 144.174545 270.554065 
L 143.531775 269.952 
L 140.66264 267.264 
L 140.567273 267.174492 
L 137.806792 264.576 
L 136.96 263.778955 
L 134.956878 261.888 
L 133.352727 260.373781 
L 132.112847 259.2 
L 129.745455 256.958972 
L 129.274647 256.512 
L 126.44566 253.824 
L 126.138182 253.531459 
L 123.627748 251.136 
L 122.530909 250.089469 
L 120.815529 248.448 
L 118.923636 246.63775 
L 118.008956 245.76 
L 115.316364 243.176303 
L 115.207978 243.072 
L 112.420463 240.384 
L 111.709091 239.697851 
L 109.639679 237.696 
L 108.101818 236.208453 
L 106.864355 235.008 
L 104.494545 232.709231 
L 104.094445 232.32 
L 101.334879 229.632 
L 100.887273 229.195506 
L 98.585151 226.944 
L 97.28 225.667637 
L 95.840701 224.256 
L 93.672727 222.129845 
L 93.101485 221.568 
L 90.370851 218.88 
L 90.065455 218.578869 
L 87.651802 216.192 
L 86.458182 215.011712 
L 84.937851 213.504 
L 82.850909 211.43453 
L 82.228956 210.816 
L 79.528235 208.128 
L 79.243636 207.844219 
L 76.839488 205.44 
L 75.636364 204.236929 
L 74.155663 202.752 
L 72.029091 200.619512 
L 71.476717 200.064 
L 68.806886 197.376 
L 68.421818 196.987671 
L 66.148066 194.688 
L 64.814545 193.339378 
L 63.493994 192 
L 61.207273 189.680852 
L 60.844627 189.312 
L 58.206661 186.624 
L 57.6 186.005171 
L 57.6 186.624 
L 57.6 189.312 
L 57.6 192 
L 57.6 194.688 
L 57.6 197.376 
L 57.6 200.064 
L 57.6 202.752 
L 57.6 205.44 
L 57.6 208.128 
L 57.6 210.816 
L 57.6 213.504 
L 57.6 216.192 
L 57.6 218.88 
L 57.6 221.568 
L 57.6 224.146426 
L 57.711454 224.256 
L 60.451026 226.944 
L 61.207273 227.685835 
L 63.196386 229.632 
L 64.814545 231.215323 
L 65.94646 232.32 
L 68.421818 234.735948 
L 68.701286 235.008 
L 71.466574 237.696 
L 72.029091 238.242421 
L 74.239467 240.384 
L 75.636364 241.737505 
L 77.017219 243.072 
L 79.243636 245.223805 
L 79.799868 245.76 
L 82.590085 248.448 
L 82.850909 248.698915 
L 85.39081 251.136 
L 86.458182 252.160228 
L 88.196541 253.824 
L 90.065455 255.612836 
L 91.007317 256.512 
L 93.672727 259.056736 
L 93.823177 259.2 
L 96.650531 261.888 
L 97.28 262.486244 
L 99.484543 264.576 
L 100.887273 265.905775 
L 102.323748 267.264 
L 104.494545 269.316674 
L 105.168188 269.952 
L 108.018745 272.64 
L 108.101818 272.718204 
L 110.881339 275.328 
L 111.709091 276.105256 
L 113.749278 278.016 
L 115.316364 279.483751 
L 116.622603 280.704 
L 118.923636 282.853688 
L 119.501358 283.392 
L 122.387045 286.08 
L 122.530909 286.213817 
L 125.284022 288.768 
L 126.138182 289.56049 
L 128.186539 291.456 
L 129.745455 292.898679 
L 131.09464 294.144 
L 133.352727 296.228381 
L 134.00837 296.832 
L 136.928097 299.52 
L 136.96 299.549324 
L 139.860113 302.208 
L 140.567273 302.856328 
L 142.797869 304.896 
z
" style="fill:#1fa088;"/>
   </g>
   <g id="PathCollection_6">
    <path clip-path="url(#pcfb4c7967f)" d="M 108.101818 305.078895 
L 110.824942 307.584 
L 111.709091 307.584 
L 115.316364 307.584 
L 118.923636 307.584 
L 122.530909 307.584 
L 126.138182 307.584 
L 129.745455 307.584 
L 133.352727 307.584 
L 136.96 307.584 
L 140.567273 307.584 
L 144.174545 307.584 
L 145.741412 307.584 
L 144.174545 306.154918 
L 142.797869 304.896 
L 140.567273 302.856328 
L 139.860113 302.208 
L 136.96 299.549324 
L 136.928097 299.52 
L 134.00837 296.832 
L 133.352727 296.228381 
L 131.09464 294.144 
L 129.745455 292.898679 
L 128.186539 291.456 
L 126.138182 289.56049 
L 125.284022 288.768 
L 122.530909 286.213817 
L 122.387045 286.08 
L 119.501358 283.392 
L 118.923636 282.853688 
L 116.622603 280.704 
L 115.316364 279.483751 
L 113.749278 278.016 
L 111.709091 276.105256 
L 110.881339 275.328 
L 108.101818 272.718204 
L 108.018745 272.64 
L 105.168188 269.952 
L 104.494545 269.316674 
L 102.323748 267.264 
L 100.887273 265.905775 
L 99.484543 264.576 
L 97.28 262.486244 
L 96.650531 261.888 
L 93.823177 259.2 
L 93.672727 259.056736 
L 91.007317 256.512 
L 90.065455 255.612836 
L 88.196541 253.824 
L 86.458182 252.160228 
L 85.39081 251.136 
L 82.850909 248.698915 
L 82.590085 248.448 
L 79.799868 245.76 
L 79.243636 245.223805 
L 77.017219 243.072 
L 75.636364 241.737505 
L 74.239467 240.384 
L 72.029091 238.242421 
L 71.466574 237.696 
L 68.701286 235.008 
L 68.421818 234.735948 
L 65.94646 232.32 
L 64.814545 231.215323 
L 63.196386 229.632 
L 61.207273 227.685835 
L 60.451026 226.944 
L 57.711454 224.256 
L 57.6 224.146426 
L 57.6 224.256 
L 57.6 226.944 
L 57.6 229.632 
L 57.6 232.32 
L 57.6 235.008 
L 57.6 237.696 
L 57.6 240.384 
L 57.6 243.072 
L 57.6 245.76 
L 57.6 248.448 
L 57.6 251.136 
L 57.6 253.824 
L 57.6 256.512 
L 57.6 257.623647 
L 59.247399 259.2 
L 61.207273 261.075459 
L 62.058406 261.888 
L 64.814545 264.519322 
L 64.874054 264.576 
L 67.701032 267.264 
L 68.421818 267.949293 
L 70.533252 269.952 
L 72.029091 271.370893 
L 73.370205 272.64 
L 75.636364 274.784607 
L 76.211924 275.328 
L 79.060139 278.016 
L 79.243636 278.188948 
L 81.918433 280.704 
L 82.850909 281.580836 
L 84.781586 283.392 
L 86.458182 284.964901 
L 87.649631 286.08 
L 90.065455 288.341142 
L 90.522604 288.768 
L 93.403039 291.456 
L 93.672727 291.707414 
L 96.292645 294.144 
L 97.28 295.062316 
L 99.187271 296.832 
L 100.887273 298.409455 
L 102.086954 299.52 
L 104.494545 301.748831 
L 104.991731 302.208 
L 107.903479 304.896 
z
" style="fill:#3fbc73;"/>
   </g>
   <g id="PathCollection_7">
    <path clip-path="url(#pcfb4c7967f)" d="M 79.243636 307.584 
L 82.850909 307.584 
L 86.458182 307.584 
L 90.065455 307.584 
L 93.672727 307.584 
L 97.28 307.584 
L 100.887273 307.584 
L 104.494545 307.584 
L 108.101818 307.584 
L 110.824942 307.584 
L 108.101818 305.078895 
L 107.903479 304.896 
L 104.991731 302.208 
L 104.494545 301.748831 
L 102.086954 299.52 
L 100.887273 298.409455 
L 99.187271 296.832 
L 97.28 295.062316 
L 96.292645 294.144 
L 93.672727 291.707414 
L 93.403039 291.456 
L 90.522604 288.768 
L 90.065455 288.341142 
L 87.649631 286.08 
L 86.458182 284.964901 
L 84.781586 283.392 
L 82.850909 281.580836 
L 81.918433 280.704 
L 79.243636 278.188948 
L 79.060139 278.016 
L 76.211924 275.328 
L 75.636364 274.784607 
L 73.370205 272.64 
L 72.029091 271.370893 
L 70.533252 269.952 
L 68.421818 267.949293 
L 67.701032 267.264 
L 64.874054 264.576 
L 64.814545 264.519322 
L 62.058406 261.888 
L 61.207273 261.075459 
L 59.247399 259.2 
L 57.6 257.623647 
L 57.6 259.2 
L 57.6 261.888 
L 57.6 264.576 
L 57.6 267.264 
L 57.6 269.952 
L 57.6 272.64 
L 57.6 275.328 
L 57.6 278.016 
L 57.6 280.704 
L 57.6 283.392 
L 57.6 286.08 
L 57.6 287.823134 
L 58.606382 288.768 
L 61.207273 291.210035 
L 61.469817 291.456 
L 64.341852 294.144 
L 64.814545 294.586173 
L 67.220681 296.832 
L 68.421818 297.95317 
L 70.104109 299.52 
L 72.029091 301.312958 
L 72.992165 302.208 
L 75.636364 304.665536 
L 75.884882 304.896 
L 78.78622 307.584 
z
" style="fill:#84d44b;"/>
   </g>
   <g id="PathCollection_8">
    <path clip-path="url(#pcfb4c7967f)" d="M 61.207273 307.584 
L 64.814545 307.584 
L 68.421818 307.584 
L 72.029091 307.584 
L 75.636364 307.584 
L 78.78622 307.584 
L 75.884882 304.896 
L 75.636364 304.665536 
L 72.992165 302.208 
L 72.029091 301.312958 
L 70.104109 299.52 
L 68.421818 297.95317 
L 67.220681 296.832 
L 64.814545 294.586173 
L 64.341852 294.144 
L 61.469817 291.456 
L 61.207273 291.210035 
L 58.606382 288.768 
L 57.6 287.823134 
L 57.6 288.768 
L 57.6 291.456 
L 57.6 294.144 
L 57.6 296.832 
L 57.6 299.52 
L 57.6 302.208 
L 57.6 304.896 
L 57.6 307.584 
z
" style="fill:#d8e219;"/>
   </g>
   <g id="matplotlib.axis_1">
    <g id="xtick_1">
     <g id="line2d_1">
      <defs>
       <path d="M 0 0 
L 0 3.5 
" id="m47991132dc" style="stroke:#000000;stroke-width:0.8;"/>
      </defs>
      <g>
       <use style="stroke:#000000;stroke-width:0.8;" x="93.672727" xlink:href="#m47991132dc" y="307.584"/>
      </g>
     </g>
     <g id="text_1">
      <!-- −0.4 -->
      <defs>
       <path d="M 10.59375 35.5 
L 73.1875 35.5 
L 73.1875 27.203125 
L 10.59375 27.203125 
z
" id="DejaVuSans-8722"/>
       <path d="M 31.78125 66.40625 
Q 24.171875 66.40625 20.328125 58.90625 
Q 16.5 51.421875 16.5 36.375 
Q 16.5 21.390625 20.328125 13.890625 
Q 24.171875 6.390625 31.78125 6.390625 
Q 39.453125 6.390625 43.28125 13.890625 
Q 47.125 21.390625 47.125 36.375 
Q 47.125 51.421875 43.28125 58.90625 
Q 39.453125 66.40625 31.78125 66.40625 
z
M 31.78125 74.21875 
Q 44.046875 74.21875 50.515625 64.515625 
Q 56.984375 54.828125 56.984375 36.375 
Q 56.984375 17.96875 50.515625 8.265625 
Q 44.046875 -1.421875 31.78125 -1.421875 
Q 19.53125 -1.421875 13.0625 8.265625 
Q 6.59375 17.96875 6.59375 36.375 
Q 6.59375 54.828125 13.0625 64.515625 
Q 19.53125 74.21875 31.78125 74.21875 
z
" id="DejaVuSans-48"/>
       <path d="M 10.6875 12.40625 
L 21 12.40625 
L 21 0 
L 10.6875 0 
z
" id="DejaVuSans-46"/>
       <path d="M 37.796875 64.3125 
L 12.890625 25.390625 
L 37.796875 25.390625 
z
M 35.203125 72.90625 
L 47.609375 72.90625 
L 47.609375 25.390625 
L 58.015625 25.390625 
L 58.015625 17.1875 
L 47.609375 17.1875 
L 47.609375 0 
L 37.796875 0 
L 37.796875 17.1875 
L 4.890625 17.1875 
L 4.890625 26.703125 
z
" id="DejaVuSans-52"/>
      </defs>
      <g transform="translate(81.531321 322.182437)scale(0.1 -0.1)">
       <use xlink:href="#DejaVuSans-8722"/>
       <use x="83.789062" xlink:href="#DejaVuSans-48"/>
       <use x="147.412109" xlink:href="#DejaVuSans-46"/>
       <use x="179.199219" xlink:href="#DejaVuSans-52"/>
      </g>
     </g>
    </g>
    <g id="xtick_2">
     <g id="line2d_2">
      <g>
       <use style="stroke:#000000;stroke-width:0.8;" x="165.818182" xlink:href="#m47991132dc" y="307.584"/>
      </g>
     </g>
     <g id="text_2">
      <!-- −0.2 -->
      <defs>
       <path d="M 19.1875 8.296875 
L 53.609375 8.296875 
L 53.609375 0 
L 7.328125 0 
L 7.328125 8.296875 
Q 12.9375 14.109375 22.625 23.890625 
Q 32.328125 33.6875 34.8125 36.53125 
Q 39.546875 41.84375 41.421875 45.53125 
Q 43.3125 49.21875 43.3125 52.78125 
Q 43.3125 58.59375 39.234375 62.25 
Q 35.15625 65.921875 28.609375 65.921875 
Q 23.96875 65.921875 18.8125 64.3125 
Q 13.671875 62.703125 7.8125 59.421875 
L 7.8125 69.390625 
Q 13.765625 71.78125 18.9375 73 
Q 24.125 74.21875 28.421875 74.21875 
Q 39.75 74.21875 46.484375 68.546875 
Q 53.21875 62.890625 53.21875 53.421875 
Q 53.21875 48.921875 51.53125 44.890625 
Q 49.859375 40.875 45.40625 35.40625 
Q 44.1875 33.984375 37.640625 27.21875 
Q 31.109375 20.453125 19.1875 8.296875 
z
" id="DejaVuSans-50"/>
      </defs>
      <g transform="translate(153.676776 322.182437)scale(0.1 -0.1)">
       <use xlink:href="#DejaVuSans-8722"/>
       <use x="83.789062" xlink:href="#DejaVuSans-48"/>
       <use x="147.412109" xlink:href="#DejaVuSans-46"/>
       <use x="179.199219" xlink:href="#DejaVuSans-50"/>
      </g>
     </g>
    </g>
    <g id="xtick_3">
     <g id="line2d_3">
      <g>
       <use style="stroke:#000000;stroke-width:0.8;" x="237.963636" xlink:href="#m47991132dc" y="307.584"/>
      </g>
     </g>
     <g id="text_3">
      <!-- 0.0 -->
      <g transform="translate(230.012074 322.182437)scale(0.1 -0.1)">
       <use xlink:href="#DejaVuSans-48"/>
       <use x="63.623047" xlink:href="#DejaVuSans-46"/>
       <use x="95.410156" xlink:href="#DejaVuSans-48"/>
      </g>
     </g>
    </g>
    <g id="xtick_4">
     <g id="line2d_4">
      <g>
       <use style="stroke:#000000;stroke-width:0.8;" x="310.109091" xlink:href="#m47991132dc" y="307.584"/>
      </g>
     </g>
     <g id="text_4">
      <!-- 0.2 -->
      <g transform="translate(302.157528 322.182437)scale(0.1 -0.1)">
       <use xlink:href="#DejaVuSans-48"/>
       <use x="63.623047" xlink:href="#DejaVuSans-46"/>
       <use x="95.410156" xlink:href="#DejaVuSans-50"/>
      </g>
     </g>
    </g>
    <g id="xtick_5">
     <g id="line2d_5">
      <g>
       <use style="stroke:#000000;stroke-width:0.8;" x="382.254545" xlink:href="#m47991132dc" y="307.584"/>
      </g>
     </g>
     <g id="text_5">
      <!-- 0.4 -->
      <g transform="translate(374.302983 322.182437)scale(0.1 -0.1)">
       <use xlink:href="#DejaVuSans-48"/>
       <use x="63.623047" xlink:href="#DejaVuSans-46"/>
       <use x="95.410156" xlink:href="#DejaVuSans-52"/>
      </g>
     </g>
    </g>
    <g id="text_6">
     <!-- v_0 (m/s) -->
     <defs>
      <path d="M 2.984375 54.6875 
L 12.5 54.6875 
L 29.59375 8.796875 
L 46.6875 54.6875 
L 56.203125 54.6875 
L 35.6875 0 
L 23.484375 0 
z
" id="DejaVuSans-118"/>
      <path d="M 50.984375 -16.609375 
L 50.984375 -23.578125 
L -0.984375 -23.578125 
L -0.984375 -16.609375 
z
" id="DejaVuSans-95"/>
      <path id="DejaVuSans-32"/>
      <path d="M 31 75.875 
Q 24.46875 64.65625 21.28125 53.65625 
Q 18.109375 42.671875 18.109375 31.390625 
Q 18.109375 20.125 21.3125 9.0625 
Q 24.515625 -2 31 -13.1875 
L 23.1875 -13.1875 
Q 15.875 -1.703125 12.234375 9.375 
Q 8.59375 20.453125 8.59375 31.390625 
Q 8.59375 42.28125 12.203125 53.3125 
Q 15.828125 64.359375 23.1875 75.875 
z
" id="DejaVuSans-40"/>
      <path d="M 52 44.1875 
Q 55.375 50.25 60.0625 53.125 
Q 64.75 56 71.09375 56 
Q 79.640625 56 84.28125 50.015625 
Q 88.921875 44.046875 88.921875 33.015625 
L 88.921875 0 
L 79.890625 0 
L 79.890625 32.71875 
Q 79.890625 40.578125 77.09375 44.375 
Q 74.3125 48.1875 68.609375 48.1875 
Q 61.625 48.1875 57.5625 43.546875 
Q 53.515625 38.921875 53.515625 30.90625 
L 53.515625 0 
L 44.484375 0 
L 44.484375 32.71875 
Q 44.484375 40.625 41.703125 44.40625 
Q 38.921875 48.1875 33.109375 48.1875 
Q 26.21875 48.1875 22.15625 43.53125 
Q 18.109375 38.875 18.109375 30.90625 
L 18.109375 0 
L 9.078125 0 
L 9.078125 54.6875 
L 18.109375 54.6875 
L 18.109375 46.1875 
Q 21.1875 51.21875 25.484375 53.609375 
Q 29.78125 56 35.6875 56 
Q 41.65625 56 45.828125 52.96875 
Q 50 49.953125 52 44.1875 
z
" id="DejaVuSans-109"/>
      <path d="M 25.390625 72.90625 
L 33.6875 72.90625 
L 8.296875 -9.28125 
L 0 -9.28125 
z
" id="DejaVuSans-47"/>
      <path d="M 44.28125 53.078125 
L 44.28125 44.578125 
Q 40.484375 46.53125 36.375 47.5 
Q 32.28125 48.484375 27.875 48.484375 
Q 21.1875 48.484375 17.84375 46.4375 
Q 14.5 44.390625 14.5 40.28125 
Q 14.5 37.15625 16.890625 35.375 
Q 19.28125 33.59375 26.515625 31.984375 
L 29.59375 31.296875 
Q 39.15625 29.25 43.1875 25.515625 
Q 47.21875 21.78125 47.21875 15.09375 
Q 47.21875 7.46875 41.1875 3.015625 
Q 35.15625 -1.421875 24.609375 -1.421875 
Q 20.21875 -1.421875 15.453125 -0.5625 
Q 10.6875 0.296875 5.421875 2 
L 5.421875 11.28125 
Q 10.40625 8.6875 15.234375 7.390625 
Q 20.0625 6.109375 24.8125 6.109375 
Q 31.15625 6.109375 34.5625 8.28125 
Q 37.984375 10.453125 37.984375 14.40625 
Q 37.984375 18.0625 35.515625 20.015625 
Q 33.0625 21.96875 24.703125 23.78125 
L 21.578125 24.515625 
Q 13.234375 26.265625 9.515625 29.90625 
Q 5.8125 33.546875 5.8125 39.890625 
Q 5.8125 47.609375 11.28125 51.796875 
Q 16.75 56 26.8125 56 
Q 31.78125 56 36.171875 55.265625 
Q 40.578125 54.546875 44.28125 53.078125 
z
" id="DejaVuSans-115"/>
      <path d="M 8.015625 75.875 
L 15.828125 75.875 
Q 23.140625 64.359375 26.78125 53.3125 
Q 30.421875 42.28125 30.421875 31.390625 
Q 30.421875 20.453125 26.78125 9.375 
Q 23.140625 -1.703125 15.828125 -13.1875 
L 8.015625 -13.1875 
Q 14.5 -2 17.703125 9.0625 
Q 20.90625 20.125 20.90625 31.390625 
Q 20.90625 42.671875 17.703125 53.65625 
Q 14.5 64.65625 8.015625 75.875 
z
" id="DejaVuSans-41"/>
     </defs>
     <g transform="translate(212.869375 335.849625)scale(0.1 -0.1)">
      <use xlink:href="#DejaVuSans-118"/>
      <use x="59.179688" xlink:href="#DejaVuSans-95"/>
      <use x="109.179688" xlink:href="#DejaVuSans-48"/>
      <use x="172.802734" xlink:href="#DejaVuSans-32"/>
      <use x="204.589844" xlink:href="#DejaVuSans-40"/>
      <use x="243.603516" xlink:href="#DejaVuSans-109"/>
      <use x="341.015625" xlink:href="#DejaVuSans-47"/>
      <use x="374.707031" xlink:href="#DejaVuSans-115"/>
      <use x="426.806641" xlink:href="#DejaVuSans-41"/>
     </g>
    </g>
   </g>
   <g id="matplotlib.axis_2">
    <g id="ytick_1">
     <g id="line2d_6">
      <defs>
       <path d="M 0 0 
L -3.5 0 
" id="m980aca857d" style="stroke:#000000;stroke-width:0.8;"/>
      </defs>
      <g>
       <use style="stroke:#000000;stroke-width:0.8;" x="57.6" xlink:href="#m980aca857d" y="280.704"/>
      </g>
     </g>
     <g id="text_7">
      <!-- −0.4 -->
      <g transform="translate(26.317187 284.503219)scale(0.1 -0.1)">
       <use xlink:href="#DejaVuSans-8722"/>
       <use x="83.789062" xlink:href="#DejaVuSans-48"/>
       <use x="147.412109" xlink:href="#DejaVuSans-46"/>
       <use x="179.199219" xlink:href="#DejaVuSans-52"/>
      </g>
     </g>
    </g>
    <g id="ytick_2">
     <g id="line2d_7">
      <g>
       <use style="stroke:#000000;stroke-width:0.8;" x="57.6" xlink:href="#m980aca857d" y="226.944"/>
      </g>
     </g>
     <g id="text_8">
      <!-- −0.2 -->
      <g transform="translate(26.317187 230.743219)scale(0.1 -0.1)">
       <use xlink:href="#DejaVuSans-8722"/>
       <use x="83.789062" xlink:href="#DejaVuSans-48"/>
       <use x="147.412109" xlink:href="#DejaVuSans-46"/>
       <use x="179.199219" xlink:href="#DejaVuSans-50"/>
      </g>
     </g>
    </g>
    <g id="ytick_3">
     <g id="line2d_8">
      <g>
       <use style="stroke:#000000;stroke-width:0.8;" x="57.6" xlink:href="#m980aca857d" y="173.184"/>
      </g>
     </g>
     <g id="text_9">
      <!-- 0.0 -->
      <g transform="translate(34.696875 176.983219)scale(0.1 -0.1)">
       <use xlink:href="#DejaVuSans-48"/>
       <use x="63.623047" xlink:href="#DejaVuSans-46"/>
       <use x="95.410156" xlink:href="#DejaVuSans-48"/>
      </g>
     </g>
    </g>
    <g id="ytick_4">
     <g id="line2d_9">
      <g>
       <use style="stroke:#000000;stroke-width:0.8;" x="57.6" xlink:href="#m980aca857d" y="119.424"/>
      </g>
     </g>
     <g id="text_10">
      <!-- 0.2 -->
      <g transform="translate(34.696875 123.223219)scale(0.1 -0.1)">
       <use xlink:href="#DejaVuSans-48"/>
       <use x="63.623047" xlink:href="#DejaVuSans-46"/>
       <use x="95.410156" xlink:href="#DejaVuSans-50"/>
      </g>
     </g>
    </g>
    <g id="ytick_5">
     <g id="line2d_10">
      <g>
       <use style="stroke:#000000;stroke-width:0.8;" x="57.6" xlink:href="#m980aca857d" y="65.664"/>
      </g>
     </g>
     <g id="text_11">
      <!-- 0.4 -->
      <g transform="translate(34.696875 69.463219)scale(0.1 -0.1)">
       <use xlink:href="#DejaVuSans-48"/>
       <use x="63.623047" xlink:href="#DejaVuSans-46"/>
       <use x="95.410156" xlink:href="#DejaVuSans-52"/>
      </g>
     </g>
    </g>
    <g id="text_12">
     <!-- f (m/s^2) -->
     <defs>
      <path d="M 37.109375 75.984375 
L 37.109375 68.5 
L 28.515625 68.5 
Q 23.6875 68.5 21.796875 66.546875 
Q 19.921875 64.59375 19.921875 59.515625 
L 19.921875 54.6875 
L 34.71875 54.6875 
L 34.71875 47.703125 
L 19.921875 47.703125 
L 19.921875 0 
L 10.890625 0 
L 10.890625 47.703125 
L 2.296875 47.703125 
L 2.296875 54.6875 
L 10.890625 54.6875 
L 10.890625 58.5 
Q 10.890625 67.625 15.140625 71.796875 
Q 19.390625 75.984375 28.609375 75.984375 
z
" id="DejaVuSans-102"/>
      <path d="M 46.6875 72.90625 
L 73.1875 45.703125 
L 63.375 45.703125 
L 41.890625 64.984375 
L 20.40625 45.703125 
L 10.59375 45.703125 
L 37.109375 72.90625 
z
" id="DejaVuSans-94"/>
     </defs>
     <g transform="translate(20.2375 198.30925)rotate(-90)scale(0.1 -0.1)">
      <use xlink:href="#DejaVuSans-102"/>
      <use x="35.205078" xlink:href="#DejaVuSans-32"/>
      <use x="66.992188" xlink:href="#DejaVuSans-40"/>
      <use x="106.005859" xlink:href="#DejaVuSans-109"/>
      <use x="203.417969" xlink:href="#DejaVuSans-47"/>
      <use x="237.109375" xlink:href="#DejaVuSans-115"/>
      <use x="289.208984" xlink:href="#DejaVuSans-94"/>
      <use x="372.998047" xlink:href="#DejaVuSans-50"/>
      <use x="436.621094" xlink:href="#DejaVuSans-41"/>
     </g>
    </g>
   </g>
   <g id="line2d_11">
    <path clip-path="url(#pcfb4c7967f)" d="M 237.963636 173.184 
L 238.40342 172.757831 
L 239.035795 172.499056 
L 239.475166 172.072651 
L 242.03019 171.118018 
L 242.736283 171.007672 
L 243.998301 170.48644 
L 245.361481 170.135625 
L 247.302159 169.429678 
L 247.751408 169.009027 
L 249.067211 168.576183 
L 249.731833 168.367041 
L 252.691322 166.85444 
L 253.369509 166.671064 
L 253.789333 166.233861 
L 254.445899 166.011037 
L 255.149559 165.892373 
L 256.091988 165.082388 
L 257.024056 164.263152 
L 257.453596 163.831221 
L 260.077307 162.971375 
L 260.626714 162.622938 
L 261.273213 162.384329 
L 262.66109 161.151366 
L 263.341488 160.972597 
L 265.103889 160.039624 
L 266.014956 159.20804 
L 266.713908 159.074817 
L 267.32214 158.78569 
L 268.032316 158.691001 
L 269.752876 157.715974 
L 271.907374 156.345403 
L 272.618846 156.256281 
L 273.120808 155.870138 
L 273.711398 155.561368 
L 274.416166 155.446414 
L 275.025932 155.159085 
L 276.474353 153.965263 
L 277.100617 153.698363 
L 278.499836 153.454397 
L 279.051831 153.10824 
L 279.750952 152.975511 
L 280.24852 152.586224 
L 280.878137 152.323741 
L 281.400931 151.953266 
L 282.086059 151.784826 
L 283.280699 151.181847 
L 283.951726 150.984388 
L 284.473988 150.613496 
L 285.185962 150.526627 
L 285.700101 150.149486 
L 286.980172 149.656071 
L 287.992694 148.89416 
L 288.649617 148.67192 
L 289.361987 148.586876 
L 290.581366 148.01323 
L 291.299684 147.963158 
L 291.968085 147.760813 
L 292.68022 147.674681 
L 295.10769 146.590434 
L 297.832298 145.910485 
L 298.349205 145.535451 
L 301.724011 144.793489 
L 303.821855 144.525721 
L 304.473032 144.294283 
L 305.882302 144.068021 
L 307.702289 143.199313 
L 308.989401 142.714642 
L 310.42641 142.642039 
L 311.050419 142.372223 
L 312.429967 142.062778 
L 313.857163 142.218763 
L 315.289063 142.096693 
L 317.381593 142.431124 
L 319.529568 142.234971 
L 320.846482 142.673697 
L 321.567066 142.700097 
L 322.226301 142.918501 
L 324.356044 143.09636 
L 325.558478 143.681892 
L 326.072968 144.058768 
L 327.468149 144.310494 
L 328.182476 144.385873 
L 329.500616 144.817721 
L 329.936354 145.246191 
L 330.597152 145.461957 
L 331.026746 145.893858 
L 332.090609 146.613044 
L 332.52366 147.043025 
L 333.168015 147.284833 
L 334.813188 148.33059 
L 335.273792 148.744367 
L 335.615242 149.217945 
L 336.148387 149.580137 
L 336.790152 149.825741 
L 337.322701 150.18842 
L 338.013903 151.130693 
L 338.625428 151.41594 
L 339.021319 151.865369 
L 340.235573 152.438016 
L 342.192099 153.994063 
L 343.020473 154.869815 
L 343.664924 155.111481 
L 344.135853 155.518753 
L 344.896613 156.430103 
L 345.462555 156.763521 
L 346.183986 157.694681 
L 347.023189 158.565784 
L 347.659 158.81984 
L 347.95189 159.311145 
L 349.563406 160.367018 
L 349.944267 160.823603 
L 350.455423 161.202989 
L 350.862699 161.646734 
L 351.547073 162.589686 
L 352.642404 163.289253 
L 353.006538 163.753354 
L 353.639195 164.011745 
L 353.966116 164.490983 
L 354.956027 165.270956 
L 355.50727 165.617778 
L 356.308595 166.50927 
L 357.185019 167.359698 
L 358.413609 167.923134 
L 358.591371 168.444159 
L 359.19194 168.742051 
L 359.663576 169.148867 
L 360.259497 169.451898 
L 360.677287 169.890182 
L 360.834789 170.414815 
L 361.919233 171.123613 
L 362.13357 171.63694 
L 363.172567 172.382751 
L 363.404589 172.891791 
L 363.839862 173.320524 
L 364.382897 173.674464 
L 364.724638 174.147925 
L 365.953901 174.707098 
L 366.766245 175.594396 
L 367.945859 176.213447 
L 368.32469 176.670969 
L 368.886441 177.0083 
L 369.685331 178.498486 
L 370.602176 179.328623 
L 371.146169 179.681744 
L 371.56192 180.121104 
L 372.581943 180.880855 
L 373.055489 181.896276 
L 373.586481 182.26022 
L 373.898682 182.744877 
L 374.558869 182.961679 
L 375.2336 183.909365 
L 375.632552 184.357289 
L 377.344908 185.304133 
L 378.078358 186.229846 
L 378.74931 186.427448 
L 379.091745 186.900631 
L 380.279883 187.505396 
L 380.58155 187.993744 
L 381.670922 188.698092 
L 381.822835 189.223639 
L 382.437445 189.505178 
L 383.326692 190.348267 
L 383.515624 190.867106 
L 384.14199 191.133871 
L 384.566217 191.568708 
L 385.600268 192.317814 
L 385.824466 192.828796 
L 386.355038 193.193081 
L 386.659741 193.68038 
L 387.313252 193.908136 
L 387.871903 194.248313 
L 388.268062 194.697612 
L 388.464659 195.214867 
L 389.053169 195.525835 
L 389.376712 196.006343 
L 390.507653 196.671386 
L 390.580625 197.206229 
L 391.028442 197.627727 
L 391.673386 197.868663 
L 391.839543 198.391811 
L 392.236949 198.840498 
L 392.951151 198.916532 
L 393.150293 199.433246 
L 394.126996 200.224571 
L 394.126996 200.224571 
" style="fill:none;stroke:#1f77b4;stroke-linecap:square;stroke-width:1.5;"/>
    <defs>
     <path d="M 0 1.25 
C 0.331504 1.25 0.649475 1.118292 0.883883 0.883883 
C 1.118292 0.649475 1.25 0.331504 1.25 0 
C 1.25 -0.331504 1.118292 -0.649475 0.883883 -0.883883 
C 0.649475 -1.118292 0.331504 -1.25 0 -1.25 
C -0.331504 -1.25 -0.649475 -1.118292 -0.883883 -0.883883 
C -1.118292 -0.649475 -1.25 -0.331504 -1.25 0 
C -1.25 0.331504 -1.118292 0.649475 -0.883883 0.883883 
C -0.649475 1.118292 -0.331504 1.25 0 1.25 
z
" id="m277b11d2b6" style="stroke:#1f77b4;"/>
    </defs>
    <g clip-path="url(#pcfb4c7967f)">
     <use style="fill:#1f77b4;stroke:#1f77b4;" x="237.963636" xlink:href="#m277b11d2b6" y="173.184"/>
     <use style="fill:#1f77b4;stroke:#1f77b4;" x="238.40342" xlink:href="#m277b11d2b6" y="172.757831"/>
     <use style="fill:#1f77b4;stroke:#1f77b4;" x="239.035795" xlink:href="#m277b11d2b6" y="172.499056"/>
     <use style="fill:#1f77b4;stroke:#1f77b4;" x="239.475166" xlink:href="#m277b11d2b6" y="172.072651"/>
     <use style="fill:#1f77b4;stroke:#1f77b4;" x="240.106258" xlink:href="#m277b11d2b6" y="171.812143"/>
     <use style="fill:#1f77b4;stroke:#1f77b4;" x="240.670833" xlink:href="#m277b11d2b6" y="171.47744"/>
     <use style="fill:#1f77b4;stroke:#1f77b4;" x="241.344074" xlink:href="#m277b11d2b6" y="171.284211"/>
     <use style="fill:#1f77b4;stroke:#1f77b4;" x="242.03019" xlink:href="#m277b11d2b6" y="171.118018"/>
     <use style="fill:#1f77b4;stroke:#1f77b4;" x="242.736283" xlink:href="#m277b11d2b6" y="171.007672"/>
     <use style="fill:#1f77b4;stroke:#1f77b4;" x="243.368163" xlink:href="#m277b11d2b6" y="170.748226"/>
     <use style="fill:#1f77b4;stroke:#1f77b4;" x="243.998301" xlink:href="#m277b11d2b6" y="170.48644"/>
     <use style="fill:#1f77b4;stroke:#1f77b4;" x="244.687344" xlink:href="#m277b11d2b6" y="170.327113"/>
     <use style="fill:#1f77b4;stroke:#1f77b4;" x="245.361481" xlink:href="#m277b11d2b6" y="170.135625"/>
     <use style="fill:#1f77b4;stroke:#1f77b4;" x="246.010206" xlink:href="#m277b11d2b6" y="169.900395"/>
     <use style="fill:#1f77b4;stroke:#1f77b4;" x="246.630381" xlink:href="#m277b11d2b6" y="169.625715"/>
     <use style="fill:#1f77b4;stroke:#1f77b4;" x="247.302159" xlink:href="#m277b11d2b6" y="169.429678"/>
     <use style="fill:#1f77b4;stroke:#1f77b4;" x="247.751408" xlink:href="#m277b11d2b6" y="169.009027"/>
     <use style="fill:#1f77b4;stroke:#1f77b4;" x="248.386076" xlink:href="#m277b11d2b6" y="168.753389"/>
     <use style="fill:#1f77b4;stroke:#1f77b4;" x="249.067211" xlink:href="#m277b11d2b6" y="168.576183"/>
     <use style="fill:#1f77b4;stroke:#1f77b4;" x="249.731833" xlink:href="#m277b11d2b6" y="168.367041"/>
     <use style="fill:#1f77b4;stroke:#1f77b4;" x="250.323379" xlink:href="#m277b11d2b6" y="168.059289"/>
     <use style="fill:#1f77b4;stroke:#1f77b4;" x="250.829271" xlink:href="#m277b11d2b6" y="167.676005"/>
     <use style="fill:#1f77b4;stroke:#1f77b4;" x="251.442472" xlink:href="#m277b11d2b6" y="167.392764"/>
     <use style="fill:#1f77b4;stroke:#1f77b4;" x="252.061525" xlink:href="#m277b11d2b6" y="167.116682"/>
     <use style="fill:#1f77b4;stroke:#1f77b4;" x="252.691322" xlink:href="#m277b11d2b6" y="166.85444"/>
     <use style="fill:#1f77b4;stroke:#1f77b4;" x="253.369509" xlink:href="#m277b11d2b6" y="166.671064"/>
     <use style="fill:#1f77b4;stroke:#1f77b4;" x="253.789333" xlink:href="#m277b11d2b6" y="166.233861"/>
     <use style="fill:#1f77b4;stroke:#1f77b4;" x="254.445899" xlink:href="#m277b11d2b6" y="166.011037"/>
     <use style="fill:#1f77b4;stroke:#1f77b4;" x="255.149559" xlink:href="#m277b11d2b6" y="165.892373"/>
     <use style="fill:#1f77b4;stroke:#1f77b4;" x="255.578945" xlink:href="#m277b11d2b6" y="165.460357"/>
     <use style="fill:#1f77b4;stroke:#1f77b4;" x="256.091988" xlink:href="#m277b11d2b6" y="165.082388"/>
     <use style="fill:#1f77b4;stroke:#1f77b4;" x="256.583722" xlink:href="#m277b11d2b6" y="164.689006"/>
     <use style="fill:#1f77b4;stroke:#1f77b4;" x="257.024056" xlink:href="#m277b11d2b6" y="164.263152"/>
     <use style="fill:#1f77b4;stroke:#1f77b4;" x="257.453596" xlink:href="#m277b11d2b6" y="163.831221"/>
     <use style="fill:#1f77b4;stroke:#1f77b4;" x="258.113612" xlink:href="#m277b11d2b6" y="163.614131"/>
     <use style="fill:#1f77b4;stroke:#1f77b4;" x="258.770886" xlink:href="#m277b11d2b6" y="163.392468"/>
     <use style="fill:#1f77b4;stroke:#1f77b4;" x="259.37716" xlink:href="#m277b11d2b6" y="163.101065"/>
     <use style="fill:#1f77b4;stroke:#1f77b4;" x="260.077307" xlink:href="#m277b11d2b6" y="162.971375"/>
     <use style="fill:#1f77b4;stroke:#1f77b4;" x="260.626714" xlink:href="#m277b11d2b6" y="162.622938"/>
     <use style="fill:#1f77b4;stroke:#1f77b4;" x="261.273213" xlink:href="#m277b11d2b6" y="162.384329"/>
     <use style="fill:#1f77b4;stroke:#1f77b4;" x="261.740726" xlink:href="#m277b11d2b6" y="161.974877"/>
     <use style="fill:#1f77b4;stroke:#1f77b4;" x="262.156148" xlink:href="#m277b11d2b6" y="161.535345"/>
     <use style="fill:#1f77b4;stroke:#1f77b4;" x="262.66109" xlink:href="#m277b11d2b6" y="161.151366"/>
     <use style="fill:#1f77b4;stroke:#1f77b4;" x="263.341488" xlink:href="#m277b11d2b6" y="160.972597"/>
     <use style="fill:#1f77b4;stroke:#1f77b4;" x="263.941924" xlink:href="#m277b11d2b6" y="160.674557"/>
     <use style="fill:#1f77b4;stroke:#1f77b4;" x="264.500405" xlink:href="#m277b11d2b6" y="160.334225"/>
     <use style="fill:#1f77b4;stroke:#1f77b4;" x="265.103889" xlink:href="#m277b11d2b6" y="160.039624"/>
     <use style="fill:#1f77b4;stroke:#1f77b4;" x="265.528112" xlink:href="#m277b11d2b6" y="159.604785"/>
     <use style="fill:#1f77b4;stroke:#1f77b4;" x="266.014956" xlink:href="#m277b11d2b6" y="159.20804"/>
     <use style="fill:#1f77b4;stroke:#1f77b4;" x="266.713908" xlink:href="#m277b11d2b6" y="159.074817"/>
     <use style="fill:#1f77b4;stroke:#1f77b4;" x="267.32214" xlink:href="#m277b11d2b6" y="158.78569"/>
     <use style="fill:#1f77b4;stroke:#1f77b4;" x="268.032316" xlink:href="#m277b11d2b6" y="158.691001"/>
     <use style="fill:#1f77b4;stroke:#1f77b4;" x="268.633394" xlink:href="#m277b11d2b6" y="158.393681"/>
     <use style="fill:#1f77b4;stroke:#1f77b4;" x="269.205749" xlink:href="#m277b11d2b6" y="158.066397"/>
     <use style="fill:#1f77b4;stroke:#1f77b4;" x="269.752876" xlink:href="#m277b11d2b6" y="157.715974"/>
     <use style="fill:#1f77b4;stroke:#1f77b4;" x="270.312893" xlink:href="#m277b11d2b6" y="157.377047"/>
     <use style="fill:#1f77b4;stroke:#1f77b4;" x="270.784872" xlink:href="#m277b11d2b6" y="156.970451"/>
     <use style="fill:#1f77b4;stroke:#1f77b4;" x="271.449099" xlink:href="#m277b11d2b6" y="156.760613"/>
     <use style="fill:#1f77b4;stroke:#1f77b4;" x="271.907374" xlink:href="#m277b11d2b6" y="156.345403"/>
     <use style="fill:#1f77b4;stroke:#1f77b4;" x="272.618846" xlink:href="#m277b11d2b6" y="156.256281"/>
     <use style="fill:#1f77b4;stroke:#1f77b4;" x="273.120808" xlink:href="#m277b11d2b6" y="155.870138"/>
     <use style="fill:#1f77b4;stroke:#1f77b4;" x="273.711398" xlink:href="#m277b11d2b6" y="155.561368"/>
     <use style="fill:#1f77b4;stroke:#1f77b4;" x="274.416166" xlink:href="#m277b11d2b6" y="155.446414"/>
     <use style="fill:#1f77b4;stroke:#1f77b4;" x="275.025932" xlink:href="#m277b11d2b6" y="155.159085"/>
     <use style="fill:#1f77b4;stroke:#1f77b4;" x="275.478931" xlink:href="#m277b11d2b6" y="154.740672"/>
     <use style="fill:#1f77b4;stroke:#1f77b4;" x="275.943749" xlink:href="#m277b11d2b6" y="154.329521"/>
     <use style="fill:#1f77b4;stroke:#1f77b4;" x="276.474353" xlink:href="#m277b11d2b6" y="153.965263"/>
     <use style="fill:#1f77b4;stroke:#1f77b4;" x="277.100617" xlink:href="#m277b11d2b6" y="153.698363"/>
     <use style="fill:#1f77b4;stroke:#1f77b4;" x="277.815071" xlink:href="#m277b11d2b6" y="153.623656"/>
     <use style="fill:#1f77b4;stroke:#1f77b4;" x="278.499836" xlink:href="#m277b11d2b6" y="153.454397"/>
     <use style="fill:#1f77b4;stroke:#1f77b4;" x="279.051831" xlink:href="#m277b11d2b6" y="153.10824"/>
     <use style="fill:#1f77b4;stroke:#1f77b4;" x="279.750952" xlink:href="#m277b11d2b6" y="152.975511"/>
     <use style="fill:#1f77b4;stroke:#1f77b4;" x="280.24852" xlink:href="#m277b11d2b6" y="152.586224"/>
     <use style="fill:#1f77b4;stroke:#1f77b4;" x="280.878137" xlink:href="#m277b11d2b6" y="152.323741"/>
     <use style="fill:#1f77b4;stroke:#1f77b4;" x="281.400931" xlink:href="#m277b11d2b6" y="151.953266"/>
     <use style="fill:#1f77b4;stroke:#1f77b4;" x="282.086059" xlink:href="#m277b11d2b6" y="151.784826"/>
     <use style="fill:#1f77b4;stroke:#1f77b4;" x="282.681832" xlink:href="#m277b11d2b6" y="151.481635"/>
     <use style="fill:#1f77b4;stroke:#1f77b4;" x="283.280699" xlink:href="#m277b11d2b6" y="151.181847"/>
     <use style="fill:#1f77b4;stroke:#1f77b4;" x="283.951726" xlink:href="#m277b11d2b6" y="150.984388"/>
     <use style="fill:#1f77b4;stroke:#1f77b4;" x="284.473988" xlink:href="#m277b11d2b6" y="150.613496"/>
     <use style="fill:#1f77b4;stroke:#1f77b4;" x="285.185962" xlink:href="#m277b11d2b6" y="150.526627"/>
     <use style="fill:#1f77b4;stroke:#1f77b4;" x="285.700101" xlink:href="#m277b11d2b6" y="150.149486"/>
     <use style="fill:#1f77b4;stroke:#1f77b4;" x="286.3563" xlink:href="#m277b11d2b6" y="149.926062"/>
     <use style="fill:#1f77b4;stroke:#1f77b4;" x="286.980172" xlink:href="#m277b11d2b6" y="149.656071"/>
     <use style="fill:#1f77b4;stroke:#1f77b4;" x="287.448625" xlink:href="#m277b11d2b6" y="149.247217"/>
     <use style="fill:#1f77b4;stroke:#1f77b4;" x="287.992694" xlink:href="#m277b11d2b6" y="148.89416"/>
     <use style="fill:#1f77b4;stroke:#1f77b4;" x="288.649617" xlink:href="#m277b11d2b6" y="148.67192"/>
     <use style="fill:#1f77b4;stroke:#1f77b4;" x="289.361987" xlink:href="#m277b11d2b6" y="148.586876"/>
     <use style="fill:#1f77b4;stroke:#1f77b4;" x="289.958417" xlink:href="#m277b11d2b6" y="148.284403"/>
     <use style="fill:#1f77b4;stroke:#1f77b4;" x="290.581366" xlink:href="#m277b11d2b6" y="148.01323"/>
     <use style="fill:#1f77b4;stroke:#1f77b4;" x="291.299684" xlink:href="#m277b11d2b6" y="147.963158"/>
     <use style="fill:#1f77b4;stroke:#1f77b4;" x="291.968085" xlink:href="#m277b11d2b6" y="147.760813"/>
     <use style="fill:#1f77b4;stroke:#1f77b4;" x="292.68022" xlink:href="#m277b11d2b6" y="147.674681"/>
     <use style="fill:#1f77b4;stroke:#1f77b4;" x="293.293675" xlink:href="#m277b11d2b6" y="147.391747"/>
     <use style="fill:#1f77b4;stroke:#1f77b4;" x="293.824272" xlink:href="#m277b11d2b6" y="147.027483"/>
     <use style="fill:#1f77b4;stroke:#1f77b4;" x="294.528613" xlink:href="#m277b11d2b6" y="146.911085"/>
     <use style="fill:#1f77b4;stroke:#1f77b4;" x="295.10769" xlink:href="#m277b11d2b6" y="146.590434"/>
     <use style="fill:#1f77b4;stroke:#1f77b4;" x="295.800387" xlink:href="#m277b11d2b6" y="146.440164"/>
     <use style="fill:#1f77b4;stroke:#1f77b4;" x="296.441482" xlink:href="#m277b11d2b6" y="146.193591"/>
     <use style="fill:#1f77b4;stroke:#1f77b4;" x="297.144429" xlink:href="#m277b11d2b6" y="146.072605"/>
     <use style="fill:#1f77b4;stroke:#1f77b4;" x="297.832298" xlink:href="#m277b11d2b6" y="145.910485"/>
     <use style="fill:#1f77b4;stroke:#1f77b4;" x="298.349205" xlink:href="#m277b11d2b6" y="145.535451"/>
     <use style="fill:#1f77b4;stroke:#1f77b4;" x="299.039297" xlink:href="#m277b11d2b6" y="145.378665"/>
     <use style="fill:#1f77b4;stroke:#1f77b4;" x="299.685937" xlink:href="#m277b11d2b6" y="145.140269"/>
     <use style="fill:#1f77b4;stroke:#1f77b4;" x="300.407371" xlink:href="#m277b11d2b6" y="145.144341"/>
     <use style="fill:#1f77b4;stroke:#1f77b4;" x="301.005749" xlink:href="#m277b11d2b6" y="144.844012"/>
     <use style="fill:#1f77b4;stroke:#1f77b4;" x="301.724011" xlink:href="#m277b11d2b6" y="144.793489"/>
     <use style="fill:#1f77b4;stroke:#1f77b4;" x="302.441622" xlink:href="#m277b11d2b6" y="144.738073"/>
     <use style="fill:#1f77b4;stroke:#1f77b4;" x="303.16302" xlink:href="#m277b11d2b6" y="144.744795"/>
     <use style="fill:#1f77b4;stroke:#1f77b4;" x="303.821855" xlink:href="#m277b11d2b6" y="144.525721"/>
     <use style="fill:#1f77b4;stroke:#1f77b4;" x="304.473032" xlink:href="#m277b11d2b6" y="144.294283"/>
     <use style="fill:#1f77b4;stroke:#1f77b4;" x="305.184114" xlink:href="#m277b11d2b6" y="144.203446"/>
     <use style="fill:#1f77b4;stroke:#1f77b4;" x="305.882302" xlink:href="#m277b11d2b6" y="144.068021"/>
     <use style="fill:#1f77b4;stroke:#1f77b4;" x="306.468292" xlink:href="#m277b11d2b6" y="143.754422"/>
     <use style="fill:#1f77b4;stroke:#1f77b4;" x="307.068373" xlink:href="#m277b11d2b6" y="143.455985"/>
     <use style="fill:#1f77b4;stroke:#1f77b4;" x="307.702289" xlink:href="#m277b11d2b6" y="143.199313"/>
     <use style="fill:#1f77b4;stroke:#1f77b4;" x="308.356611" xlink:href="#m277b11d2b6" y="142.972854"/>
     <use style="fill:#1f77b4;stroke:#1f77b4;" x="308.989401" xlink:href="#m277b11d2b6" y="142.714642"/>
     <use style="fill:#1f77b4;stroke:#1f77b4;" x="309.710834" xlink:href="#m277b11d2b6" y="142.710527"/>
     <use style="fill:#1f77b4;stroke:#1f77b4;" x="310.42641" xlink:href="#m277b11d2b6" y="142.642039"/>
     <use style="fill:#1f77b4;stroke:#1f77b4;" x="311.050419" xlink:href="#m277b11d2b6" y="142.372223"/>
     <use style="fill:#1f77b4;stroke:#1f77b4;" x="311.751705" xlink:href="#m277b11d2b6" y="142.245998"/>
     <use style="fill:#1f77b4;stroke:#1f77b4;" x="312.429967" xlink:href="#m277b11d2b6" y="142.062778"/>
     <use style="fill:#1f77b4;stroke:#1f77b4;" x="313.140971" xlink:href="#m277b11d2b6" y="142.153952"/>
     <use style="fill:#1f77b4;stroke:#1f77b4;" x="313.857163" xlink:href="#m277b11d2b6" y="142.218763"/>
     <use style="fill:#1f77b4;stroke:#1f77b4;" x="314.56917" xlink:href="#m277b11d2b6" y="142.132044"/>
     <use style="fill:#1f77b4;stroke:#1f77b4;" x="315.289063" xlink:href="#m277b11d2b6" y="142.096693"/>
     <use style="fill:#1f77b4;stroke:#1f77b4;" x="315.988604" xlink:href="#m277b11d2b6" y="142.228186"/>
     <use style="fill:#1f77b4;stroke:#1f77b4;" x="316.660192" xlink:href="#m277b11d2b6" y="142.424584"/>
     <use style="fill:#1f77b4;stroke:#1f77b4;" x="317.381593" xlink:href="#m277b11d2b6" y="142.431124"/>
     <use style="fill:#1f77b4;stroke:#1f77b4;" x="318.099611" xlink:href="#m277b11d2b6" y="142.378709"/>
     <use style="fill:#1f77b4;stroke:#1f77b4;" x="318.814549" xlink:href="#m277b11d2b6" y="142.306617"/>
     <use style="fill:#1f77b4;stroke:#1f77b4;" x="319.529568" xlink:href="#m277b11d2b6" y="142.234971"/>
     <use style="fill:#1f77b4;stroke:#1f77b4;" x="320.181326" xlink:href="#m277b11d2b6" y="142.4655"/>
     <use style="fill:#1f77b4;stroke:#1f77b4;" x="320.846482" xlink:href="#m277b11d2b6" y="142.673697"/>
     <use style="fill:#1f77b4;stroke:#1f77b4;" x="321.567066" xlink:href="#m277b11d2b6" y="142.700097"/>
     <use style="fill:#1f77b4;stroke:#1f77b4;" x="322.226301" xlink:href="#m277b11d2b6" y="142.918501"/>
     <use style="fill:#1f77b4;stroke:#1f77b4;" x="322.943135" xlink:href="#m277b11d2b6" y="142.979247"/>
     <use style="fill:#1f77b4;stroke:#1f77b4;" x="323.663239" xlink:href="#m277b11d2b6" y="142.946366"/>
     <use style="fill:#1f77b4;stroke:#1f77b4;" x="324.356044" xlink:href="#m277b11d2b6" y="143.09636"/>
     <use style="fill:#1f77b4;stroke:#1f77b4;" x="324.994656" xlink:href="#m277b11d2b6" y="143.346486"/>
     <use style="fill:#1f77b4;stroke:#1f77b4;" x="325.558478" xlink:href="#m277b11d2b6" y="143.681892"/>
     <use style="fill:#1f77b4;stroke:#1f77b4;" x="326.072968" xlink:href="#m277b11d2b6" y="144.058768"/>
     <use style="fill:#1f77b4;stroke:#1f77b4;" x="326.787746" xlink:href="#m277b11d2b6" y="144.131735"/>
     <use style="fill:#1f77b4;stroke:#1f77b4;" x="327.468149" xlink:href="#m277b11d2b6" y="144.310494"/>
     <use style="fill:#1f77b4;stroke:#1f77b4;" x="328.182476" xlink:href="#m277b11d2b6" y="144.385873"/>
     <use style="fill:#1f77b4;stroke:#1f77b4;" x="328.822847" xlink:href="#m277b11d2b6" y="144.633488"/>
     <use style="fill:#1f77b4;stroke:#1f77b4;" x="329.500616" xlink:href="#m277b11d2b6" y="144.817721"/>
     <use style="fill:#1f77b4;stroke:#1f77b4;" x="329.936354" xlink:href="#m277b11d2b6" y="145.246191"/>
     <use style="fill:#1f77b4;stroke:#1f77b4;" x="330.597152" xlink:href="#m277b11d2b6" y="145.461957"/>
     <use style="fill:#1f77b4;stroke:#1f77b4;" x="331.026746" xlink:href="#m277b11d2b6" y="145.893858"/>
     <use style="fill:#1f77b4;stroke:#1f77b4;" x="331.604599" xlink:href="#m277b11d2b6" y="146.215732"/>
     <use style="fill:#1f77b4;stroke:#1f77b4;" x="332.090609" xlink:href="#m277b11d2b6" y="146.613044"/>
     <use style="fill:#1f77b4;stroke:#1f77b4;" x="332.52366" xlink:href="#m277b11d2b6" y="147.043025"/>
     <use style="fill:#1f77b4;stroke:#1f77b4;" x="333.168015" xlink:href="#m277b11d2b6" y="147.284833"/>
     <use style="fill:#1f77b4;stroke:#1f77b4;" x="333.734305" xlink:href="#m277b11d2b6" y="147.617923"/>
     <use style="fill:#1f77b4;stroke:#1f77b4;" x="334.292827" xlink:href="#m277b11d2b6" y="147.958217"/>
     <use style="fill:#1f77b4;stroke:#1f77b4;" x="334.813188" xlink:href="#m277b11d2b6" y="148.33059"/>
     <use style="fill:#1f77b4;stroke:#1f77b4;" x="335.273792" xlink:href="#m277b11d2b6" y="148.744367"/>
     <use style="fill:#1f77b4;stroke:#1f77b4;" x="335.615242" xlink:href="#m277b11d2b6" y="149.217945"/>
     <use style="fill:#1f77b4;stroke:#1f77b4;" x="336.148387" xlink:href="#m277b11d2b6" y="149.580137"/>
     <use style="fill:#1f77b4;stroke:#1f77b4;" x="336.790152" xlink:href="#m277b11d2b6" y="149.825741"/>
     <use style="fill:#1f77b4;stroke:#1f77b4;" x="337.322701" xlink:href="#m277b11d2b6" y="150.18842"/>
     <use style="fill:#1f77b4;stroke:#1f77b4;" x="337.636644" xlink:href="#m277b11d2b6" y="150.672451"/>
     <use style="fill:#1f77b4;stroke:#1f77b4;" x="338.013903" xlink:href="#m277b11d2b6" y="151.130693"/>
     <use style="fill:#1f77b4;stroke:#1f77b4;" x="338.625428" xlink:href="#m277b11d2b6" y="151.41594"/>
     <use style="fill:#1f77b4;stroke:#1f77b4;" x="339.021319" xlink:href="#m277b11d2b6" y="151.865369"/>
     <use style="fill:#1f77b4;stroke:#1f77b4;" x="339.663313" xlink:href="#m277b11d2b6" y="152.11064"/>
     <use style="fill:#1f77b4;stroke:#1f77b4;" x="340.235573" xlink:href="#m277b11d2b6" y="152.438016"/>
     <use style="fill:#1f77b4;stroke:#1f77b4;" x="340.747062" xlink:href="#m277b11d2b6" y="152.817152"/>
     <use style="fill:#1f77b4;stroke:#1f77b4;" x="341.282061" xlink:href="#m277b11d2b6" y="153.177823"/>
     <use style="fill:#1f77b4;stroke:#1f77b4;" x="341.826406" xlink:href="#m277b11d2b6" y="153.530644"/>
     <use style="fill:#1f77b4;stroke:#1f77b4;" x="342.192099" xlink:href="#m277b11d2b6" y="153.994063"/>
     <use style="fill:#1f77b4;stroke:#1f77b4;" x="342.55696" xlink:href="#m277b11d2b6" y="154.457847"/>
     <use style="fill:#1f77b4;stroke:#1f77b4;" x="343.020473" xlink:href="#m277b11d2b6" y="154.869815"/>
     <use style="fill:#1f77b4;stroke:#1f77b4;" x="343.664924" xlink:href="#m277b11d2b6" y="155.111481"/>
     <use style="fill:#1f77b4;stroke:#1f77b4;" x="344.135853" xlink:href="#m277b11d2b6" y="155.518753"/>
     <use style="fill:#1f77b4;stroke:#1f77b4;" x="344.479602" xlink:href="#m277b11d2b6" y="155.991407"/>
     <use style="fill:#1f77b4;stroke:#1f77b4;" x="344.896613" xlink:href="#m277b11d2b6" y="156.430103"/>
     <use style="fill:#1f77b4;stroke:#1f77b4;" x="345.462555" xlink:href="#m277b11d2b6" y="156.763521"/>
     <use style="fill:#1f77b4;stroke:#1f77b4;" x="345.82352" xlink:href="#m277b11d2b6" y="157.228994"/>
     <use style="fill:#1f77b4;stroke:#1f77b4;" x="346.183986" xlink:href="#m277b11d2b6" y="157.694681"/>
     <use style="fill:#1f77b4;stroke:#1f77b4;" x="346.646451" xlink:href="#m277b11d2b6" y="158.107303"/>
     <use style="fill:#1f77b4;stroke:#1f77b4;" x="347.023189" xlink:href="#m277b11d2b6" y="158.565784"/>
     <use style="fill:#1f77b4;stroke:#1f77b4;" x="347.659" xlink:href="#m277b11d2b6" y="158.81984"/>
     <use style="fill:#1f77b4;stroke:#1f77b4;" x="347.95189" xlink:href="#m277b11d2b6" y="159.311145"/>
     <use style="fill:#1f77b4;stroke:#1f77b4;" x="348.521915" xlink:href="#m277b11d2b6" y="159.640679"/>
     <use style="fill:#1f77b4;stroke:#1f77b4;" x="349.116859" xlink:href="#m277b11d2b6" y="159.944773"/>
     <use style="fill:#1f77b4;stroke:#1f77b4;" x="349.563406" xlink:href="#m277b11d2b6" y="160.367018"/>
     <use style="fill:#1f77b4;stroke:#1f77b4;" x="349.944267" xlink:href="#m277b11d2b6" y="160.823603"/>
     <use style="fill:#1f77b4;stroke:#1f77b4;" x="350.455423" xlink:href="#m277b11d2b6" y="161.202989"/>
     <use style="fill:#1f77b4;stroke:#1f77b4;" x="350.862699" xlink:href="#m277b11d2b6" y="161.646734"/>
     <use style="fill:#1f77b4;stroke:#1f77b4;" x="351.156115" xlink:href="#m277b11d2b6" y="162.137865"/>
     <use style="fill:#1f77b4;stroke:#1f77b4;" x="351.547073" xlink:href="#m277b11d2b6" y="162.589686"/>
     <use style="fill:#1f77b4;stroke:#1f77b4;" x="352.104313" xlink:href="#m277b11d2b6" y="162.931146"/>
     <use style="fill:#1f77b4;stroke:#1f77b4;" x="352.642404" xlink:href="#m277b11d2b6" y="163.289253"/>
     <use style="fill:#1f77b4;stroke:#1f77b4;" x="353.006538" xlink:href="#m277b11d2b6" y="163.753354"/>
     <use style="fill:#1f77b4;stroke:#1f77b4;" x="353.639195" xlink:href="#m277b11d2b6" y="164.011745"/>
     <use style="fill:#1f77b4;stroke:#1f77b4;" x="353.966116" xlink:href="#m277b11d2b6" y="164.490983"/>
     <use style="fill:#1f77b4;stroke:#1f77b4;" x="354.431905" xlink:href="#m277b11d2b6" y="164.901523"/>
     <use style="fill:#1f77b4;stroke:#1f77b4;" x="354.956027" xlink:href="#m277b11d2b6" y="165.270956"/>
     <use style="fill:#1f77b4;stroke:#1f77b4;" x="355.50727" xlink:href="#m277b11d2b6" y="165.617778"/>
     <use style="fill:#1f77b4;stroke:#1f77b4;" x="355.946356" xlink:href="#m277b11d2b6" y="166.044347"/>
     <use style="fill:#1f77b4;stroke:#1f77b4;" x="356.308595" xlink:href="#m277b11d2b6" y="166.50927"/>
     <use style="fill:#1f77b4;stroke:#1f77b4;" x="356.704508" xlink:href="#m277b11d2b6" y="166.958689"/>
     <use style="fill:#1f77b4;stroke:#1f77b4;" x="357.185019" xlink:href="#m277b11d2b6" y="167.359698"/>
     <use style="fill:#1f77b4;stroke:#1f77b4;" x="357.806845" xlink:href="#m277b11d2b6" y="167.632297"/>
     <use style="fill:#1f77b4;stroke:#1f77b4;" x="358.413609" xlink:href="#m277b11d2b6" y="167.923134"/>
     <use style="fill:#1f77b4;stroke:#1f77b4;" x="358.591371" xlink:href="#m277b11d2b6" y="168.444159"/>
     <use style="fill:#1f77b4;stroke:#1f77b4;" x="359.19194" xlink:href="#m277b11d2b6" y="168.742051"/>
     <use style="fill:#1f77b4;stroke:#1f77b4;" x="359.663576" xlink:href="#m277b11d2b6" y="169.148867"/>
     <use style="fill:#1f77b4;stroke:#1f77b4;" x="360.259497" xlink:href="#m277b11d2b6" y="169.451898"/>
     <use style="fill:#1f77b4;stroke:#1f77b4;" x="360.677287" xlink:href="#m277b11d2b6" y="169.890182"/>
     <use style="fill:#1f77b4;stroke:#1f77b4;" x="360.834789" xlink:href="#m277b11d2b6" y="170.414815"/>
     <use style="fill:#1f77b4;stroke:#1f77b4;" x="361.388348" xlink:href="#m277b11d2b6" y="170.759583"/>
     <use style="fill:#1f77b4;stroke:#1f77b4;" x="361.919233" xlink:href="#m277b11d2b6" y="171.123613"/>
     <use style="fill:#1f77b4;stroke:#1f77b4;" x="362.13357" xlink:href="#m277b11d2b6" y="171.63694"/>
     <use style="fill:#1f77b4;stroke:#1f77b4;" x="362.643722" xlink:href="#m277b11d2b6" y="172.017076"/>
     <use style="fill:#1f77b4;stroke:#1f77b4;" x="363.172567" xlink:href="#m277b11d2b6" y="172.382751"/>
     <use style="fill:#1f77b4;stroke:#1f77b4;" x="363.404589" xlink:href="#m277b11d2b6" y="172.891791"/>
     <use style="fill:#1f77b4;stroke:#1f77b4;" x="363.839862" xlink:href="#m277b11d2b6" y="173.320524"/>
     <use style="fill:#1f77b4;stroke:#1f77b4;" x="364.382897" xlink:href="#m277b11d2b6" y="173.674464"/>
     <use style="fill:#1f77b4;stroke:#1f77b4;" x="364.724638" xlink:href="#m277b11d2b6" y="174.147925"/>
     <use style="fill:#1f77b4;stroke:#1f77b4;" x="365.362267" xlink:href="#m277b11d2b6" y="174.399439"/>
     <use style="fill:#1f77b4;stroke:#1f77b4;" x="365.953901" xlink:href="#m277b11d2b6" y="174.707098"/>
     <use style="fill:#1f77b4;stroke:#1f77b4;" x="366.386867" xlink:href="#m277b11d2b6" y="175.137126"/>
     <use style="fill:#1f77b4;stroke:#1f77b4;" x="366.766245" xlink:href="#m277b11d2b6" y="175.594396"/>
     <use style="fill:#1f77b4;stroke:#1f77b4;" x="367.361305" xlink:href="#m277b11d2b6" y="175.898364"/>
     <use style="fill:#1f77b4;stroke:#1f77b4;" x="367.945859" xlink:href="#m277b11d2b6" y="176.213447"/>
     <use style="fill:#1f77b4;stroke:#1f77b4;" x="368.32469" xlink:href="#m277b11d2b6" y="176.670969"/>
     <use style="fill:#1f77b4;stroke:#1f77b4;" x="368.886441" xlink:href="#m277b11d2b6" y="177.0083"/>
     <use style="fill:#1f77b4;stroke:#1f77b4;" x="369.16679" xlink:href="#m277b11d2b6" y="177.50365"/>
     <use style="fill:#1f77b4;stroke:#1f77b4;" x="369.344375" xlink:href="#m277b11d2b6" y="178.02471"/>
     <use style="fill:#1f77b4;stroke:#1f77b4;" x="369.685331" xlink:href="#m277b11d2b6" y="178.498486"/>
     <use style="fill:#1f77b4;stroke:#1f77b4;" x="370.137028" xlink:href="#m277b11d2b6" y="178.917678"/>
     <use style="fill:#1f77b4;stroke:#1f77b4;" x="370.602176" xlink:href="#m277b11d2b6" y="179.328623"/>
     <use style="fill:#1f77b4;stroke:#1f77b4;" x="371.146169" xlink:href="#m277b11d2b6" y="179.681744"/>
     <use style="fill:#1f77b4;stroke:#1f77b4;" x="371.56192" xlink:href="#m277b11d2b6" y="180.121104"/>
     <use style="fill:#1f77b4;stroke:#1f77b4;" x="372.087734" xlink:href="#m277b11d2b6" y="180.489199"/>
     <use style="fill:#1f77b4;stroke:#1f77b4;" x="372.581943" xlink:href="#m277b11d2b6" y="180.880855"/>
     <use style="fill:#1f77b4;stroke:#1f77b4;" x="372.805127" xlink:href="#m277b11d2b6" y="181.392084"/>
     <use style="fill:#1f77b4;stroke:#1f77b4;" x="373.055489" xlink:href="#m277b11d2b6" y="181.896276"/>
     <use style="fill:#1f77b4;stroke:#1f77b4;" x="373.586481" xlink:href="#m277b11d2b6" y="182.26022"/>
     <use style="fill:#1f77b4;stroke:#1f77b4;" x="373.898682" xlink:href="#m277b11d2b6" y="182.744877"/>
     <use style="fill:#1f77b4;stroke:#1f77b4;" x="374.558869" xlink:href="#m277b11d2b6" y="182.961679"/>
     <use style="fill:#1f77b4;stroke:#1f77b4;" x="374.853676" xlink:href="#m277b11d2b6" y="183.452347"/>
     <use style="fill:#1f77b4;stroke:#1f77b4;" x="375.2336" xlink:href="#m277b11d2b6" y="183.909365"/>
     <use style="fill:#1f77b4;stroke:#1f77b4;" x="375.632552" xlink:href="#m277b11d2b6" y="184.357289"/>
     <use style="fill:#1f77b4;stroke:#1f77b4;" x="376.191685" xlink:href="#m277b11d2b6" y="184.697027"/>
     <use style="fill:#1f77b4;stroke:#1f77b4;" x="376.682578" xlink:href="#m277b11d2b6" y="185.090991"/>
     <use style="fill:#1f77b4;stroke:#1f77b4;" x="377.344908" xlink:href="#m277b11d2b6" y="185.304133"/>
     <use style="fill:#1f77b4;stroke:#1f77b4;" x="377.723275" xlink:href="#m277b11d2b6" y="185.761868"/>
     <use style="fill:#1f77b4;stroke:#1f77b4;" x="378.078358" xlink:href="#m277b11d2b6" y="186.229846"/>
     <use style="fill:#1f77b4;stroke:#1f77b4;" x="378.74931" xlink:href="#m277b11d2b6" y="186.427448"/>
     <use style="fill:#1f77b4;stroke:#1f77b4;" x="379.091745" xlink:href="#m277b11d2b6" y="186.900631"/>
     <use style="fill:#1f77b4;stroke:#1f77b4;" x="379.65539" xlink:href="#m277b11d2b6" y="187.236203"/>
     <use style="fill:#1f77b4;stroke:#1f77b4;" x="380.279883" xlink:href="#m277b11d2b6" y="187.505396"/>
     <use style="fill:#1f77b4;stroke:#1f77b4;" x="380.58155" xlink:href="#m277b11d2b6" y="187.993744"/>
     <use style="fill:#1f77b4;stroke:#1f77b4;" x="381.112346" xlink:href="#m277b11d2b6" y="188.357846"/>
     <use style="fill:#1f77b4;stroke:#1f77b4;" x="381.670922" xlink:href="#m277b11d2b6" y="188.698092"/>
     <use style="fill:#1f77b4;stroke:#1f77b4;" x="381.822835" xlink:href="#m277b11d2b6" y="189.223639"/>
     <use style="fill:#1f77b4;stroke:#1f77b4;" x="382.437445" xlink:href="#m277b11d2b6" y="189.505178"/>
     <use style="fill:#1f77b4;stroke:#1f77b4;" x="382.92352" xlink:href="#m277b11d2b6" y="189.902446"/>
     <use style="fill:#1f77b4;stroke:#1f77b4;" x="383.326692" xlink:href="#m277b11d2b6" y="190.348267"/>
     <use style="fill:#1f77b4;stroke:#1f77b4;" x="383.515624" xlink:href="#m277b11d2b6" y="190.867106"/>
     <use style="fill:#1f77b4;stroke:#1f77b4;" x="384.14199" xlink:href="#m277b11d2b6" y="191.133871"/>
     <use style="fill:#1f77b4;stroke:#1f77b4;" x="384.566217" xlink:href="#m277b11d2b6" y="191.568708"/>
     <use style="fill:#1f77b4;stroke:#1f77b4;" x="385.099261" xlink:href="#m277b11d2b6" y="191.930983"/>
     <use style="fill:#1f77b4;stroke:#1f77b4;" x="385.600268" xlink:href="#m277b11d2b6" y="192.317814"/>
     <use style="fill:#1f77b4;stroke:#1f77b4;" x="385.824466" xlink:href="#m277b11d2b6" y="192.828796"/>
     <use style="fill:#1f77b4;stroke:#1f77b4;" x="386.355038" xlink:href="#m277b11d2b6" y="193.193081"/>
     <use style="fill:#1f77b4;stroke:#1f77b4;" x="386.659741" xlink:href="#m277b11d2b6" y="193.68038"/>
     <use style="fill:#1f77b4;stroke:#1f77b4;" x="387.313252" xlink:href="#m277b11d2b6" y="193.908136"/>
     <use style="fill:#1f77b4;stroke:#1f77b4;" x="387.871903" xlink:href="#m277b11d2b6" y="194.248313"/>
     <use style="fill:#1f77b4;stroke:#1f77b4;" x="388.268062" xlink:href="#m277b11d2b6" y="194.697612"/>
     <use style="fill:#1f77b4;stroke:#1f77b4;" x="388.464659" xlink:href="#m277b11d2b6" y="195.214867"/>
     <use style="fill:#1f77b4;stroke:#1f77b4;" x="389.053169" xlink:href="#m277b11d2b6" y="195.525835"/>
     <use style="fill:#1f77b4;stroke:#1f77b4;" x="389.376712" xlink:href="#m277b11d2b6" y="196.006343"/>
     <use style="fill:#1f77b4;stroke:#1f77b4;" x="389.917335" xlink:href="#m277b11d2b6" y="196.362328"/>
     <use style="fill:#1f77b4;stroke:#1f77b4;" x="390.507653" xlink:href="#m277b11d2b6" y="196.671386"/>
     <use style="fill:#1f77b4;stroke:#1f77b4;" x="390.580625" xlink:href="#m277b11d2b6" y="197.206229"/>
     <use style="fill:#1f77b4;stroke:#1f77b4;" x="391.028442" xlink:href="#m277b11d2b6" y="197.627727"/>
     <use style="fill:#1f77b4;stroke:#1f77b4;" x="391.673386" xlink:href="#m277b11d2b6" y="197.868663"/>
     <use style="fill:#1f77b4;stroke:#1f77b4;" x="391.839543" xlink:href="#m277b11d2b6" y="198.391811"/>
     <use style="fill:#1f77b4;stroke:#1f77b4;" x="392.236949" xlink:href="#m277b11d2b6" y="198.840498"/>
     <use style="fill:#1f77b4;stroke:#1f77b4;" x="392.951151" xlink:href="#m277b11d2b6" y="198.916532"/>
     <use style="fill:#1f77b4;stroke:#1f77b4;" x="393.150293" xlink:href="#m277b11d2b6" y="199.433246"/>
     <use style="fill:#1f77b4;stroke:#1f77b4;" x="393.632271" xlink:href="#m277b11d2b6" y="199.833276"/>
     <use style="fill:#1f77b4;stroke:#1f77b4;" x="394.126996" xlink:href="#m277b11d2b6" y="200.224571"/>
    </g>
   </g>
   <g id="line2d_12">
    <defs>
     <path d="M 0 -3 
L -0.673542 -0.927051 
L -2.85317 -0.927051 
L -1.089814 0.354102 
L -1.763356 2.427051 
L -0 1.145898 
L 1.763356 2.427051 
L 1.089814 0.354102 
L 2.85317 -0.927051 
L 0.673542 -0.927051 
z
" id="mfa4340ead7" style="stroke:#bfbf00;stroke-linejoin:bevel;"/>
    </defs>
    <g clip-path="url(#pcfb4c7967f)">
     <use style="fill:#bfbf00;stroke:#bfbf00;stroke-linejoin:bevel;" x="237.963636" xlink:href="#mfa4340ead7" y="173.184"/>
    </g>
   </g>
   <g id="line2d_13">
    <defs>
     <path d="M -3 3 
L 3 -3 
M -3 -3 
L 3 3 
" id="m35560530ba" style="stroke:#ff0000;"/>
    </defs>
    <g clip-path="url(#pcfb4c7967f)">
     <use style="fill:#ff0000;stroke:#ff0000;" x="394.126996" xlink:href="#m35560530ba" y="200.224571"/>
    </g>
   </g>
   <g id="patch_3">
    <path d="M 57.6 307.584 
L 57.6 41.472 
" style="fill:none;stroke:#000000;stroke-linecap:square;stroke-linejoin:miter;stroke-width:0.8;"/>
   </g>
   <g id="patch_4">
    <path d="M 414.72 307.584 
L 414.72 41.472 
" style="fill:none;stroke:#000000;stroke-linecap:square;stroke-linejoin:miter;stroke-width:0.8;"/>
   </g>
   <g id="patch_5">
    <path d="M 57.6 307.584 
L 414.72 307.584 
" style="fill:none;stroke:#000000;stroke-linecap:square;stroke-linejoin:miter;stroke-width:0.8;"/>
   </g>
   <g id="patch_6">
    <path d="M 57.6 41.472 
L 414.72 41.472 
" style="fill:none;stroke:#000000;stroke-linecap:square;stroke-linejoin:miter;stroke-width:0.8;"/>
   </g>
   <g id="text_13">
    <!-- Hill Climbing -->
    <defs>
     <path d="M 9.8125 72.90625 
L 19.671875 72.90625 
L 19.671875 43.015625 
L 55.515625 43.015625 
L 55.515625 72.90625 
L 65.375 72.90625 
L 65.375 0 
L 55.515625 0 
L 55.515625 34.71875 
L 19.671875 34.71875 
L 19.671875 0 
L 9.8125 0 
z
" id="DejaVuSans-72"/>
     <path d="M 9.421875 54.6875 
L 18.40625 54.6875 
L 18.40625 0 
L 9.421875 0 
z
M 9.421875 75.984375 
L 18.40625 75.984375 
L 18.40625 64.59375 
L 9.421875 64.59375 
z
" id="DejaVuSans-105"/>
     <path d="M 9.421875 75.984375 
L 18.40625 75.984375 
L 18.40625 0 
L 9.421875 0 
z
" id="DejaVuSans-108"/>
     <path d="M 64.40625 67.28125 
L 64.40625 56.890625 
Q 59.421875 61.53125 53.78125 63.8125 
Q 48.140625 66.109375 41.796875 66.109375 
Q 29.296875 66.109375 22.65625 58.46875 
Q 16.015625 50.828125 16.015625 36.375 
Q 16.015625 21.96875 22.65625 14.328125 
Q 29.296875 6.6875 41.796875 6.6875 
Q 48.140625 6.6875 53.78125 8.984375 
Q 59.421875 11.28125 64.40625 15.921875 
L 64.40625 5.609375 
Q 59.234375 2.09375 53.4375 0.328125 
Q 47.65625 -1.421875 41.21875 -1.421875 
Q 24.65625 -1.421875 15.125 8.703125 
Q 5.609375 18.84375 5.609375 36.375 
Q 5.609375 53.953125 15.125 64.078125 
Q 24.65625 74.21875 41.21875 74.21875 
Q 47.75 74.21875 53.53125 72.484375 
Q 59.328125 70.75 64.40625 67.28125 
z
" id="DejaVuSans-67"/>
     <path d="M 48.6875 27.296875 
Q 48.6875 37.203125 44.609375 42.84375 
Q 40.53125 48.484375 33.40625 48.484375 
Q 26.265625 48.484375 22.1875 42.84375 
Q 18.109375 37.203125 18.109375 27.296875 
Q 18.109375 17.390625 22.1875 11.75 
Q 26.265625 6.109375 33.40625 6.109375 
Q 40.53125 6.109375 44.609375 11.75 
Q 48.6875 17.390625 48.6875 27.296875 
z
M 18.109375 46.390625 
Q 20.953125 51.265625 25.265625 53.625 
Q 29.59375 56 35.59375 56 
Q 45.5625 56 51.78125 48.09375 
Q 58.015625 40.1875 58.015625 27.296875 
Q 58.015625 14.40625 51.78125 6.484375 
Q 45.5625 -1.421875 35.59375 -1.421875 
Q 29.59375 -1.421875 25.265625 0.953125 
Q 20.953125 3.328125 18.109375 8.203125 
L 18.109375 0 
L 9.078125 0 
L 9.078125 75.984375 
L 18.109375 75.984375 
z
" id="DejaVuSans-98"/>
     <path d="M 54.890625 33.015625 
L 54.890625 0 
L 45.90625 0 
L 45.90625 32.71875 
Q 45.90625 40.484375 42.875 44.328125 
Q 39.84375 48.1875 33.796875 48.1875 
Q 26.515625 48.1875 22.3125 43.546875 
Q 18.109375 38.921875 18.109375 30.90625 
L 18.109375 0 
L 9.078125 0 
L 9.078125 54.6875 
L 18.109375 54.6875 
L 18.109375 46.1875 
Q 21.34375 51.125 25.703125 53.5625 
Q 30.078125 56 35.796875 56 
Q 45.21875 56 50.046875 50.171875 
Q 54.890625 44.34375 54.890625 33.015625 
z
" id="DejaVuSans-110"/>
     <path d="M 45.40625 27.984375 
Q 45.40625 37.75 41.375 43.109375 
Q 37.359375 48.484375 30.078125 48.484375 
Q 22.859375 48.484375 18.828125 43.109375 
Q 14.796875 37.75 14.796875 27.984375 
Q 14.796875 18.265625 18.828125 12.890625 
Q 22.859375 7.515625 30.078125 7.515625 
Q 37.359375 7.515625 41.375 12.890625 
Q 45.40625 18.265625 45.40625 27.984375 
z
M 54.390625 6.78125 
Q 54.390625 -7.171875 48.1875 -13.984375 
Q 42 -20.796875 29.203125 -20.796875 
Q 24.46875 -20.796875 20.265625 -20.09375 
Q 16.0625 -19.390625 12.109375 -17.921875 
L 12.109375 -9.1875 
Q 16.0625 -11.328125 19.921875 -12.34375 
Q 23.78125 -13.375 27.78125 -13.375 
Q 36.625 -13.375 41.015625 -8.765625 
Q 45.40625 -4.15625 45.40625 5.171875 
L 45.40625 9.625 
Q 42.625 4.78125 38.28125 2.390625 
Q 33.9375 0 27.875 0 
Q 17.828125 0 11.671875 7.65625 
Q 5.515625 15.328125 5.515625 27.984375 
Q 5.515625 40.671875 11.671875 48.328125 
Q 17.828125 56 27.875 56 
Q 33.9375 56 38.28125 53.609375 
Q 42.625 51.21875 45.40625 46.390625 
L 45.40625 54.6875 
L 54.390625 54.6875 
z
" id="DejaVuSans-103"/>
    </defs>
    <g transform="translate(198.285 35.472)scale(0.12 -0.12)">
     <use xlink:href="#DejaVuSans-72"/>
     <use x="75.195312" xlink:href="#DejaVuSans-105"/>
     <use x="102.978516" xlink:href="#DejaVuSans-108"/>
     <use x="130.761719" xlink:href="#DejaVuSans-108"/>
     <use x="158.544922" xlink:href="#DejaVuSans-32"/>
     <use x="190.332031" xlink:href="#DejaVuSans-67"/>
     <use x="260.15625" xlink:href="#DejaVuSans-108"/>
     <use x="287.939453" xlink:href="#DejaVuSans-105"/>
     <use x="315.722656" xlink:href="#DejaVuSans-109"/>
     <use x="413.134766" xlink:href="#DejaVuSans-98"/>
     <use x="476.611328" xlink:href="#DejaVuSans-105"/>
     <use x="504.394531" xlink:href="#DejaVuSans-110"/>
     <use x="567.773438" xlink:href="#DejaVuSans-103"/>
    </g>
   </g>
  </g>
 </g>
 <defs>
  <clipPath id="pcfb4c7967f">
   <rect height="266.112" width="357.12" x="57.6" y="41.472"/>
  </clipPath>
 </defs>
</svg>
